<svg version="1.1" viewBox="0.0 0.0 622.0 367.0" fill="none" stroke="none" stroke-linecap="square" stroke-miterlimit="10" width="622" height="367" xmlns:xlink="http://www.w3.org/1999/xlink" xmlns="http://www.w3.org/2000/svg"><path fill="#ffffff" d="M0 0L622.0 0L622.0 367.0L0 367.0L0 0Z" fill-rule="nonzero"/><path fill="#34a853" d="M231.26666 41.2875C244.86778 41.2875 258.42673 42.346016 271.69366 44.443542L231.26666 169.7375Z" fill-rule="nonzero"/><path fill="#7baaf7" d="M271.69366 44.443542C298.30975 48.651604 323.25018 56.961784 344.69885 68.76898L231.26666 169.7375Z" fill-rule="nonzero"/><path fill="#f07b72" d="M344.69885 68.76898C353.86023 73.812195 362.31436 79.4549 369.94672 85.620636L231.26666 169.7375Z" fill-rule="nonzero"/><path fill="#fcd04f" d="M369.94672 85.620636C385.24612 97.980156 397.03308 112.271095 404.67432 127.72562L231.26666 169.7375Z" fill-rule="nonzero"/><path fill="#71c287" d="M404.67432 127.72562C405.62662 129.65169 406.5133 131.59335 407.33362 133.54895L231.26666 169.7375Z" fill-rule="nonzero"/><path fill="#ff994d" d="M407.33362 133.54895C410.6172 141.37692 412.82788 149.40605 413.93576 157.52756L231.26666 169.7375Z" fill-rule="nonzero"/><path fill="#589297" d="M414.76666 197.2625C414.76666 198.62125 414.73587 199.97989 414.6743 201.33795L414.6743 173.81296C414.73587 172.4549 414.76666 171.09624 414.76666 169.7375Z" fill-rule="nonzero"/><path fill="#7ed1d7" d="M413.93576 157.52756C414.67404 162.9396 414.92072 168.37901 414.6743 173.81296L231.26666 169.7375Z" fill-rule="nonzero"/><path fill="#7d90b0" d="M414.6743 201.33795C413.80853 220.42891 406.8714 239.14442 394.36798 256.1217L394.36798 228.5967C406.8714 211.61943 413.80853 192.90392 414.6743 173.81296Z" fill-rule="nonzero"/><path fill="#b3cefb" d="M414.6743 173.81296C413.80853 192.90392 406.8714 211.61943 394.36798 228.5967L231.26666 169.7375Z" fill-rule="nonzero"/><path fill="#ad7e7a" d="M394.36798 256.1217C376.42865 280.4799 347.83054 300.18344 312.7529 312.3529L312.7529 284.8279C347.83054 272.65842 376.42865 252.95488 394.36798 228.5967Z" fill-rule="nonzero"/><path fill="#f7b4ae" d="M394.36798 228.5967C376.42865 252.95488 347.83054 272.65842 312.7529 284.8279L231.26666 169.7375Z" fill-rule="nonzero"/><path fill="#7fa0a2" d="M312.7529 312.3529C293.57364 319.00674 272.87915 323.26025 251.60547 324.92105L251.60547 297.39606C272.87915 295.73526 293.57364 291.48175 312.7529 284.8279Z" fill-rule="nonzero"/><path fill="#b5e5e8" d="M312.7529 284.8279C293.57364 291.48175 272.87915 295.73526 251.60547 297.39606L231.26666 169.7375Z" fill-rule="nonzero"/><path fill="#5f3d05" d="M228.35526 41.30367C229.32565 41.29289 230.29616 41.2875 231.26666 41.2875L231.26666 169.7375Z" fill-rule="nonzero"/><path fill="#250d0a" d="M102.54603 78.19193C136.15356 55.036987 181.20557 41.82739 228.35526 41.30367L231.26666 169.7375Z" fill-rule="nonzero"/><path fill="#ff1d32" d="M100.48729 79.63305C101.168076 79.14887 101.85435 78.66849 102.54603 78.19193L231.26666 169.7375Z" fill-rule="nonzero"/><path fill="#021a1b" d="M104.63717 290.22614C68.31846 265.98526 47.766666 232.39018 47.766666 197.2625L47.766666 169.7375C47.766666 204.86517 68.31846 238.46027 104.63717 262.70114Z" fill-rule="nonzero"/><path fill="#032527" d="M104.63717 262.70114C69.049805 238.9484 48.569923 206.19147 47.789764 171.77548C47.009605 137.3595 65.994446 104.16421 100.48729 79.63305L231.26666 169.7375Z" fill-rule="nonzero"/><path fill="#a6aeae" d="M134.5208 306.40973C123.79062 301.74933 113.776344 296.32608 104.63717 290.22614L104.63717 262.70114C113.776344 268.80106 123.79062 274.22433 134.5208 278.88474Z" fill-rule="nonzero"/><path fill="#edf8f9" d="M134.5208 278.88474C123.79062 274.22433 113.776344 268.80106 104.63717 262.70114L231.26666 169.7375Z" fill-rule="nonzero"/><path fill="#a5aca7" d="M251.60547 324.92105C210.71626 328.1132 169.4808 321.59378 134.5208 306.40973L134.5208 278.88474C169.4808 294.0688 210.71626 300.58817 251.60547 297.39606Z" fill-rule="nonzero"/><path fill="#ebf6ee" d="M251.60547 297.39606C210.71626 300.58817 169.4808 294.0688 134.5208 278.88474L231.26666 169.7375Z" fill-rule="nonzero"/><path fill="#34a853" d="M499.0 6.5C499.0 9.813708 496.31372 12.5 493.0 12.5C489.68628 12.5 487.0 9.813708 487.0 6.5C487.0 3.1862915 489.68628 0.5 493.0 0.5C496.31372 0.5 499.0 3.1862915 499.0 6.5Z" fill-rule="nonzero"/><path fill="#1a1a1a" d="M507.73438 4.296875L512.2344 4.296875L512.2344 10.0L511.26562 10.0L511.26562 5.09375L508.70312 5.09375L508.70312 10.0L507.73438 10.0L507.73438 4.296875ZM513.71875 4.296875L514.6875 4.296875L514.6875 8.640625L517.375 4.296875L518.4219 4.296875L518.4219 10.0L517.4531 10.0L517.4531 5.671875L514.7656 10.0L513.71875 10.0L513.71875 4.296875ZM519.71875 12.1875L519.71875 4.296875L520.6094 4.296875L520.6094 5.03125Q520.9219 4.609375 521.3125 4.390625Q521.7031 4.171875 522.2656 4.171875Q522.9844 4.171875 523.5469 4.546875Q524.1094 4.921875 524.3906 5.609375Q524.6719 6.28125 524.6719 7.109375Q524.6719 7.984375 524.3594 8.6875Q524.0469 9.375 523.4375 9.75Q522.84375 10.125 522.1875 10.125Q521.7031 10.125 521.3125 9.921875Q520.9375 9.71875 520.6875 9.40625L520.6875 12.1875L519.71875 12.1875ZM520.59375 7.1875Q520.59375 8.28125 521.0469 8.8125Q521.5 9.328125 522.125 9.328125Q522.7656 9.328125 523.21875 8.796875Q523.6875 8.25 523.6875 7.09375Q523.6875 6.015625 523.2344 5.46875Q522.7969 4.921875 522.1719 4.921875Q521.5469 4.921875 521.0625 5.5Q520.59375 6.078125 520.59375 7.1875ZM529.4531 7.90625L530.3906 8.03125Q530.25 9.015625 529.59375 9.578125Q528.9531 10.125 528.03125 10.125Q526.8594 10.125 526.1406 9.359375Q525.4375 8.59375 525.4375 7.171875Q525.4375 6.25 525.7344 5.5625Q526.0469 4.859375 526.6719 4.515625Q527.2969 4.171875 528.03125 4.171875Q528.9531 4.171875 529.5469 4.640625Q530.1406 5.109375 530.3125 5.96875L529.3594 6.109375Q529.2344 5.546875 528.8906 5.265625Q528.5469 4.96875 528.0625 4.96875Q527.34375 4.96875 526.875 5.5Q526.4219 6.015625 526.4219 7.140625Q526.4219 8.296875 526.8594 8.8125Q527.2969 9.328125 528.0156 9.328125Q528.5781 9.328125 528.9531 8.984375Q529.34375 8.640625 529.4531 7.90625ZM531.9844 10.0L531.9844 8.90625L533.0781 8.90625L533.0781 10.0Q533.0781 10.609375 532.8594 10.984375Q532.65625 11.359375 532.1875 11.5625L531.90625 11.140625Q532.21875 11.015625 532.3594 10.75Q532.5156 10.484375 532.53125 10.0L531.9844 10.0ZM540.7344 4.296875L545.2344 4.296875L545.2344 10.0L544.2656 10.0L544.2656 5.09375L541.7031 5.09375L541.7031 10.0L540.7344 10.0L540.7344 4.296875ZM550.625 8.15625L551.625 8.28125Q551.3906 9.15625 550.75 9.640625Q550.1094 10.125 549.125 10.125Q547.875 10.125 547.1406 9.359375Q546.40625 8.59375 546.40625 7.203125Q546.40625 5.75 547.1406 4.96875Q547.8906 4.171875 549.0625 4.171875Q550.21875 4.171875 550.9375 4.953125Q551.65625 5.71875 551.65625 7.140625Q551.65625 7.21875 551.65625 7.390625L547.40625 7.390625Q547.4531 8.328125 547.9219 8.828125Q548.40625 9.328125 549.125 9.328125Q549.65625 9.328125 550.03125 9.0625Q550.40625 8.78125 550.625 8.15625ZM547.4531 6.59375L550.6406 6.59375Q550.5781 5.875 550.28125 5.515625Q549.8125 4.96875 549.0781 4.96875Q548.40625 4.96875 547.9531 5.421875Q547.5 5.859375 547.4531 6.59375ZM552.2031 4.296875L556.84375 4.296875L556.84375 5.09375L555.0 5.09375L555.0 10.0L554.0469 10.0L554.0469 5.09375L552.2031 5.09375L552.2031 4.296875ZM562.625 8.15625L563.625 8.28125Q563.3906 9.15625 562.75 9.640625Q562.1094 10.125 561.125 10.125Q559.875 10.125 559.1406 9.359375Q558.40625 8.59375 558.40625 7.203125Q558.40625 5.75 559.1406 4.96875Q559.8906 4.171875 561.0625 4.171875Q562.21875 4.171875 562.9375 4.953125Q563.65625 5.71875 563.65625 7.140625Q563.65625 7.21875 563.65625 7.390625L559.40625 7.390625Q559.4531 8.328125 559.9219 8.828125Q560.40625 9.328125 561.125 9.328125Q561.65625 9.328125 562.03125 9.0625Q562.40625 8.78125 562.625 8.15625ZM559.4531 6.59375L562.6406 6.59375Q562.5781 5.875 562.28125 5.515625Q561.8125 4.96875 561.0781 4.96875Q560.40625 4.96875 559.9531 5.421875Q559.5 5.859375 559.4531 6.59375ZM565.2031 4.296875L569.6875 4.296875L569.6875 10.0L568.7344 10.0L568.7344 5.09375L566.1719 5.09375L566.1719 7.9375Q566.1719 8.9375 566.09375 9.25Q566.03125 9.5625 565.7344 9.796875Q565.4531 10.03125 564.90625 10.03125Q564.5625 10.03125 564.125 10.0L564.125 9.1875L564.5469 9.1875Q564.8594 9.1875 564.9844 9.125Q565.1094 9.0625 565.15625 8.9375Q565.2031 8.796875 565.2031 8.0625L565.2031 4.296875ZM570.7031 4.296875L571.6719 4.296875L571.6719 6.53125L572.90625 6.53125Q574.09375 6.53125 574.7344 7.0Q575.3906 7.453125 575.3906 8.265625Q575.3906 8.984375 574.84375 9.5Q574.3125 10.0 573.125 10.0L570.7031 10.0L570.7031 4.296875ZM571.6719 9.203125L572.6875 9.203125Q573.6094 9.203125 574.0 8.984375Q574.3906 8.75 574.3906 8.28125Q574.3906 7.90625 574.09375 7.625Q573.8125 7.328125 572.8125 7.328125L571.6719 7.328125L571.6719 9.203125ZM576.71875 4.296875L577.6875 4.296875L577.6875 6.765625Q578.15625 6.765625 578.3281 6.59375Q578.5156 6.40625 578.875 5.546875Q579.15625 4.875 579.3281 4.671875Q579.5156 4.453125 579.75 4.375Q579.9844 4.296875 580.4844 4.296875L580.6875 4.296875L580.6875 5.09375L580.4219 5.09375Q580.03125 5.09375 579.9219 5.203125Q579.8125 5.328125 579.5781 5.90625Q579.3594 6.46875 579.1719 6.6875Q579.0 6.890625 578.6094 7.078125Q579.2344 7.234375 579.84375 8.234375L580.90625 10.0L579.8281 10.0L578.7969 8.234375Q578.4844 7.703125 578.25 7.53125Q578.0156 7.359375 577.6875 7.359375L577.6875 10.0L576.71875 10.0L576.71875 4.296875ZM581.71875 4.296875L582.6875 4.296875L582.6875 8.640625L585.375 4.296875L586.4219 4.296875L586.4219 10.0L585.4531 10.0L585.4531 5.671875L582.7656 10.0L581.71875 10.0L581.71875 4.296875Z" fill-rule="nonzero"/><path fill="#7baaf7" d="M499.0 29.5C499.0 32.81371 496.31372 35.5 493.0 35.5C489.68628 35.5 487.0 32.81371 487.0 29.5C487.0 26.18629 489.68628 23.5 493.0 23.5C496.31372 23.5 499.0 26.18629 499.0 29.5Z" fill-rule="nonzero"/><path fill="#1a1a1a" d="M507.71875 27.296875L508.6875 27.296875L508.6875 29.765625Q509.15625 29.765625 509.32812 29.59375Q509.51562 29.40625 509.875 28.546875Q510.15625 27.875 510.32812 27.671875Q510.51562 27.453125 510.75 27.375Q510.98438 27.296875 511.48438 27.296875L511.6875 27.296875L511.6875 28.09375L511.42188 28.09375Q511.03125 28.09375 510.92188 28.203125Q510.8125 28.328125 510.57812 28.90625Q510.35938 29.46875 510.17188 29.6875Q510.0 29.890625 509.60938 30.078125Q510.23438 30.234375 510.84375 31.234375L511.90625 33.0L510.82812 33.0L509.79688 31.234375Q509.48438 30.703125 509.25 30.53125Q509.01562 30.359375 508.6875 30.359375L508.6875 33.0L507.71875 33.0L507.71875 27.296875ZM512.3594 30.140625Q512.3594 28.5625 513.25 27.796875Q513.9844 27.171875 515.0469 27.171875Q516.21875 27.171875 516.9531 27.9375Q517.7031 28.703125 517.7031 30.0625Q517.7031 31.171875 517.375 31.8125Q517.0469 32.4375 516.40625 32.78125Q515.78125 33.125 515.0469 33.125Q513.84375 33.125 513.09375 32.359375Q512.3594 31.59375 512.3594 30.140625ZM513.3594 30.140625Q513.3594 31.25 513.8281 31.796875Q514.3125 32.328125 515.0469 32.328125Q515.7656 32.328125 516.2344 31.78125Q516.71875 31.234375 516.71875 30.109375Q516.71875 29.0625 516.2344 28.515625Q515.75 27.96875 515.0469 27.96875Q514.3125 27.96875 513.8281 28.515625Q513.3594 29.046875 513.3594 30.140625ZM519.2031 27.296875L523.6875 27.296875L523.6875 33.0L522.7344 33.0L522.7344 28.09375L520.1719 28.09375L520.1719 30.9375Q520.1719 31.9375 520.09375 32.25Q520.03125 32.5625 519.7344 32.796875Q519.4531 33.03125 518.90625 33.03125Q518.5625 33.03125 518.125 33.0L518.125 32.1875L518.5469 32.1875Q518.8594 32.1875 518.9844 32.125Q519.1094 32.0625 519.15625 31.9375Q519.2031 31.796875 519.2031 31.0625L519.2031 27.296875ZM528.625 31.15625L529.625 31.28125Q529.3906 32.15625 528.75 32.640625Q528.1094 33.125 527.125 33.125Q525.875 33.125 525.1406 32.359375Q524.40625 31.59375 524.40625 30.203125Q524.40625 28.75 525.1406 27.96875Q525.8906 27.171875 527.0625 27.171875Q528.21875 27.171875 528.9375 27.953125Q529.65625 28.71875 529.65625 30.140625Q529.65625 30.21875 529.65625 30.390625L525.40625 30.390625Q525.4531 31.328125 525.9219 31.828125Q526.40625 32.328125 527.125 32.328125Q527.65625 32.328125 528.03125 32.0625Q528.40625 31.78125 528.625 31.15625ZM525.4531 29.59375L528.6406 29.59375Q528.5781 28.875 528.28125 28.515625Q527.8125 27.96875 527.0781 27.96875Q526.40625 27.96875 525.9531 28.421875Q525.5 28.859375 525.4531 29.59375ZM530.7344 27.296875L531.7031 27.296875L531.7031 32.203125L534.3906 32.203125L534.3906 27.296875L535.34375 27.296875L535.34375 32.203125L535.96875 32.203125L535.96875 34.609375L535.1719 34.609375L535.1719 33.0L530.7344 33.0L530.7344 27.296875Z" fill-rule="nonzero"/><path fill="#f07b72" d="M499.0 52.5C499.0 55.81371 496.31372 58.5 493.0 58.5C489.68628 58.5 487.0 55.81371 487.0 52.5C487.0 49.18629 489.68628 46.5 493.0 46.5C496.31372 46.5 499.0 49.18629 499.0 52.5Z" fill-rule="nonzero"/><path fill="#1a1a1a" d="M507.78125 50.90625L507.5 49.421875L507.5 48.125L508.60938 48.125L508.60938 49.421875L508.35938 50.90625L507.78125 50.90625ZM509.54688 50.90625L509.28125 49.421875L509.28125 48.125L510.39062 48.125L510.39062 49.421875L510.125 50.90625L509.54688 50.90625ZM511.73438 50.296875L513.9531 50.296875Q514.78125 50.296875 515.1719 50.4375Q515.5781 50.5625 515.8594 50.9375Q516.15625 51.296875 516.15625 51.8125Q516.15625 52.21875 515.9844 52.53125Q515.8125 52.828125 515.4844 53.03125Q515.875 53.15625 516.1406 53.53125Q516.4219 53.90625 516.4219 54.40625Q516.3594 55.21875 515.8281 55.609375Q515.3125 56.0 514.2969 56.0L511.73438 56.0L511.73438 50.296875ZM512.7031 52.703125L513.7344 52.703125Q514.34375 52.703125 514.5781 52.640625Q514.8125 52.5625 514.9844 52.375Q515.1719 52.171875 515.1719 51.90625Q515.1719 51.453125 514.84375 51.28125Q514.53125 51.09375 513.7656 51.09375L512.7031 51.09375L512.7031 52.703125ZM512.7031 55.203125L513.96875 55.203125Q514.7969 55.203125 515.09375 55.015625Q515.40625 54.828125 515.4219 54.359375Q515.4219 54.078125 515.2344 53.84375Q515.0625 53.609375 514.78125 53.546875Q514.5 53.484375 513.875 53.484375L512.7031 53.484375L512.7031 55.203125ZM518.3594 53.140625Q518.3594 51.5625 519.25 50.796875Q519.9844 50.171875 521.0469 50.171875Q522.21875 50.171875 522.9531 50.9375Q523.7031 51.703125 523.7031 53.0625Q523.7031 54.171875 523.375 54.8125Q523.0469 55.4375 522.40625 55.78125Q521.78125 56.125 521.0469 56.125Q519.84375 56.125 519.09375 55.359375Q518.3594 54.59375 518.3594 53.140625ZM519.3594 53.140625Q519.3594 54.25 519.8281 54.796875Q520.3125 55.328125 521.0469 55.328125Q521.7656 55.328125 522.2344 54.78125Q522.71875 54.234375 522.71875 53.109375Q522.71875 52.0625 522.2344 51.515625Q521.75 50.96875 521.0469 50.96875Q520.3125 50.96875 519.8281 51.515625Q519.3594 52.046875 519.3594 53.140625ZM525.2031 50.296875L529.6875 50.296875L529.6875 56.0L528.7344 56.0L528.7344 51.09375L526.1719 51.09375L526.1719 53.9375Q526.1719 54.9375 526.09375 55.25Q526.03125 55.5625 525.7344 55.796875Q525.4531 56.03125 524.90625 56.03125Q524.5625 56.03125 524.125 56.0L524.125 55.1875L524.5469 55.1875Q524.8594 55.1875 524.9844 55.125Q525.1094 55.0625 525.15625 54.9375Q525.2031 54.796875 525.2031 54.0625L525.2031 50.296875ZM530.7344 50.296875L531.7031 50.296875L531.7031 52.671875L534.375 52.671875L534.375 50.296875L535.34375 50.296875L535.34375 56.0L534.375 56.0L534.375 53.46875L531.7031 53.46875L531.7031 56.0L530.7344 56.0L530.7344 50.296875ZM540.4531 55.296875Q539.90625 55.75 539.40625 55.9375Q538.9219 56.125 538.34375 56.125Q537.40625 56.125 536.8906 55.671875Q536.3906 55.203125 536.3906 54.5Q536.3906 54.078125 536.5781 53.734375Q536.78125 53.390625 537.0781 53.1875Q537.3906 52.96875 537.78125 52.859375Q538.0625 52.78125 538.6406 52.71875Q539.8125 52.578125 540.3594 52.375Q540.375 52.1875 540.375 52.125Q540.375 51.53125 540.09375 51.296875Q539.7344 50.96875 539.0 50.96875Q538.3125 50.96875 537.9844 51.203125Q537.6719 51.4375 537.5156 52.046875L536.5625 51.921875Q536.6875 51.3125 536.9844 50.9375Q537.28125 50.5625 537.84375 50.375Q538.40625 50.171875 539.1406 50.171875Q539.875 50.171875 540.3281 50.34375Q540.78125 50.515625 540.9844 50.78125Q541.2031 51.03125 541.2969 51.421875Q541.34375 51.671875 541.34375 52.328125L541.34375 53.609375Q541.34375 54.953125 541.40625 55.3125Q541.46875 55.671875 541.65625 56.0L540.6406 56.0Q540.4844 55.703125 540.4531 55.296875ZM540.3594 53.140625Q539.84375 53.359375 538.78125 53.5Q538.1875 53.59375 537.9375 53.703125Q537.7031 53.796875 537.5625 54.015625Q537.4219 54.21875 537.4219 54.46875Q537.4219 54.859375 537.71875 55.125Q538.0156 55.375 538.5781 55.375Q539.1406 55.375 539.5625 55.125Q540.0 54.875 540.21875 54.453125Q540.3594 54.125 540.3594 53.484375L540.3594 53.140625ZM542.78125 50.90625L542.5 49.421875L542.5 48.125L543.6094 48.125L543.6094 49.421875L543.3594 50.90625L542.78125 50.90625ZM544.5469 50.90625L544.28125 49.421875L544.28125 48.125L545.3906 48.125L545.3906 49.421875L545.125 50.90625L544.5469 50.90625Z" fill-rule="nonzero"/><path fill="#fcd04f" d="M499.0 75.5C499.0 78.813705 496.31372 81.5 493.0 81.5C489.68628 81.5 487.0 78.813705 487.0 75.5C487.0 72.186295 489.68628 69.5 493.0 69.5C496.31372 69.5 499.0 72.186295 499.0 75.5Z" fill-rule="nonzero"/><path fill="#1a1a1a" d="M507.71875 73.296875L508.6875 73.296875L508.6875 75.765625Q509.15625 75.765625 509.32812 75.59375Q509.51562 75.40625 509.875 74.546875Q510.15625 73.875 510.32812 73.671875Q510.51562 73.453125 510.75 73.375Q510.98438 73.296875 511.48438 73.296875L511.6875 73.296875L511.6875 74.09375L511.42188 74.09375Q511.03125 74.09375 510.92188 74.203125Q510.8125 74.328125 510.57812 74.90625Q510.35938 75.46875 510.17188 75.6875Q510.0 75.890625 509.60938 76.078125Q510.23438 76.234375 510.84375 77.234375L511.90625 79.0L510.82812 79.0L509.79688 77.234375Q509.48438 76.703125 509.25 76.53125Q509.01562 76.359375 508.6875 76.359375L508.6875 79.0L507.71875 79.0L507.71875 73.296875ZM512.3594 76.140625Q512.3594 74.5625 513.25 73.796875Q513.9844 73.171875 515.0469 73.171875Q516.21875 73.171875 516.9531 73.9375Q517.7031 74.703125 517.7031 76.0625Q517.7031 77.171875 517.375 77.8125Q517.0469 78.4375 516.40625 78.78125Q515.78125 79.125 515.0469 79.125Q513.84375 79.125 513.09375 78.359375Q512.3594 77.59375 512.3594 76.140625ZM513.3594 76.140625Q513.3594 77.25 513.8281 77.796875Q514.3125 78.328125 515.0469 78.328125Q515.7656 78.328125 516.2344 77.78125Q516.71875 77.234375 516.71875 76.109375Q516.71875 75.0625 516.2344 74.515625Q515.75 73.96875 515.0469 73.96875Q514.3125 73.96875 513.8281 74.515625Q513.3594 75.046875 513.3594 76.140625ZM519.2031 73.296875L523.6875 73.296875L523.6875 79.0L522.7344 79.0L522.7344 74.09375L520.1719 74.09375L520.1719 76.9375Q520.1719 77.9375 520.09375 78.25Q520.03125 78.5625 519.7344 78.796875Q519.4531 79.03125 518.90625 79.03125Q518.5625 79.03125 518.125 79.0L518.125 78.1875L518.5469 78.1875Q518.8594 78.1875 518.9844 78.125Q519.1094 78.0625 519.15625 77.9375Q519.2031 77.796875 519.2031 77.0625L519.2031 73.296875ZM524.7031 73.296875L525.6719 73.296875L525.6719 75.53125L526.90625 75.53125Q528.09375 75.53125 528.7344 76.0Q529.3906 76.453125 529.3906 77.265625Q529.3906 77.984375 528.84375 78.5Q528.3125 79.0 527.125 79.0L524.7031 79.0L524.7031 73.296875ZM525.6719 78.203125L526.6875 78.203125Q527.6094 78.203125 528.0 77.984375Q528.3906 77.75 528.3906 77.28125Q528.3906 76.90625 528.09375 76.625Q527.8125 76.328125 526.8125 76.328125L525.6719 76.328125L525.6719 78.203125ZM530.7344 73.296875L531.7031 73.296875L531.7031 78.203125L534.3906 78.203125L534.3906 73.296875L535.34375 73.296875L535.34375 78.203125L535.96875 78.203125L535.96875 80.609375L535.1719 80.609375L535.1719 79.0L530.7344 79.0L530.7344 73.296875ZM540.4531 78.296875Q539.90625 78.75 539.40625 78.9375Q538.9219 79.125 538.34375 79.125Q537.40625 79.125 536.8906 78.671875Q536.3906 78.203125 536.3906 77.5Q536.3906 77.078125 536.5781 76.734375Q536.78125 76.390625 537.0781 76.1875Q537.3906 75.96875 537.78125 75.859375Q538.0625 75.78125 538.6406 75.71875Q539.8125 75.578125 540.3594 75.375Q540.375 75.1875 540.375 75.125Q540.375 74.53125 540.09375 74.296875Q539.7344 73.96875 539.0 73.96875Q538.3125 73.96875 537.9844 74.203125Q537.6719 74.4375 537.5156 75.046875L536.5625 74.921875Q536.6875 74.3125 536.9844 73.9375Q537.28125 73.5625 537.84375 73.375Q538.40625 73.171875 539.1406 73.171875Q539.875 73.171875 540.3281 73.34375Q540.78125 73.515625 540.9844 73.78125Q541.2031 74.03125 541.2969 74.421875Q541.34375 74.671875 541.34375 75.328125L541.34375 76.609375Q541.34375 77.953125 541.40625 78.3125Q541.46875 78.671875 541.65625 79.0L540.6406 79.0Q540.4844 78.703125 540.4531 78.296875ZM540.3594 76.140625Q539.84375 76.359375 538.78125 76.5Q538.1875 76.59375 537.9375 76.703125Q537.7031 76.796875 537.5625 77.015625Q537.4219 77.21875 537.4219 77.46875Q537.4219 77.859375 537.71875 78.125Q538.0156 78.375 538.5781 78.375Q539.1406 78.375 539.5625 78.125Q540.0 77.875 540.21875 77.453125Q540.3594 77.125 540.3594 76.484375L540.3594 76.140625Z" fill-rule="nonzero"/><path fill="#71c287" d="M499.0 98.5C499.0 101.813705 496.31372 104.5 493.0 104.5C489.68628 104.5 487.0 101.813705 487.0 98.5C487.0 95.186295 489.68628 92.5 493.0 92.5C496.31372 92.5 499.0 95.186295 499.0 98.5Z" fill-rule="nonzero"/><path fill="#1a1a1a" d="M507.73438 96.296875L512.2344 96.296875L512.2344 102.0L511.26562 102.0L511.26562 97.09375L508.70312 97.09375L508.70312 102.0L507.73438 102.0L507.73438 96.296875ZM513.71875 96.296875L514.6875 96.296875L514.6875 100.640625L517.375 96.296875L518.4219 96.296875L518.4219 102.0L517.4531 102.0L517.4531 97.671875L514.7656 102.0L513.71875 102.0L513.71875 96.296875ZM519.71875 104.1875L519.71875 96.296875L520.6094 96.296875L520.6094 97.03125Q520.9219 96.609375 521.3125 96.390625Q521.7031 96.171875 522.2656 96.171875Q522.9844 96.171875 523.5469 96.546875Q524.1094 96.921875 524.3906 97.609375Q524.6719 98.28125 524.6719 99.109375Q524.6719 99.984375 524.3594 100.6875Q524.0469 101.375 523.4375 101.75Q522.84375 102.125 522.1875 102.125Q521.7031 102.125 521.3125 101.921875Q520.9375 101.71875 520.6875 101.40625L520.6875 104.1875L519.71875 104.1875ZM520.59375 99.1875Q520.59375 100.28125 521.0469 100.8125Q521.5 101.328125 522.125 101.328125Q522.7656 101.328125 523.21875 100.796875Q523.6875 100.25 523.6875 99.09375Q523.6875 98.015625 523.2344 97.46875Q522.7969 96.921875 522.1719 96.921875Q521.5469 96.921875 521.0625 97.5Q520.59375 98.078125 520.59375 99.1875ZM529.4531 99.90625L530.3906 100.03125Q530.25 101.015625 529.59375 101.578125Q528.9531 102.125 528.03125 102.125Q526.8594 102.125 526.1406 101.359375Q525.4375 100.59375 525.4375 99.171875Q525.4375 98.25 525.7344 97.5625Q526.0469 96.859375 526.6719 96.515625Q527.2969 96.171875 528.03125 96.171875Q528.9531 96.171875 529.5469 96.640625Q530.1406 97.109375 530.3125 97.96875L529.3594 98.109375Q529.2344 97.546875 528.8906 97.265625Q528.5469 96.96875 528.0625 96.96875Q527.34375 96.96875 526.875 97.5Q526.4219 98.015625 526.4219 99.140625Q526.4219 100.296875 526.8594 100.8125Q527.2969 101.328125 528.0156 101.328125Q528.5781 101.328125 528.9531 100.984375Q529.34375 100.640625 529.4531 99.90625ZM531.71875 96.296875L532.6875 96.296875L532.6875 100.640625L535.375 96.296875L536.4219 96.296875L536.4219 102.0L535.4531 102.0L535.4531 97.671875L532.7656 102.0L531.71875 102.0L531.71875 96.296875ZM537.7344 96.296875L538.7031 96.296875L538.7031 98.671875L541.375 98.671875L541.375 96.296875L542.34375 96.296875L542.34375 102.0L541.375 102.0L541.375 99.46875L538.7031 99.46875L538.7031 102.0L537.7344 102.0L537.7344 96.296875ZM543.7344 96.296875L547.0156 96.296875L547.0156 97.09375L544.7031 97.09375L544.7031 102.0L543.7344 102.0L543.7344 96.296875Z" fill-rule="nonzero"/><path fill="#ff994d" d="M499.0 121.5C499.0 124.813705 496.31372 127.5 493.0 127.5C489.68628 127.5 487.0 124.813705 487.0 121.5C487.0 118.186295 489.68628 115.5 493.0 115.5C496.31372 115.5 499.0 118.186295 499.0 121.5Z" fill-rule="nonzero"/><path fill="#1a1a1a" d="M507.71875 127.1875L507.71875 119.296875L508.60938 119.296875L508.60938 120.03125Q508.92188 119.609375 509.3125 119.390625Q509.70312 119.171875 510.26562 119.171875Q510.98438 119.171875 511.54688 119.546875Q512.1094 119.921875 512.3906 120.609375Q512.6719 121.28125 512.6719 122.109375Q512.6719 122.984375 512.3594 123.6875Q512.0469 124.375 511.4375 124.75Q510.84375 125.125 510.1875 125.125Q509.70312 125.125 509.3125 124.921875Q508.9375 124.71875 508.6875 124.40625L508.6875 127.1875L507.71875 127.1875ZM508.59375 122.1875Q508.59375 123.28125 509.04688 123.8125Q509.5 124.328125 510.125 124.328125Q510.76562 124.328125 511.21875 123.796875Q511.6875 123.25 511.6875 122.09375Q511.6875 121.015625 511.23438 120.46875Q510.79688 119.921875 510.17188 119.921875Q509.54688 119.921875 509.0625 120.5Q508.59375 121.078125 508.59375 122.1875ZM513.6875 127.203125L513.5781 126.296875Q513.8906 126.375 514.125 126.375Q514.4531 126.375 514.6406 126.265625Q514.84375 126.15625 514.9531 125.96875Q515.0469 125.828125 515.25 125.25Q515.28125 125.171875 515.34375 125.015625L513.1719 119.296875L514.21875 119.296875L515.40625 122.59375Q515.6406 123.234375 515.8125 123.921875Q515.9844 123.25 516.21875 122.625L517.4375 119.296875L518.40625 119.296875L516.2344 125.09375Q515.8906 126.03125 515.6875 126.390625Q515.4375 126.875 515.09375 127.09375Q514.7656 127.3125 514.3125 127.3125Q514.03125 127.3125 513.6875 127.203125ZM519.375 119.296875L520.34375 119.296875L520.34375 120.375Q520.34375 121.078125 520.4219 121.390625Q520.5 121.703125 520.8125 121.9375Q521.1406 122.171875 521.6094 122.171875Q522.15625 122.171875 523.03125 121.875L523.03125 119.296875L524.0 119.296875L524.0 125.0L523.03125 125.0L523.03125 122.703125Q522.1406 122.984375 521.375 122.984375Q520.71875 122.984375 520.21875 122.65625Q519.71875 122.3125 519.5469 121.84375Q519.375 121.359375 519.375 120.78125L519.375 119.296875ZM525.7344 119.296875L526.7031 119.296875L526.7031 121.671875L529.375 121.671875L529.375 119.296875L530.34375 119.296875L530.34375 125.0L529.375 125.0L529.375 122.46875L526.7031 122.46875L526.7031 125.0L525.7344 125.0L525.7344 119.296875ZM532.0 125.0L532.0 123.90625L533.09375 123.90625L533.09375 125.0L532.0 125.0ZM541.4531 122.90625L542.3906 123.03125Q542.25 124.015625 541.59375 124.578125Q540.9531 125.125 540.03125 125.125Q538.8594 125.125 538.1406 124.359375Q537.4375 123.59375 537.4375 122.171875Q537.4375 121.25 537.7344 120.5625Q538.0469 119.859375 538.6719 119.515625Q539.2969 119.171875 540.03125 119.171875Q540.9531 119.171875 541.5469 119.640625Q542.1406 120.109375 542.3125 120.96875L541.3594 121.109375Q541.2344 120.546875 540.8906 120.265625Q540.5469 119.96875 540.0625 119.96875Q539.34375 119.96875 538.875 120.5Q538.4219 121.015625 538.4219 122.140625Q538.4219 123.296875 538.8594 123.8125Q539.2969 124.328125 540.0156 124.328125Q540.5781 124.328125 540.9531 123.984375Q541.34375 123.640625 541.4531 122.90625ZM547.625 123.15625L548.625 123.28125Q548.3906 124.15625 547.75 124.640625Q547.1094 125.125 546.125 125.125Q544.875 125.125 544.1406 124.359375Q543.40625 123.59375 543.40625 122.203125Q543.40625 120.75 544.1406 119.96875Q544.8906 119.171875 546.0625 119.171875Q547.21875 119.171875 547.9375 119.953125Q548.65625 120.71875 548.65625 122.140625Q548.65625 122.21875 548.65625 122.390625L544.40625 122.390625Q544.4531 123.328125 544.9219 123.828125Q545.40625 124.328125 546.125 124.328125Q546.65625 124.328125 547.03125 124.0625Q547.40625 123.78125 547.625 123.15625ZM544.4531 121.59375L547.6406 121.59375Q547.5781 120.875 547.28125 120.515625Q546.8125 119.96875 546.0781 119.96875Q545.40625 119.96875 544.9531 120.421875Q544.5 120.859375 544.4531 121.59375ZM549.71875 127.1875L549.71875 119.296875L550.6094 119.296875L550.6094 120.03125Q550.9219 119.609375 551.3125 119.390625Q551.7031 119.171875 552.2656 119.171875Q552.9844 119.171875 553.5469 119.546875Q554.1094 119.921875 554.3906 120.609375Q554.6719 121.28125 554.6719 122.109375Q554.6719 122.984375 554.3594 123.6875Q554.0469 124.375 553.4375 124.75Q552.84375 125.125 552.1875 125.125Q551.7031 125.125 551.3125 124.921875Q550.9375 124.71875 550.6875 124.40625L550.6875 127.1875L549.71875 127.1875ZM550.59375 122.1875Q550.59375 123.28125 551.0469 123.8125Q551.5 124.328125 552.125 124.328125Q552.7656 124.328125 553.21875 123.796875Q553.6875 123.25 553.6875 122.09375Q553.6875 121.015625 553.2344 120.46875Q552.7969 119.921875 552.1719 119.921875Q551.5469 119.921875 551.0625 120.5Q550.59375 121.078125 550.59375 122.1875ZM555.7031 119.296875L556.6719 119.296875L556.6719 121.53125L557.90625 121.53125Q559.09375 121.53125 559.7344 122.0Q560.3906 122.453125 560.3906 123.265625Q560.3906 123.984375 559.84375 124.5Q559.3125 125.0 558.125 125.0L555.7031 125.0L555.7031 119.296875ZM556.6719 124.203125L557.6875 124.203125Q558.6094 124.203125 559.0 123.984375Q559.3906 123.75 559.3906 123.28125Q559.3906 122.90625 559.09375 122.625Q558.8125 122.328125 557.8125 122.328125L556.6719 122.328125L556.6719 124.203125ZM561.7344 119.296875L565.0156 119.296875L565.0156 120.09375L562.7031 120.09375L562.7031 125.0L561.7344 125.0L561.7344 119.296875ZM565.71875 119.296875L566.6875 119.296875L566.6875 123.640625L569.375 119.296875L570.4219 119.296875L570.4219 125.0L569.4531 125.0L569.4531 120.671875L566.7656 125.0L565.71875 125.0L565.71875 119.296875Z" fill-rule="nonzero"/><path fill="#7ed1d7" d="M499.0 144.5C499.0 147.8137 496.31372 150.5 493.0 150.5C489.68628 150.5 487.0 147.8137 487.0 144.5C487.0 141.1863 489.68628 138.5 493.0 138.5C496.31372 138.5 499.0 141.1863 499.0 144.5Z" fill-rule="nonzero"/><path fill="#1a1a1a" d="M511.45312 145.90625L512.3906 146.03125Q512.25 147.01562 511.59375 147.57812Q510.95312 148.125 510.03125 148.125Q508.85938 148.125 508.14062 147.35938Q507.4375 146.59375 507.4375 145.17188Q507.4375 144.25 507.73438 143.5625Q508.04688 142.85938 508.67188 142.51562Q509.29688 142.17188 510.03125 142.17188Q510.95312 142.17188 511.54688 142.64062Q512.1406 143.10938 512.3125 143.96875L511.35938 144.10938Q511.23438 143.54688 510.89062 143.26562Q510.54688 142.96875 510.0625 142.96875Q509.34375 142.96875 508.875 143.5Q508.42188 144.01562 508.42188 145.14062Q508.42188 146.29688 508.85938 146.8125Q509.29688 147.32812 510.01562 147.32812Q510.57812 147.32812 510.95312 146.98438Q511.34375 146.64062 511.45312 145.90625ZM517.625 146.15625L518.625 146.28125Q518.3906 147.15625 517.75 147.64062Q517.1094 148.125 516.125 148.125Q514.875 148.125 514.1406 147.35938Q513.40625 146.59375 513.40625 145.20312Q513.40625 143.75 514.1406 142.96875Q514.8906 142.17188 516.0625 142.17188Q517.21875 142.17188 517.9375 142.95312Q518.65625 143.71875 518.65625 145.14062Q518.65625 145.21875 518.65625 145.39062L514.40625 145.39062Q514.4531 146.32812 514.9219 146.82812Q515.40625 147.32812 516.125 147.32812Q516.65625 147.32812 517.03125 147.0625Q517.40625 146.78125 517.625 146.15625ZM514.4531 144.59375L517.6406 144.59375Q517.5781 143.875 517.28125 143.51562Q516.8125 142.96875 516.0781 142.96875Q515.40625 142.96875 514.9531 143.42188Q514.5 143.85938 514.4531 144.59375ZM519.71875 150.1875L519.71875 142.29688L520.6094 142.29688L520.6094 143.03125Q520.9219 142.60938 521.3125 142.39062Q521.7031 142.17188 522.2656 142.17188Q522.9844 142.17188 523.5469 142.54688Q524.1094 142.92188 524.3906 143.60938Q524.6719 144.28125 524.6719 145.10938Q524.6719 145.98438 524.3594 146.6875Q524.0469 147.375 523.4375 147.75Q522.84375 148.125 522.1875 148.125Q521.7031 148.125 521.3125 147.92188Q520.9375 147.71875 520.6875 147.40625L520.6875 150.1875L519.71875 150.1875ZM520.59375 145.1875Q520.59375 146.28125 521.0469 146.8125Q521.5 147.32812 522.125 147.32812Q522.7656 147.32812 523.21875 146.79688Q523.6875 146.25 523.6875 145.09375Q523.6875 144.01562 523.2344 143.46875Q522.7969 142.92188 522.1719 142.92188Q521.5469 142.92188 521.0625 143.5Q520.59375 144.07812 520.59375 145.1875ZM525.7031 142.29688L526.6719 142.29688L526.6719 144.53125L527.90625 144.53125Q529.09375 144.53125 529.7344 145.0Q530.3906 145.45312 530.3906 146.26562Q530.3906 146.98438 529.84375 147.5Q529.3125 148.0 528.125 148.0L525.7031 148.0L525.7031 142.29688ZM526.6719 147.20312L527.6875 147.20312Q528.6094 147.20312 529.0 146.98438Q529.3906 146.75 529.3906 146.28125Q529.3906 145.90625 529.09375 145.625Q528.8125 145.32812 527.8125 145.32812L526.6719 145.32812L526.6719 147.20312ZM531.7344 142.29688L535.0156 142.29688L535.0156 143.09375L532.7031 143.09375L532.7031 148.0L531.7344 148.0L531.7344 142.29688ZM535.71875 142.29688L536.6875 142.29688L536.6875 146.64062L539.375 142.29688L540.4219 142.29688L540.4219 148.0L539.4531 148.0L539.4531 143.67188L536.7656 148.0L535.71875 148.0L535.71875 142.29688ZM541.34375 145.64062L541.34375 144.67188L544.3125 144.67188L544.3125 145.64062L541.34375 145.64062ZM549.90625 139.9375L550.7656 139.95312Q550.7031 140.51562 550.5 140.75Q550.3125 140.96875 550.0 141.04688Q549.6875 141.10938 548.78125 141.10938Q547.59375 141.10938 547.15625 141.34375Q546.71875 141.5625 546.53125 142.07812Q546.34375 142.57812 546.3125 143.375Q546.6875 142.84375 547.1719 142.57812Q547.65625 142.29688 548.2656 142.29688Q549.3906 142.29688 550.125 143.07812Q550.8594 143.84375 550.8594 145.15625Q550.8594 146.15625 550.4844 146.79688Q550.125 147.4375 549.6094 147.78125Q549.1094 148.125 548.2344 148.125Q547.21875 148.125 546.65625 147.67188Q546.09375 147.20312 545.78125 146.48438Q545.4844 145.75 545.4844 143.95312Q545.4844 141.6875 546.25 140.90625Q547.0156 140.125 548.6094 140.125Q549.59375 140.125 549.71875 140.09375Q549.8594 140.0625 549.90625 139.9375ZM549.8594 145.125Q549.8594 144.23438 549.4375 143.67188Q549.0156 143.09375 548.25 143.09375Q547.4375 143.09375 547.0 143.70312Q546.5781 144.29688 546.5781 145.29688Q546.5781 146.29688 547.0469 146.82812Q547.53125 147.34375 548.2344 147.34375Q548.9531 147.34375 549.40625 146.73438Q549.8594 146.125 549.8594 145.125ZM555.625 146.15625L556.625 146.28125Q556.3906 147.15625 555.75 147.64062Q555.1094 148.125 554.125 148.125Q552.875 148.125 552.1406 147.35938Q551.40625 146.59375 551.40625 145.20312Q551.40625 143.75 552.1406 142.96875Q552.8906 142.17188 554.0625 142.17188Q555.21875 142.17188 555.9375 142.95312Q556.65625 143.71875 556.65625 145.14062Q556.65625 145.21875 556.65625 145.39062L552.40625 145.39062Q552.4531 146.32812 552.9219 146.82812Q553.40625 147.32812 554.125 147.32812Q554.65625 147.32812 555.03125 147.0625Q555.40625 146.78125 555.625 146.15625ZM552.4531 144.59375L555.6406 144.59375Q555.5781 143.875 555.28125 143.51562Q554.8125 142.96875 554.0781 142.96875Q553.40625 142.96875 552.9531 143.42188Q552.5 143.85938 552.4531 144.59375ZM561.4531 145.90625L562.3906 146.03125Q562.25 147.01562 561.59375 147.57812Q560.9531 148.125 560.03125 148.125Q558.8594 148.125 558.1406 147.35938Q557.4375 146.59375 557.4375 145.17188Q557.4375 144.25 557.7344 143.5625Q558.0469 142.85938 558.6719 142.51562Q559.2969 142.17188 560.03125 142.17188Q560.9531 142.17188 561.5469 142.64062Q562.1406 143.10938 562.3125 143.96875L561.3594 144.10938Q561.2344 143.54688 560.8906 143.26562Q560.5469 142.96875 560.0625 142.96875Q559.34375 142.96875 558.875 143.5Q558.4219 144.01562 558.4219 145.14062Q558.4219 146.29688 558.8594 146.8125Q559.2969 147.32812 560.0156 147.32812Q560.5781 147.32812 560.9531 146.98438Q561.34375 146.64062 561.4531 145.90625ZM563.71875 142.29688L564.6875 142.29688L564.6875 144.76562Q565.15625 144.76562 565.3281 144.59375Q565.5156 144.40625 565.875 143.54688Q566.15625 142.875 566.3281 142.67188Q566.5156 142.45312 566.75 142.375Q566.9844 142.29688 567.4844 142.29688L567.6875 142.29688L567.6875 143.09375L567.4219 143.09375Q567.03125 143.09375 566.9219 143.20312Q566.8125 143.32812 566.5781 143.90625Q566.3594 144.46875 566.1719 144.6875Q566.0 144.89062 565.6094 145.07812Q566.2344 145.23438 566.84375 146.23438L567.90625 148.0L566.8281 148.0L565.7969 146.23438Q565.4844 145.70312 565.25 145.53125Q565.0156 145.35938 564.6875 145.35938L564.6875 148.0L563.71875 148.0L563.71875 142.29688ZM568.3594 145.14062Q568.3594 143.5625 569.25 142.79688Q569.9844 142.17188 571.0469 142.17188Q572.21875 142.17188 572.9531 142.9375Q573.7031 143.70312 573.7031 145.0625Q573.7031 146.17188 573.375 146.8125Q573.0469 147.4375 572.40625 147.78125Q571.78125 148.125 571.0469 148.125Q569.84375 148.125 569.09375 147.35938Q568.3594 146.59375 568.3594 145.14062ZM569.3594 145.14062Q569.3594 146.25 569.8281 146.79688Q570.3125 147.32812 571.0469 147.32812Q571.7656 147.32812 572.2344 146.78125Q572.71875 146.23438 572.71875 145.10938Q572.71875 144.0625 572.2344 143.51562Q571.75 142.96875 571.0469 142.96875Q570.3125 142.96875 569.8281 143.51562Q569.3594 144.04688 569.3594 145.14062ZM574.7344 142.29688L575.7031 142.29688L575.7031 144.67188L578.375 144.67188L578.375 142.29688L579.34375 142.29688L579.34375 148.0L578.375 148.0L578.375 145.46875L575.7031 145.46875L575.7031 148.0L574.7344 148.0L574.7344 142.29688ZM584.625 146.15625L585.625 146.28125Q585.3906 147.15625 584.75 147.64062Q584.1094 148.125 583.125 148.125Q581.875 148.125 581.1406 147.35938Q580.40625 146.59375 580.40625 145.20312Q580.40625 143.75 581.1406 142.96875Q581.8906 142.17188 583.0625 142.17188Q584.21875 142.17188 584.9375 142.95312Q585.65625 143.71875 585.65625 145.14062Q585.65625 145.21875 585.65625 145.39062L581.40625 145.39062Q581.4531 146.32812 581.9219 146.82812Q582.40625 147.32812 583.125 147.32812Q583.65625 147.32812 584.03125 147.0625Q584.40625 146.78125 584.625 146.15625ZM581.4531 144.59375L584.6406 144.59375Q584.5781 143.875 584.28125 143.51562Q583.8125 142.96875 583.0781 142.96875Q582.40625 142.96875 581.9531 143.42188Q581.5 143.85938 581.4531 144.59375ZM586.375 142.29688L587.34375 142.29688L587.34375 143.375Q587.34375 144.07812 587.4219 144.39062Q587.5 144.70312 587.8125 144.9375Q588.1406 145.17188 588.6094 145.17188Q589.15625 145.17188 590.03125 144.875L590.03125 142.29688L591.0 142.29688L591.0 148.0L590.03125 148.0L590.03125 145.70312Q589.1406 145.98438 588.375 145.98438Q587.71875 145.98438 587.21875 145.65625Q586.71875 145.3125 586.5469 144.84375Q586.375 144.35938 586.375 143.78125L586.375 142.29688ZM592.7344 142.29688L593.7031 142.29688L593.7031 144.67188L596.375 144.67188L596.375 142.29688L597.34375 142.29688L597.34375 148.0L596.375 148.0L596.375 145.46875L593.7031 145.46875L593.7031 148.0L592.7344 148.0L592.7344 142.29688ZM598.3594 145.14062Q598.3594 143.5625 599.25 142.79688Q599.9844 142.17188 601.0469 142.17188Q602.21875 142.17188 602.9531 142.9375Q603.7031 143.70312 603.7031 145.0625Q603.7031 146.17188 603.375 146.8125Q603.0469 147.4375 602.40625 147.78125Q601.78125 148.125 601.0469 148.125Q599.84375 148.125 599.09375 147.35938Q598.3594 146.59375 598.3594 145.14062ZM599.3594 145.14062Q599.3594 146.25 599.8281 146.79688Q600.3125 147.32812 601.0469 147.32812Q601.7656 147.32812 602.2344 146.78125Q602.71875 146.23438 602.71875 145.10938Q602.71875 144.0625 602.2344 143.51562Q601.75 142.96875 601.0469 142.96875Q600.3125 142.96875 599.8281 143.51562Q599.3594 144.04688 599.3594 145.14062ZM608.4531 145.90625L609.3906 146.03125Q609.25 147.01562 608.59375 147.57812Q607.9531 148.125 607.03125 148.125Q605.8594 148.125 605.1406 147.35938Q604.4375 146.59375 604.4375 145.17188Q604.4375 144.25 604.7344 143.5625Q605.0469 142.85938 605.6719 142.51562Q606.2969 142.17188 607.03125 142.17188Q607.9531 142.17188 608.5469 142.64062Q609.1406 143.10938 609.3125 143.96875L608.3594 144.10938Q608.2344 143.54688 607.8906 143.26562Q607.5469 142.96875 607.0625 142.96875Q606.34375 142.96875 605.875 143.5Q605.4219 144.01562 605.4219 145.14062Q605.4219 146.29688 605.8594 146.8125Q606.2969 147.32812 607.0156 147.32812Q607.5781 147.32812 607.9531 146.98438Q608.34375 146.64062 608.4531 145.90625ZM610.2031 142.29688L614.84375 142.29688L614.84375 143.09375L613.0 143.09375L613.0 148.0L612.0469 148.0L612.0469 143.09375L610.2031 143.09375L610.2031 142.29688ZM616.7031 142.29688L617.6719 142.29688L617.6719 144.53125L618.90625 144.53125Q620.09375 144.53125 620.7344 145.0Q621.3906 145.45312 621.3906 146.26562Q621.3906 146.98438 620.84375 147.5Q620.3125 148.0 619.125 148.0L616.7031 148.0L616.7031 142.29688ZM617.6719 147.20312L618.6875 147.20312Q619.6094 147.20312 620.0 146.98438Q620.3906 146.75 620.3906 146.28125Q620.3906 145.90625 620.09375 145.625Q619.8125 145.32812 618.8125 145.32812L617.6719 145.32812L617.6719 147.20312Z" fill-rule="nonzero"/><path fill="#b3cefb" d="M499.0 167.5C499.0 170.8137 496.31372 173.5 493.0 173.5C489.68628 173.5 487.0 170.8137 487.0 167.5C487.0 164.1863 489.68628 161.5 493.0 161.5C496.31372 161.5 499.0 164.1863 499.0 167.5Z" fill-rule="nonzero"/><path fill="#f7b4ae" d="M499.0 190.5C499.0 193.8137 496.31372 196.5 493.0 196.5C489.68628 196.5 487.0 193.8137 487.0 190.5C487.0 187.1863 489.68628 184.5 493.0 184.5C496.31372 184.5 499.0 187.1863 499.0 190.5Z" fill-rule="nonzero"/><path fill="#1a1a1a" d="M507.73438 188.29688L509.95312 188.29688Q510.78125 188.29688 511.17188 188.4375Q511.57812 188.5625 511.85938 188.9375Q512.15625 189.29688 512.15625 189.8125Q512.15625 190.21875 511.98438 190.53125Q511.8125 190.82812 511.48438 191.03125Q511.875 191.15625 512.1406 191.53125Q512.4219 191.90625 512.4219 192.40625Q512.3594 193.21875 511.82812 193.60938Q511.3125 194.0 510.29688 194.0L507.73438 194.0L507.73438 188.29688ZM508.70312 190.70312L509.73438 190.70312Q510.34375 190.70312 510.57812 190.64062Q510.8125 190.5625 510.98438 190.375Q511.17188 190.17188 511.17188 189.90625Q511.17188 189.45312 510.84375 189.28125Q510.53125 189.09375 509.76562 189.09375L508.70312 189.09375L508.70312 190.70312ZM508.70312 193.20312L509.96875 193.20312Q510.79688 193.20312 511.09375 193.01562Q511.40625 192.82812 511.42188 192.35938Q511.42188 192.07812 511.23438 191.84375Q511.0625 191.60938 510.78125 191.54688Q510.5 191.48438 509.875 191.48438L508.70312 191.48438L508.70312 193.20312ZM514.71875 188.29688L515.6875 188.29688L515.6875 192.64062L518.375 188.29688L519.4219 188.29688L519.4219 194.0L518.4531 194.0L518.4531 189.67188L515.7656 194.0L514.71875 194.0L514.71875 188.29688ZM520.7344 188.29688L521.7031 188.29688L521.7031 190.67188L524.375 190.67188L524.375 188.29688L525.34375 188.29688L525.34375 194.0L524.375 194.0L524.375 191.46875L521.7031 191.46875L521.7031 194.0L520.7344 194.0L520.7344 188.29688ZM526.2031 188.29688L530.84375 188.29688L530.84375 189.09375L529.0 189.09375L529.0 194.0L528.0469 194.0L528.0469 189.09375L526.2031 189.09375L526.2031 188.29688ZM532.71875 188.29688L533.6875 188.29688L533.6875 192.64062L536.375 188.29688L537.4219 188.29688L537.4219 194.0L536.4531 194.0L536.4531 189.67188L533.7656 194.0L532.71875 194.0L532.71875 188.29688ZM538.71875 188.29688L539.6875 188.29688L539.6875 190.76562Q540.15625 190.76562 540.3281 190.59375Q540.5156 190.40625 540.875 189.54688Q541.15625 188.875 541.3281 188.67188Q541.5156 188.45312 541.75 188.375Q541.9844 188.29688 542.4844 188.29688L542.6875 188.29688L542.6875 189.09375L542.4219 189.09375Q542.03125 189.09375 541.9219 189.20312Q541.8125 189.32812 541.5781 189.90625Q541.3594 190.46875 541.1719 190.6875Q541.0 190.89062 540.6094 191.07812Q541.2344 191.23438 541.84375 192.23438L542.90625 194.0L541.8281 194.0L540.7969 192.23438Q540.4844 191.70312 540.25 191.53125Q540.0156 191.35938 539.6875 191.35938L539.6875 194.0L538.71875 194.0L538.71875 188.29688ZM543.3594 191.14062Q543.3594 189.5625 544.25 188.79688Q544.9844 188.17188 546.0469 188.17188Q547.21875 188.17188 547.9531 188.9375Q548.7031 189.70312 548.7031 191.0625Q548.7031 192.17188 548.375 192.8125Q548.0469 193.4375 547.40625 193.78125Q546.78125 194.125 546.0469 194.125Q544.84375 194.125 544.09375 193.35938Q543.3594 192.59375 543.3594 191.14062ZM544.3594 191.14062Q544.3594 192.25 544.8281 192.79688Q545.3125 193.32812 546.0469 193.32812Q546.7656 193.32812 547.2344 192.78125Q547.71875 192.23438 547.71875 191.10938Q547.71875 190.0625 547.2344 189.51562Q546.75 188.96875 546.0469 188.96875Q545.3125 188.96875 544.8281 189.51562Q544.3594 190.04688 544.3594 191.14062ZM549.7344 188.29688L551.9531 188.29688Q552.78125 188.29688 553.1719 188.4375Q553.5781 188.5625 553.8594 188.9375Q554.15625 189.29688 554.15625 189.8125Q554.15625 190.21875 553.9844 190.53125Q553.8125 190.82812 553.4844 191.03125Q553.875 191.15625 554.1406 191.53125Q554.4219 191.90625 554.4219 192.40625Q554.3594 193.21875 553.8281 193.60938Q553.3125 194.0 552.2969 194.0L549.7344 194.0L549.7344 188.29688ZM550.7031 190.70312L551.7344 190.70312Q552.34375 190.70312 552.5781 190.64062Q552.8125 190.5625 552.9844 190.375Q553.1719 190.17188 553.1719 189.90625Q553.1719 189.45312 552.84375 189.28125Q552.53125 189.09375 551.7656 189.09375L550.7031 189.09375L550.7031 190.70312ZM550.7031 193.20312L551.96875 193.20312Q552.7969 193.20312 553.09375 193.01562Q553.40625 192.82812 553.4219 192.35938Q553.4219 192.07812 553.2344 191.84375Q553.0625 191.60938 552.78125 191.54688Q552.5 191.48438 551.875 191.48438L550.7031 191.48438L550.7031 193.20312Z" fill-rule="nonzero"/><path fill="#b5e5e8" d="M499.0 213.5C499.0 216.8137 496.31372 219.5 493.0 219.5C489.68628 219.5 487.0 216.8137 487.0 213.5C487.0 210.1863 489.68628 207.5 493.0 207.5C496.31372 207.5 499.0 210.1863 499.0 213.5Z" fill-rule="nonzero"/><path fill="#1a1a1a" d="M507.71875 211.29688L508.6875 211.29688L508.6875 213.76562Q509.15625 213.76562 509.32812 213.59375Q509.51562 213.40625 509.875 212.54688Q510.15625 211.875 510.32812 211.67188Q510.51562 211.45312 510.75 211.375Q510.98438 211.29688 511.48438 211.29688L511.6875 211.29688L511.6875 212.09375L511.42188 212.09375Q511.03125 212.09375 510.92188 212.20312Q510.8125 212.32812 510.57812 212.90625Q510.35938 213.46875 510.17188 213.6875Q510.0 213.89062 509.60938 214.07812Q510.23438 214.23438 510.84375 215.23438L511.90625 217.0L510.82812 217.0L509.79688 215.23438Q509.48438 214.70312 509.25 214.53125Q509.01562 214.35938 508.6875 214.35938L508.6875 217.0L507.71875 217.0L507.71875 211.29688ZM512.3594 214.14062Q512.3594 212.5625 513.25 211.79688Q513.9844 211.17188 515.0469 211.17188Q516.21875 211.17188 516.9531 211.9375Q517.7031 212.70312 517.7031 214.0625Q517.7031 215.17188 517.375 215.8125Q517.0469 216.4375 516.40625 216.78125Q515.78125 217.125 515.0469 217.125Q513.84375 217.125 513.09375 216.35938Q512.3594 215.59375 512.3594 214.14062ZM513.3594 214.14062Q513.3594 215.25 513.8281 215.79688Q514.3125 216.32812 515.0469 216.32812Q515.7656 216.32812 516.2344 215.78125Q516.71875 215.23438 516.71875 214.10938Q516.71875 213.0625 516.2344 212.51562Q515.75 211.96875 515.0469 211.96875Q514.3125 211.96875 513.8281 212.51562Q513.3594 213.04688 513.3594 214.14062ZM519.2031 211.29688L523.6875 211.29688L523.6875 217.0L522.7344 217.0L522.7344 212.09375L520.1719 212.09375L520.1719 214.9375Q520.1719 215.9375 520.09375 216.25Q520.03125 216.5625 519.7344 216.79688Q519.4531 217.03125 518.90625 217.03125Q518.5625 217.03125 518.125 217.0L518.125 216.1875L518.5469 216.1875Q518.8594 216.1875 518.9844 216.125Q519.1094 216.0625 519.15625 215.9375Q519.2031 215.79688 519.2031 215.0625L519.2031 211.29688ZM524.7031 211.29688L525.6719 211.29688L525.6719 213.53125L526.90625 213.53125Q528.09375 213.53125 528.7344 214.0Q529.3906 214.45312 529.3906 215.26562Q529.3906 215.98438 528.84375 216.5Q528.3125 217.0 527.125 217.0L524.7031 217.0L524.7031 211.29688ZM525.6719 216.20312L526.6875 216.20312Q527.6094 216.20312 528.0 215.98438Q528.3906 215.75 528.3906 215.28125Q528.3906 214.90625 528.09375 214.625Q527.8125 214.32812 526.8125 214.32812L525.6719 214.32812L525.6719 216.20312ZM530.7344 211.29688L531.7031 211.29688L531.7031 216.20312L534.3906 216.20312L534.3906 211.29688L535.34375 211.29688L535.34375 216.20312L535.96875 216.20312L535.96875 218.60938L535.1719 218.60938L535.1719 217.0L530.7344 217.0L530.7344 211.29688ZM540.4531 216.29688Q539.90625 216.75 539.40625 216.9375Q538.9219 217.125 538.34375 217.125Q537.40625 217.125 536.8906 216.67188Q536.3906 216.20312 536.3906 215.5Q536.3906 215.07812 536.5781 214.73438Q536.78125 214.39062 537.0781 214.1875Q537.3906 213.96875 537.78125 213.85938Q538.0625 213.78125 538.6406 213.71875Q539.8125 213.57812 540.3594 213.375Q540.375 213.1875 540.375 213.125Q540.375 212.53125 540.09375 212.29688Q539.7344 211.96875 539.0 211.96875Q538.3125 211.96875 537.9844 212.20312Q537.6719 212.4375 537.5156 213.04688L536.5625 212.92188Q536.6875 212.3125 536.9844 211.9375Q537.28125 211.5625 537.84375 211.375Q538.40625 211.17188 539.1406 211.17188Q539.875 211.17188 540.3281 211.34375Q540.78125 211.51562 540.9844 211.78125Q541.2031 212.03125 541.2969 212.42188Q541.34375 212.67188 541.34375 213.32812L541.34375 214.60938Q541.34375 215.95312 541.40625 216.3125Q541.46875 216.67188 541.65625 217.0L540.6406 217.0Q540.4844 216.70312 540.4531 216.29688ZM540.3594 214.14062Q539.84375 214.35938 538.78125 214.5Q538.1875 214.59375 537.9375 214.70312Q537.7031 214.79688 537.5625 215.01562Q537.4219 215.21875 537.4219 215.46875Q537.4219 215.85938 537.71875 216.125Q538.0156 216.375 538.5781 216.375Q539.1406 216.375 539.5625 216.125Q540.0 215.875 540.21875 215.45312Q540.3594 215.125 540.3594 214.48438L540.3594 214.14062Z" fill-rule="nonzero"/><path fill="#ebf6ee" d="M499.0 236.5C499.0 239.8137 496.31372 242.5 493.0 242.5C489.68628 242.5 487.0 239.8137 487.0 236.5C487.0 233.1863 489.68628 230.5 493.0 230.5C496.31372 230.5 499.0 233.1863 499.0 236.5Z" fill-rule="nonzero"/><path fill="#1a1a1a" d="M507.71875 234.29688L508.6875 234.29688L508.6875 236.76562Q509.15625 236.76562 509.32812 236.59375Q509.51562 236.40625 509.875 235.54688Q510.15625 234.875 510.32812 234.67188Q510.51562 234.45312 510.75 234.375Q510.98438 234.29688 511.48438 234.29688L511.6875 234.29688L511.6875 235.09375L511.42188 235.09375Q511.03125 235.09375 510.92188 235.20312Q510.8125 235.32812 510.57812 235.90625Q510.35938 236.46875 510.17188 236.6875Q510.0 236.89062 509.60938 237.07812Q510.23438 237.23438 510.84375 238.23438L511.90625 240.0L510.82812 240.0L509.79688 238.23438Q509.48438 237.70312 509.25 237.53125Q509.01562 237.35938 508.6875 237.35938L508.6875 240.0L507.71875 240.0L507.71875 234.29688ZM512.3594 237.14062Q512.3594 235.5625 513.25 234.79688Q513.9844 234.17188 515.0469 234.17188Q516.21875 234.17188 516.9531 234.9375Q517.7031 235.70312 517.7031 237.0625Q517.7031 238.17188 517.375 238.8125Q517.0469 239.4375 516.40625 239.78125Q515.78125 240.125 515.0469 240.125Q513.84375 240.125 513.09375 239.35938Q512.3594 238.59375 512.3594 237.14062ZM513.3594 237.14062Q513.3594 238.25 513.8281 238.79688Q514.3125 239.32812 515.0469 239.32812Q515.7656 239.32812 516.2344 238.78125Q516.71875 238.23438 516.71875 237.10938Q516.71875 236.0625 516.2344 235.51562Q515.75 234.96875 515.0469 234.96875Q514.3125 234.96875 513.8281 235.51562Q513.3594 236.04688 513.3594 237.14062ZM519.2031 234.29688L523.6875 234.29688L523.6875 240.0L522.7344 240.0L522.7344 235.09375L520.1719 235.09375L520.1719 237.9375Q520.1719 238.9375 520.09375 239.25Q520.03125 239.5625 519.7344 239.79688Q519.4531 240.03125 518.90625 240.03125Q518.5625 240.03125 518.125 240.0L518.125 239.1875L518.5469 239.1875Q518.8594 239.1875 518.9844 239.125Q519.1094 239.0625 519.15625 238.9375Q519.2031 238.79688 519.2031 238.0625L519.2031 234.29688ZM524.7031 234.29688L525.6719 234.29688L525.6719 236.53125L526.90625 236.53125Q528.09375 236.53125 528.7344 237.0Q529.3906 237.45312 529.3906 238.26562Q529.3906 238.98438 528.84375 239.5Q528.3125 240.0 527.125 240.0L524.7031 240.0L524.7031 234.29688ZM525.6719 239.20312L526.6875 239.20312Q527.6094 239.20312 528.0 238.98438Q528.3906 238.75 528.3906 238.28125Q528.3906 237.90625 528.09375 237.625Q527.8125 237.32812 526.8125 237.32812L525.6719 237.32812L525.6719 239.20312ZM530.7344 234.29688L531.7031 234.29688L531.7031 239.20312L534.3906 239.20312L534.3906 234.29688L535.34375 234.29688L535.34375 239.20312L535.96875 239.20312L535.96875 241.60938L535.1719 241.60938L535.1719 240.0L530.7344 240.0L530.7344 234.29688ZM540.4531 239.29688Q539.90625 239.75 539.40625 239.9375Q538.9219 240.125 538.34375 240.125Q537.40625 240.125 536.8906 239.67188Q536.3906 239.20312 536.3906 238.5Q536.3906 238.07812 536.5781 237.73438Q536.78125 237.39062 537.0781 237.1875Q537.3906 236.96875 537.78125 236.85938Q538.0625 236.78125 538.6406 236.71875Q539.8125 236.57812 540.3594 236.375Q540.375 236.1875 540.375 236.125Q540.375 235.53125 540.09375 235.29688Q539.7344 234.96875 539.0 234.96875Q538.3125 234.96875 537.9844 235.20312Q537.6719 235.4375 537.5156 236.04688L536.5625 235.92188Q536.6875 235.3125 536.9844 234.9375Q537.28125 234.5625 537.84375 234.375Q538.40625 234.17188 539.1406 234.17188Q539.875 234.17188 540.3281 234.34375Q540.78125 234.51562 540.9844 234.78125Q541.2031 235.03125 541.2969 235.42188Q541.34375 235.67188 541.34375 236.32812L541.34375 237.60938Q541.34375 238.95312 541.40625 239.3125Q541.46875 239.67188 541.65625 240.0L540.6406 240.0Q540.4844 239.70312 540.4531 239.29688ZM540.3594 237.14062Q539.84375 237.35938 538.78125 237.5Q538.1875 237.59375 537.9375 237.70312Q537.7031 237.79688 537.5625 238.01562Q537.4219 238.21875 537.4219 238.46875Q537.4219 238.85938 537.71875 239.125Q538.0156 239.375 538.5781 239.375Q539.1406 239.375 539.5625 239.125Q540.0 238.875 540.21875 238.45312Q540.3594 238.125 540.3594 237.48438L540.3594 237.14062Z" fill-rule="nonzero"/><path fill="#edf8f9" d="M499.0 259.5C499.0 262.81372 496.31372 265.5 493.0 265.5C489.68628 265.5 487.0 262.81372 487.0 259.5C487.0 256.18628 489.68628 253.5 493.0 253.5C496.31372 253.5 499.0 256.18628 499.0 259.5Z" fill-rule="nonzero"/><path fill="#1a1a1a" d="M508.98438 260.42188L508.98438 259.67188Q509.59375 259.65625 509.8125 259.625Q510.04688 259.57812 510.23438 259.35938Q510.4375 259.14062 510.4375 258.82812Q510.4375 258.42188 510.17188 258.20312Q509.92188 257.96875 509.51562 257.96875Q508.6875 257.96875 508.35938 258.92188L507.45312 258.76562Q507.875 257.17188 509.51562 257.17188Q510.4375 257.17188 510.95312 257.67188Q511.46875 258.17188 511.46875 258.85938Q511.46875 259.5625 510.79688 259.96875Q511.21875 260.20312 511.4375 260.5625Q511.65625 260.92188 511.65625 261.40625Q511.65625 262.17188 511.09375 262.65625Q510.53125 263.125 509.53125 263.125Q507.57812 263.125 507.26562 261.39062L508.17188 261.20312Q508.29688 261.75 508.67188 262.04688Q509.0625 262.34375 509.54688 262.34375Q510.03125 262.34375 510.35938 262.07812Q510.6875 261.79688 510.6875 261.35938Q510.6875 261.03125 510.48438 260.79688Q510.28125 260.54688 510.04688 260.48438Q509.8125 260.42188 509.20312 260.42188Q509.15625 260.42188 508.98438 260.42188ZM516.4531 262.29688Q515.90625 262.75 515.40625 262.9375Q514.9219 263.125 514.34375 263.125Q513.40625 263.125 512.8906 262.67188Q512.3906 262.20312 512.3906 261.5Q512.3906 261.07812 512.5781 260.73438Q512.78125 260.39062 513.0781 260.1875Q513.3906 259.96875 513.78125 259.85938Q514.0625 259.78125 514.6406 259.71875Q515.8125 259.57812 516.3594 259.375Q516.375 259.1875 516.375 259.125Q516.375 258.53125 516.09375 258.29688Q515.7344 257.96875 515.0 257.96875Q514.3125 257.96875 513.9844 258.20312Q513.6719 258.4375 513.5156 259.04688L512.5625 258.92188Q512.6875 258.3125 512.9844 257.9375Q513.28125 257.5625 513.84375 257.375Q514.40625 257.17188 515.1406 257.17188Q515.875 257.17188 516.3281 257.34375Q516.78125 257.51562 516.9844 257.78125Q517.2031 258.03125 517.2969 258.42188Q517.34375 258.67188 517.34375 259.32812L517.34375 260.60938Q517.34375 261.95312 517.40625 262.3125Q517.46875 262.67188 517.65625 263.0L516.6406 263.0Q516.4844 262.70312 516.4531 262.29688ZM516.3594 260.14062Q515.84375 260.35938 514.78125 260.5Q514.1875 260.59375 513.9375 260.70312Q513.7031 260.79688 513.5625 261.01562Q513.4219 261.21875 513.4219 261.46875Q513.4219 261.85938 513.71875 262.125Q514.0156 262.375 514.5781 262.375Q515.1406 262.375 515.5625 262.125Q516.0 261.875 516.21875 261.45312Q516.3594 261.125 516.3594 260.48438L516.3594 260.14062ZM518.71875 257.29688L519.6875 257.29688L519.6875 259.76562Q520.15625 259.76562 520.3281 259.59375Q520.5156 259.40625 520.875 258.54688Q521.15625 257.875 521.3281 257.67188Q521.5156 257.45312 521.75 257.375Q521.9844 257.29688 522.4844 257.29688L522.6875 257.29688L522.6875 258.09375L522.4219 258.09375Q522.03125 258.09375 521.9219 258.20312Q521.8125 258.32812 521.5781 258.90625Q521.3594 259.46875 521.1719 259.6875Q521.0 259.89062 520.6094 260.07812Q521.2344 260.23438 521.84375 261.23438L522.90625 263.0L521.8281 263.0L520.7969 261.23438Q520.4844 260.70312 520.25 260.53125Q520.0156 260.35938 519.6875 260.35938L519.6875 263.0L518.71875 263.0L518.71875 257.29688ZM527.4531 262.29688Q526.90625 262.75 526.40625 262.9375Q525.9219 263.125 525.34375 263.125Q524.40625 263.125 523.8906 262.67188Q523.3906 262.20312 523.3906 261.5Q523.3906 261.07812 523.5781 260.73438Q523.78125 260.39062 524.0781 260.1875Q524.3906 259.96875 524.78125 259.85938Q525.0625 259.78125 525.6406 259.71875Q526.8125 259.57812 527.3594 259.375Q527.375 259.1875 527.375 259.125Q527.375 258.53125 527.09375 258.29688Q526.7344 257.96875 526.0 257.96875Q525.3125 257.96875 524.9844 258.20312Q524.6719 258.4375 524.5156 259.04688L523.5625 258.92188Q523.6875 258.3125 523.9844 257.9375Q524.28125 257.5625 524.84375 257.375Q525.40625 257.17188 526.1406 257.17188Q526.875 257.17188 527.3281 257.34375Q527.78125 257.51562 527.9844 257.78125Q528.2031 258.03125 528.2969 258.42188Q528.34375 258.67188 528.34375 259.32812L528.34375 260.60938Q528.34375 261.95312 528.40625 262.3125Q528.46875 262.67188 528.65625 263.0L527.6406 263.0Q527.4844 262.70312 527.4531 262.29688ZM527.3594 260.14062Q526.84375 260.35938 525.78125 260.5Q525.1875 260.59375 524.9375 260.70312Q524.7031 260.79688 524.5625 261.01562Q524.4219 261.21875 524.4219 261.46875Q524.4219 261.85938 524.71875 262.125Q525.0156 262.375 525.5781 262.375Q526.1406 262.375 526.5625 262.125Q527.0 261.875 527.21875 261.45312Q527.3594 261.125 527.3594 260.48438L527.3594 260.14062ZM530.9844 260.42188L530.9844 259.67188Q531.59375 259.65625 531.8125 259.625Q532.0469 259.57812 532.2344 259.35938Q532.4375 259.14062 532.4375 258.82812Q532.4375 258.42188 532.1719 258.20312Q531.9219 257.96875 531.5156 257.96875Q530.6875 257.96875 530.3594 258.92188L529.4531 258.76562Q529.875 257.17188 531.5156 257.17188Q532.4375 257.17188 532.9531 257.67188Q533.46875 258.17188 533.46875 258.85938Q533.46875 259.5625 532.7969 259.96875Q533.21875 260.20312 533.4375 260.5625Q533.65625 260.92188 533.65625 261.40625Q533.65625 262.17188 533.09375 262.65625Q532.53125 263.125 531.53125 263.125Q529.5781 263.125 529.2656 261.39062L530.1719 261.20312Q530.2969 261.75 530.6719 262.04688Q531.0625 262.34375 531.5469 262.34375Q532.03125 262.34375 532.3594 262.07812Q532.6875 261.79688 532.6875 261.35938Q532.6875 261.03125 532.4844 260.79688Q532.28125 260.54688 532.0469 260.48438Q531.8125 260.42188 531.2031 260.42188Q531.15625 260.42188 530.9844 260.42188Z" fill-rule="nonzero"/><path fill="#032527" d="M499.0 282.5C499.0 285.81372 496.31372 288.5 493.0 288.5C489.68628 288.5 487.0 285.81372 487.0 282.5C487.0 279.18628 489.68628 276.5 493.0 276.5C496.31372 276.5 499.0 279.18628 499.0 282.5Z" fill-rule="nonzero"/><path fill="#1a1a1a" d="M507.71875 280.29688L508.6875 280.29688L508.6875 282.76562Q509.15625 282.76562 509.32812 282.59375Q509.51562 282.40625 509.875 281.54688Q510.15625 280.875 510.32812 280.67188Q510.51562 280.45312 510.75 280.375Q510.98438 280.29688 511.48438 280.29688L511.6875 280.29688L511.6875 281.09375L511.42188 281.09375Q511.03125 281.09375 510.92188 281.20312Q510.8125 281.32812 510.57812 281.90625Q510.35938 282.46875 510.17188 282.6875Q510.0 282.89062 509.60938 283.07812Q510.23438 283.23438 510.84375 284.23438L511.90625 286.0L510.82812 286.0L509.79688 284.23438Q509.48438 283.70312 509.25 283.53125Q509.01562 283.35938 508.6875 283.35938L508.6875 286.0L507.71875 286.0L507.71875 280.29688ZM512.71875 288.1875L512.71875 280.29688L513.6094 280.29688L513.6094 281.03125Q513.9219 280.60938 514.3125 280.39062Q514.7031 280.17188 515.2656 280.17188Q515.9844 280.17188 516.5469 280.54688Q517.1094 280.92188 517.3906 281.60938Q517.6719 282.28125 517.6719 283.10938Q517.6719 283.98438 517.3594 284.6875Q517.0469 285.375 516.4375 285.75Q515.84375 286.125 515.1875 286.125Q514.7031 286.125 514.3125 285.92188Q513.9375 285.71875 513.6875 285.40625L513.6875 288.1875L512.71875 288.1875ZM513.59375 283.1875Q513.59375 284.28125 514.0469 284.8125Q514.5 285.32812 515.125 285.32812Q515.7656 285.32812 516.21875 284.79688Q516.6875 284.25 516.6875 283.09375Q516.6875 282.01562 516.2344 281.46875Q515.7969 280.92188 515.1719 280.92188Q514.5469 280.92188 514.0625 281.5Q513.59375 282.07812 513.59375 283.1875ZM522.625 284.15625L523.625 284.28125Q523.3906 285.15625 522.75 285.64062Q522.1094 286.125 521.125 286.125Q519.875 286.125 519.1406 285.35938Q518.40625 284.59375 518.40625 283.20312Q518.40625 281.75 519.1406 280.96875Q519.8906 280.17188 521.0625 280.17188Q522.21875 280.17188 522.9375 280.95312Q523.65625 281.71875 523.65625 283.14062Q523.65625 283.21875 523.65625 283.39062L519.40625 283.39062Q519.4531 284.32812 519.9219 284.82812Q520.40625 285.32812 521.125 285.32812Q521.65625 285.32812 522.03125 285.0625Q522.40625 284.78125 522.625 284.15625ZM519.4531 282.59375L522.6406 282.59375Q522.5781 281.875 522.28125 281.51562Q521.8125 280.96875 521.0781 280.96875Q520.40625 280.96875 519.9531 281.42188Q519.5 281.85938 519.4531 282.59375ZM528.4531 283.90625L529.3906 284.03125Q529.25 285.01562 528.59375 285.57812Q527.9531 286.125 527.03125 286.125Q525.8594 286.125 525.1406 285.35938Q524.4375 284.59375 524.4375 283.17188Q524.4375 282.25 524.7344 281.5625Q525.0469 280.85938 525.6719 280.51562Q526.2969 280.17188 527.03125 280.17188Q527.9531 280.17188 528.5469 280.64062Q529.1406 281.10938 529.3125 281.96875L528.3594 282.10938Q528.2344 281.54688 527.8906 281.26562Q527.5469 280.96875 527.0625 280.96875Q526.34375 280.96875 525.875 281.5Q525.4219 282.01562 525.4219 283.14062Q525.4219 284.29688 525.8594 284.8125Q526.2969 285.32812 527.0156 285.32812Q527.5781 285.32812 527.9531 284.98438Q528.34375 284.64062 528.4531 283.90625ZM530.2031 280.29688L534.84375 280.29688L534.84375 281.09375L533.0 281.09375L533.0 286.0L532.0469 286.0L532.0469 281.09375L530.2031 281.09375L530.2031 280.29688ZM536.3594 283.14062Q536.3594 281.5625 537.25 280.79688Q537.9844 280.17188 539.0469 280.17188Q540.21875 280.17188 540.9531 280.9375Q541.7031 281.70312 541.7031 283.0625Q541.7031 284.17188 541.375 284.8125Q541.0469 285.4375 540.40625 285.78125Q539.78125 286.125 539.0469 286.125Q537.84375 286.125 537.09375 285.35938Q536.3594 284.59375 536.3594 283.14062ZM537.3594 283.14062Q537.3594 284.25 537.8281 284.79688Q538.3125 285.32812 539.0469 285.32812Q539.7656 285.32812 540.2344 284.78125Q540.71875 284.23438 540.71875 283.10938Q540.71875 282.0625 540.2344 281.51562Q539.75 280.96875 539.0469 280.96875Q538.3125 280.96875 537.8281 281.51562Q537.3594 282.04688 537.3594 283.14062ZM542.7344 280.29688L544.9531 280.29688Q545.78125 280.29688 546.1719 280.4375Q546.5781 280.5625 546.8594 280.9375Q547.15625 281.29688 547.15625 281.8125Q547.15625 282.21875 546.9844 282.53125Q546.8125 282.82812 546.4844 283.03125Q546.875 283.15625 547.1406 283.53125Q547.4219 283.90625 547.4219 284.40625Q547.3594 285.21875 546.8281 285.60938Q546.3125 286.0 545.2969 286.0L542.7344 286.0L542.7344 280.29688ZM543.7031 282.70312L544.7344 282.70312Q545.34375 282.70312 545.5781 282.64062Q545.8125 282.5625 545.9844 282.375Q546.1719 282.17188 546.1719 281.90625Q546.1719 281.45312 545.84375 281.28125Q545.53125 281.09375 544.7656 281.09375L543.7031 281.09375L543.7031 282.70312ZM543.7031 285.20312L544.96875 285.20312Q545.7969 285.20312 546.09375 285.01562Q546.40625 284.82812 546.4219 284.35938Q546.4219 284.07812 546.2344 283.84375Q546.0625 283.60938 545.78125 283.54688Q545.5 283.48438 544.875 283.48438L543.7031 283.48438L543.7031 285.20312Z" fill-rule="nonzero"/><path fill="#ff1d32" d="M499.0 305.5C499.0 308.81372 496.31372 311.5 493.0 311.5C489.68628 311.5 487.0 308.81372 487.0 305.5C487.0 302.18628 489.68628 299.5 493.0 299.5C496.31372 299.5 499.0 302.18628 499.0 305.5Z" fill-rule="nonzero"/><path fill="#1a1a1a" d="M507.73438 303.29688L512.2344 303.29688L512.2344 309.0L511.26562 309.0L511.26562 304.09375L508.70312 304.09375L508.70312 309.0L507.73438 309.0L507.73438 303.29688ZM517.625 307.15625L518.625 307.28125Q518.3906 308.15625 517.75 308.64062Q517.1094 309.125 516.125 309.125Q514.875 309.125 514.1406 308.35938Q513.40625 307.59375 513.40625 306.20312Q513.40625 304.75 514.1406 303.96875Q514.8906 303.17188 516.0625 303.17188Q517.21875 303.17188 517.9375 303.95312Q518.65625 304.71875 518.65625 306.14062Q518.65625 306.21875 518.65625 306.39062L514.40625 306.39062Q514.4531 307.32812 514.9219 307.82812Q515.40625 308.32812 516.125 308.32812Q516.65625 308.32812 517.03125 308.0625Q517.40625 307.78125 517.625 307.15625ZM514.4531 305.59375L517.6406 305.59375Q517.5781 304.875 517.28125 304.51562Q516.8125 303.96875 516.0781 303.96875Q515.40625 303.96875 514.9531 304.42188Q514.5 304.85938 514.4531 305.59375ZM519.375 303.29688L520.34375 303.29688L520.34375 304.375Q520.34375 305.07812 520.4219 305.39062Q520.5 305.70312 520.8125 305.9375Q521.1406 306.17188 521.6094 306.17188Q522.15625 306.17188 523.03125 305.875L523.03125 303.29688L524.0 303.29688L524.0 309.0L523.03125 309.0L523.03125 306.70312Q522.1406 306.98438 521.375 306.98438Q520.71875 306.98438 520.21875 306.65625Q519.71875 306.3125 519.5469 305.84375Q519.375 305.35938 519.375 304.78125L519.375 303.29688ZM529.4531 308.29688Q528.90625 308.75 528.40625 308.9375Q527.9219 309.125 527.34375 309.125Q526.40625 309.125 525.8906 308.67188Q525.3906 308.20312 525.3906 307.5Q525.3906 307.07812 525.5781 306.73438Q525.78125 306.39062 526.0781 306.1875Q526.3906 305.96875 526.78125 305.85938Q527.0625 305.78125 527.6406 305.71875Q528.8125 305.57812 529.3594 305.375Q529.375 305.1875 529.375 305.125Q529.375 304.53125 529.09375 304.29688Q528.7344 303.96875 528.0 303.96875Q527.3125 303.96875 526.9844 304.20312Q526.6719 304.4375 526.5156 305.04688L525.5625 304.92188Q525.6875 304.3125 525.9844 303.9375Q526.28125 303.5625 526.84375 303.375Q527.40625 303.17188 528.1406 303.17188Q528.875 303.17188 529.3281 303.34375Q529.78125 303.51562 529.9844 303.78125Q530.2031 304.03125 530.2969 304.42188Q530.34375 304.67188 530.34375 305.32812L530.34375 306.60938Q530.34375 307.95312 530.40625 308.3125Q530.46875 308.67188 530.65625 309.0L529.6406 309.0Q529.4844 308.70312 529.4531 308.29688ZM529.3594 306.14062Q528.84375 306.35938 527.78125 306.5Q527.1875 306.59375 526.9375 306.70312Q526.7031 306.79688 526.5625 307.01562Q526.4219 307.21875 526.4219 307.46875Q526.4219 307.85938 526.71875 308.125Q527.0156 308.375 527.5781 308.375Q528.1406 308.375 528.5625 308.125Q529.0 307.875 529.21875 307.45312Q529.3594 307.125 529.3594 306.48438L529.3594 306.14062ZM531.2031 303.29688L535.84375 303.29688L535.84375 304.09375L534.0 304.09375L534.0 309.0L533.0469 309.0L533.0469 304.09375L531.2031 304.09375L531.2031 303.29688ZM537.71875 303.29688L538.6875 303.29688L538.6875 305.76562Q539.15625 305.76562 539.3281 305.59375Q539.5156 305.40625 539.875 304.54688Q540.15625 303.875 540.3281 303.67188Q540.5156 303.45312 540.75 303.375Q540.9844 303.29688 541.4844 303.29688L541.6875 303.29688L541.6875 304.09375L541.4219 304.09375Q541.03125 304.09375 540.9219 304.20312Q540.8125 304.32812 540.5781 304.90625Q540.3594 305.46875 540.1719 305.6875Q540.0 305.89062 539.6094 306.07812Q540.2344 306.23438 540.84375 307.23438L541.90625 309.0L540.8281 309.0L539.7969 307.23438Q539.4844 306.70312 539.25 306.53125Q539.0156 306.35938 538.6875 306.35938L538.6875 309.0L537.71875 309.0L537.71875 303.29688ZM546.4531 308.29688Q545.90625 308.75 545.40625 308.9375Q544.9219 309.125 544.34375 309.125Q543.40625 309.125 542.8906 308.67188Q542.3906 308.20312 542.3906 307.5Q542.3906 307.07812 542.5781 306.73438Q542.78125 306.39062 543.0781 306.1875Q543.3906 305.96875 543.78125 305.85938Q544.0625 305.78125 544.6406 305.71875Q545.8125 305.57812 546.3594 305.375Q546.375 305.1875 546.375 305.125Q546.375 304.53125 546.09375 304.29688Q545.7344 303.96875 545.0 303.96875Q544.3125 303.96875 543.9844 304.20312Q543.6719 304.4375 543.5156 305.04688L542.5625 304.92188Q542.6875 304.3125 542.9844 303.9375Q543.28125 303.5625 543.84375 303.375Q544.40625 303.17188 545.1406 303.17188Q545.875 303.17188 546.3281 303.34375Q546.78125 303.51562 546.9844 303.78125Q547.2031 304.03125 547.2969 304.42188Q547.34375 304.67188 547.34375 305.32812L547.34375 306.60938Q547.34375 307.95312 547.40625 308.3125Q547.46875 308.67188 547.65625 309.0L546.6406 309.0Q546.4844 308.70312 546.4531 308.29688ZM546.3594 306.14062Q545.84375 306.35938 544.78125 306.5Q544.1875 306.59375 543.9375 306.70312Q543.7031 306.79688 543.5625 307.01562Q543.4219 307.21875 543.4219 307.46875Q543.4219 307.85938 543.71875 308.125Q544.0156 308.375 544.5781 308.375Q545.1406 308.375 545.5625 308.125Q546.0 307.875 546.21875 307.45312Q546.3594 307.125 546.3594 306.48438L546.3594 306.14062Z" fill-rule="nonzero"/><path fill="#250d0a" d="M499.0 328.5C499.0 331.81372 496.31372 334.5 493.0 334.5C489.68628 334.5 487.0 331.81372 487.0 328.5C487.0 325.18628 489.68628 322.5 493.0 322.5C496.31372 322.5 499.0 325.18628 499.0 328.5Z" fill-rule="nonzero"/><path fill="#1a1a1a" d="M511.45312 329.90625L512.3906 330.03125Q512.25 331.01562 511.59375 331.57812Q510.95312 332.125 510.03125 332.125Q508.85938 332.125 508.14062 331.35938Q507.4375 330.59375 507.4375 329.17188Q507.4375 328.25 507.73438 327.5625Q508.04688 326.85938 508.67188 326.51562Q509.29688 326.17188 510.03125 326.17188Q510.95312 326.17188 511.54688 326.64062Q512.1406 327.10938 512.3125 327.96875L511.35938 328.10938Q511.23438 327.54688 510.89062 327.26562Q510.54688 326.96875 510.0625 326.96875Q509.34375 326.96875 508.875 327.5Q508.42188 328.01562 508.42188 329.14062Q508.42188 330.29688 508.85938 330.8125Q509.29688 331.32812 510.01562 331.32812Q510.57812 331.32812 510.95312 330.98438Q511.34375 330.64062 511.45312 329.90625ZM517.625 330.15625L518.625 330.28125Q518.3906 331.15625 517.75 331.64062Q517.1094 332.125 516.125 332.125Q514.875 332.125 514.1406 331.35938Q513.40625 330.59375 513.40625 329.20312Q513.40625 327.75 514.1406 326.96875Q514.8906 326.17188 516.0625 326.17188Q517.21875 326.17188 517.9375 326.95312Q518.65625 327.71875 518.65625 329.14062Q518.65625 329.21875 518.65625 329.39062L514.40625 329.39062Q514.4531 330.32812 514.9219 330.82812Q515.40625 331.32812 516.125 331.32812Q516.65625 331.32812 517.03125 331.0625Q517.40625 330.78125 517.625 330.15625ZM514.4531 328.59375L517.6406 328.59375Q517.5781 327.875 517.28125 327.51562Q516.8125 326.96875 516.0781 326.96875Q515.40625 326.96875 514.9531 327.42188Q514.5 327.85938 514.4531 328.59375ZM519.71875 334.1875L519.71875 326.29688L520.6094 326.29688L520.6094 327.03125Q520.9219 326.60938 521.3125 326.39062Q521.7031 326.17188 522.2656 326.17188Q522.9844 326.17188 523.5469 326.54688Q524.1094 326.92188 524.3906 327.60938Q524.6719 328.28125 524.6719 329.10938Q524.6719 329.98438 524.3594 330.6875Q524.0469 331.375 523.4375 331.75Q522.84375 332.125 522.1875 332.125Q521.7031 332.125 521.3125 331.92188Q520.9375 331.71875 520.6875 331.40625L520.6875 334.1875L519.71875 334.1875ZM520.59375 329.1875Q520.59375 330.28125 521.0469 330.8125Q521.5 331.32812 522.125 331.32812Q522.7656 331.32812 523.21875 330.79688Q523.6875 330.25 523.6875 329.09375Q523.6875 328.01562 523.2344 327.46875Q522.7969 326.92188 522.1719 326.92188Q521.5469 326.92188 521.0625 327.5Q520.59375 328.07812 520.59375 329.1875ZM525.7031 326.29688L526.6719 326.29688L526.6719 328.53125L527.90625 328.53125Q529.09375 328.53125 529.7344 329.0Q530.3906 329.45312 530.3906 330.26562Q530.3906 330.98438 529.84375 331.5Q529.3125 332.0 528.125 332.0L525.7031 332.0L525.7031 326.29688ZM526.6719 331.20312L527.6875 331.20312Q528.6094 331.20312 529.0 330.98438Q529.3906 330.75 529.3906 330.28125Q529.3906 329.90625 529.09375 329.625Q528.8125 329.32812 527.8125 329.32812L526.6719 329.32812L526.6719 331.20312ZM531.7344 326.29688L535.0156 326.29688L535.0156 327.09375L532.7031 327.09375L532.7031 332.0L531.7344 332.0L531.7344 326.29688ZM535.71875 326.29688L536.6875 326.29688L536.6875 330.64062L539.375 326.29688L540.4219 326.29688L540.4219 332.0L539.4531 332.0L539.4531 327.67188L536.7656 332.0L535.71875 332.0L535.71875 326.29688Z" fill-rule="nonzero"/><path fill="#5f3d05" d="M499.0 351.5C499.0 354.81372 496.31372 357.5 493.0 357.5C489.68628 357.5 487.0 354.81372 487.0 351.5C487.0 348.18628 489.68628 345.5 493.0 345.5C496.31372 345.5 499.0 348.18628 499.0 351.5Z" fill-rule="nonzero"/><path fill="#1a1a1a" d="M507.6875 357.20312L507.57812 356.29688Q507.89062 356.375 508.125 356.375Q508.45312 356.375 508.64062 356.26562Q508.84375 356.15625 508.95312 355.96875Q509.04688 355.82812 509.25 355.25Q509.28125 355.17188 509.34375 355.01562L507.17188 349.29688L508.21875 349.29688L509.40625 352.59375Q509.64062 353.23438 509.8125 353.92188Q509.98438 353.25 510.21875 352.625L511.4375 349.29688L512.40625 349.29688L510.23438 355.09375Q509.89062 356.03125 509.6875 356.39062Q509.4375 356.875 509.09375 357.09375Q508.76562 357.3125 508.3125 357.3125Q508.03125 357.3125 507.6875 357.20312ZM513.75 349.29688L514.71875 349.29688L514.71875 354.20312L516.9219 354.20312L516.9219 349.29688L517.8906 349.29688L517.8906 354.20312L520.09375 354.20312L520.09375 349.29688L521.0625 349.29688L521.0625 355.0L513.75 355.0L513.75 349.29688ZM521.71875 349.29688L522.6875 349.29688L522.6875 351.76562Q523.15625 351.76562 523.3281 351.59375Q523.5156 351.40625 523.875 350.54688Q524.15625 349.875 524.3281 349.67188Q524.5156 349.45312 524.75 349.375Q524.9844 349.29688 525.4844 349.29688L525.6875 349.29688L525.6875 350.09375L525.4219 350.09375Q525.03125 350.09375 524.9219 350.20312Q524.8125 350.32812 524.5781 350.90625Q524.3594 351.46875 524.1719 351.6875Q524.0 351.89062 523.6094 352.07812Q524.2344 352.23438 524.84375 353.23438L525.90625 355.0L524.8281 355.0L523.7969 353.23438Q523.4844 352.70312 523.25 352.53125Q523.0156 352.35938 522.6875 352.35938L522.6875 355.0L521.71875 355.0L521.71875 349.29688ZM526.3594 352.14062Q526.3594 350.5625 527.25 349.79688Q527.9844 349.17188 529.0469 349.17188Q530.21875 349.17188 530.9531 349.9375Q531.7031 350.70312 531.7031 352.0625Q531.7031 353.17188 531.375 353.8125Q531.0469 354.4375 530.40625 354.78125Q529.78125 355.125 529.0469 355.125Q527.84375 355.125 527.09375 354.35938Q526.3594 353.59375 526.3594 352.14062ZM527.3594 352.14062Q527.3594 353.25 527.8281 353.79688Q528.3125 354.32812 529.0469 354.32812Q529.7656 354.32812 530.2344 353.78125Q530.71875 353.23438 530.71875 352.10938Q530.71875 351.0625 530.2344 350.51562Q529.75 349.96875 529.0469 349.96875Q528.3125 349.96875 527.8281 350.51562Q527.3594 351.04688 527.3594 352.14062Z" fill-rule="nonzero"/></svg>