<?xml version="1.0" encoding="UTF-8"?>
<!DOCTYPE svg PUBLIC "-//W3C//DTD SVG 1.1//EN" "http://www.w3.org/Graphics/SVG/1.1/DTD/svg11.dtd">
<svg version="1.2" width="210mm" height="297mm" viewBox="0 0 21000 29700" preserveAspectRatio="xMidYMid" fill-rule="evenodd" stroke-width="28.222" stroke-linejoin="round" xmlns="http://www.w3.org/2000/svg" xmlns:ooo="http://xml.openoffice.org/svg/export" xmlns:xlink="http://www.w3.org/1999/xlink" xmlns:presentation="http://sun.com/xmlns/staroffice/presentation" xmlns:smil="http://www.w3.org/2001/SMIL20/" xmlns:anim="urn:oasis:names:tc:opendocument:xmlns:animation:1.0" xml:space="preserve">
 <defs class="ClipPathGroup">
  <clipPath id="presentation_clip_path" clipPathUnits="userSpaceOnUse">
   <rect x="0" y="0" width="21000" height="29700"/>
  </clipPath>
  <clipPath id="presentation_clip_path_shrink" clipPathUnits="userSpaceOnUse">
   <rect x="21" y="29" width="20958" height="29641"/>
  </clipPath>
 </defs>
 <defs class="TextShapeIndex">
  <g ooo:slide="id1" ooo:id-list="id3 id4 id5 id6 id7 id8 id9 id10 id11 id12 id13 id14 id15 id16 id17 id18 id19 id20 id21 id22 id23 id24 id25 id26 id27 id28 id29 id30 id31 id32 id33 id34 id35 id36 id37"/>
 </defs>
 <defs class="EmbeddedBulletChars">
  <g id="bullet-char-template-57356" transform="scale(0.00048828125,-0.00048828125)">
   <path d="M 580,1141 L 1163,571 580,0 -4,571 580,1141 Z"/>
  </g>
  <g id="bullet-char-template-57354" transform="scale(0.00048828125,-0.00048828125)">
   <path d="M 8,1128 L 1137,1128 1137,0 8,0 8,1128 Z"/>
  </g>
  <g id="bullet-char-template-10146" transform="scale(0.00048828125,-0.00048828125)">
   <path d="M 174,0 L 602,739 174,1481 1456,739 174,0 Z M 1358,739 L 309,1346 659,739 1358,739 Z"/>
  </g>
  <g id="bullet-char-template-10132" transform="scale(0.00048828125,-0.00048828125)">
   <path d="M 2015,739 L 1276,0 717,0 1260,543 174,543 174,936 1260,936 717,1481 1274,1481 2015,739 Z"/>
  </g>
  <g id="bullet-char-template-10007" transform="scale(0.00048828125,-0.00048828125)">
   <path d="M 0,-2 C -7,14 -16,27 -25,37 L 356,567 C 262,823 215,952 215,954 215,979 228,992 255,992 264,992 276,990 289,987 310,991 331,999 354,1012 L 381,999 492,748 772,1049 836,1024 860,1049 C 881,1039 901,1025 922,1006 886,937 835,863 770,784 769,783 710,716 594,584 L 774,223 C 774,196 753,168 711,139 L 727,119 C 717,90 699,76 672,76 641,76 570,178 457,381 L 164,-76 C 142,-110 111,-127 72,-127 30,-127 9,-110 8,-76 1,-67 -2,-52 -2,-32 -2,-23 -1,-13 0,-2 Z"/>
  </g>
  <g id="bullet-char-template-10004" transform="scale(0.00048828125,-0.00048828125)">
   <path d="M 285,-33 C 182,-33 111,30 74,156 52,228 41,333 41,471 41,549 55,616 82,672 116,743 169,778 240,778 293,778 328,747 346,684 L 369,508 C 377,444 397,411 428,410 L 1163,1116 C 1174,1127 1196,1133 1229,1133 1271,1133 1292,1118 1292,1087 L 1292,965 C 1292,929 1282,901 1262,881 L 442,47 C 390,-6 338,-33 285,-33 Z"/>
  </g>
  <g id="bullet-char-template-9679" transform="scale(0.00048828125,-0.00048828125)">
   <path d="M 813,0 C 632,0 489,54 383,161 276,268 223,411 223,592 223,773 276,916 383,1023 489,1130 632,1184 813,1184 992,1184 1136,1130 1245,1023 1353,916 1407,772 1407,592 1407,412 1353,268 1245,161 1136,54 992,0 813,0 Z"/>
  </g>
  <g id="bullet-char-template-8226" transform="scale(0.00048828125,-0.00048828125)">
   <path d="M 346,457 C 273,457 209,483 155,535 101,586 74,649 74,723 74,796 101,859 155,911 209,963 273,989 346,989 419,989 480,963 531,910 582,859 608,796 608,723 608,648 583,586 532,535 482,483 420,457 346,457 Z"/>
  </g>
  <g id="bullet-char-template-8211" transform="scale(0.00048828125,-0.00048828125)">
   <path d="M -4,459 L 1135,459 1135,606 -4,606 -4,459 Z"/>
  </g>
  <g id="bullet-char-template-61548" transform="scale(0.00048828125,-0.00048828125)">
   <path d="M 173,740 C 173,903 231,1043 346,1159 462,1274 601,1332 765,1332 928,1332 1067,1274 1183,1159 1299,1043 1357,903 1357,740 1357,577 1299,437 1183,322 1067,206 928,148 765,148 601,148 462,206 346,322 231,437 173,577 173,740 Z"/>
  </g>
 </defs>
 <g>
  <g id="id2" class="Master_Slide">
   <g id="bg-id2" class="Background"/>
   <g id="bo-id2" class="BackgroundObjects"/>
  </g>
 </g>
 <g class="SlideGroup">
  <g>
   <g id="container-id1">
    <g id="id1" class="Slide" clip-path="url(#presentation_clip_path)">
     <g class="Page">
      <g class="com.sun.star.drawing.CustomShape">
       <g id="id3">
        <rect class="BoundingBox" stroke="none" fill="none" x="999" y="999" width="19003" height="403"/>
        <path fill="rgb(246,14,31)" stroke="none" d="M 10500,1400 L 1000,1400 1000,1000 20000,1000 20000,1400 10500,1400 Z"/>
        <path fill="none" stroke="rgb(52,101,164)" d="M 10500,1400 L 1000,1400 1000,1000 20000,1000 20000,1400 10500,1400 Z"/>
       </g>
      </g>
      <g class="Group">
       <g class="com.sun.star.drawing.CustomShape">
        <g id="id4">
         <rect class="BoundingBox" stroke="none" fill="none" x="1999" y="1999" width="1704" height="1504"/>
         <path fill="rgb(114,159,207)" stroke="none" d="M 2000,2750 L 2244,2966 2249,3281 2595,3281 2850,3501 3095,3285 3451,3281 3452,2975 3701,2750 3456,2534 3451,2219 3105,2219 2850,2000 2605,2215 2249,2219 2248,2525 2000,2750 2000,2750 Z"/>
         <path fill="none" stroke="rgb(246,14,31)" d="M 2000,2750 L 2244,2966 2249,3281 2595,3281 2850,3501 3095,3285 3451,3281 3452,2975 3701,2750 3456,2534 3451,2219 3105,2219 2850,2000 2605,2215 2249,2219 2248,2525 2000,2750 2000,2750 Z"/>
        </g>
       </g>
       <g class="com.sun.star.drawing.CustomShape">
        <g id="id5">
         <rect class="BoundingBox" stroke="none" fill="none" x="4999" y="1999" width="1704" height="1504"/>
         <path fill="rgb(114,159,207)" stroke="none" d="M 5000,2750 L 5244,2966 5249,3281 5595,3281 5850,3501 6095,3285 6451,3281 6452,2975 6701,2750 6456,2534 6451,2219 6105,2219 5850,2000 5605,2215 5249,2219 5248,2525 5000,2750 5000,2750 Z"/>
         <path fill="none" stroke="rgb(246,14,31)" d="M 5000,2750 L 5244,2966 5249,3281 5595,3281 5850,3501 6095,3285 6451,3281 6452,2975 6701,2750 6456,2534 6451,2219 6105,2219 5850,2000 5605,2215 5249,2219 5248,2525 5000,2750 5000,2750 Z"/>
        </g>
       </g>
       <g class="com.sun.star.drawing.CustomShape">
        <g id="id6">
         <rect class="BoundingBox" stroke="none" fill="none" x="7999" y="1999" width="1704" height="1504"/>
         <path fill="rgb(114,159,207)" stroke="none" d="M 8000,2750 L 8244,2966 8249,3281 8595,3281 8850,3501 9095,3285 9451,3281 9452,2975 9701,2750 9456,2534 9451,2219 9105,2219 8850,2000 8605,2215 8249,2219 8248,2525 8000,2750 8000,2750 Z"/>
         <path fill="none" stroke="rgb(246,14,31)" d="M 8000,2750 L 8244,2966 8249,3281 8595,3281 8850,3501 9095,3285 9451,3281 9452,2975 9701,2750 9456,2534 9451,2219 9105,2219 8850,2000 8605,2215 8249,2219 8248,2525 8000,2750 8000,2750 Z"/>
        </g>
       </g>
       <g class="com.sun.star.drawing.CustomShape">
        <g id="id7">
         <rect class="BoundingBox" stroke="none" fill="none" x="10999" y="1999" width="1704" height="1504"/>
         <path fill="rgb(114,159,207)" stroke="none" d="M 11000,2750 L 11244,2966 11249,3281 11595,3281 11850,3501 12095,3285 12451,3281 12452,2975 12701,2750 12456,2534 12451,2219 12105,2219 11850,2000 11605,2215 11249,2219 11248,2525 11000,2750 11000,2750 Z"/>
         <path fill="none" stroke="rgb(246,14,31)" d="M 11000,2750 L 11244,2966 11249,3281 11595,3281 11850,3501 12095,3285 12451,3281 12452,2975 12701,2750 12456,2534 12451,2219 12105,2219 11850,2000 11605,2215 11249,2219 11248,2525 11000,2750 11000,2750 Z"/>
        </g>
       </g>
       <g class="com.sun.star.drawing.CustomShape">
        <g id="id8">
         <rect class="BoundingBox" stroke="none" fill="none" x="13999" y="1999" width="1704" height="1504"/>
         <path fill="rgb(114,159,207)" stroke="none" d="M 14000,2750 L 14244,2966 14249,3281 14595,3281 14850,3501 15095,3285 15451,3281 15452,2975 15701,2750 15456,2534 15451,2219 15105,2219 14850,2000 14605,2215 14249,2219 14248,2525 14000,2750 14000,2750 Z"/>
         <path fill="none" stroke="rgb(246,14,31)" d="M 14000,2750 L 14244,2966 14249,3281 14595,3281 14850,3501 15095,3285 15451,3281 15452,2975 15701,2750 15456,2534 15451,2219 15105,2219 14850,2000 14605,2215 14249,2219 14248,2525 14000,2750 14000,2750 Z"/>
        </g>
       </g>
       <g class="com.sun.star.drawing.CustomShape">
        <g id="id9">
         <rect class="BoundingBox" stroke="none" fill="none" x="16999" y="1999" width="1704" height="1504"/>
         <path fill="rgb(114,159,207)" stroke="none" d="M 17000,2750 L 17244,2966 17249,3281 17595,3281 17850,3501 18095,3285 18451,3281 18452,2975 18701,2750 18456,2534 18451,2219 18105,2219 17850,2000 17605,2215 17249,2219 17248,2525 17000,2750 17000,2750 Z"/>
         <path fill="none" stroke="rgb(246,14,31)" d="M 17000,2750 L 17244,2966 17249,3281 17595,3281 17850,3501 18095,3285 18451,3281 18452,2975 18701,2750 18456,2534 18451,2219 18105,2219 17850,2000 17605,2215 17249,2219 17248,2525 17000,2750 17000,2750 Z"/>
        </g>
       </g>
      </g>
      <g class="com.sun.star.drawing.CustomShape">
       <g id="id10">
        <rect class="BoundingBox" stroke="none" fill="none" x="999" y="1099" width="1204" height="1004"/>
        <path fill="rgb(246,14,31)" stroke="none" d="M 1250,1100 L 1950,1100 1950,1350 2201,1350 2201,1850 1950,1850 1950,2101 1250,2101 1250,1850 1000,1850 1000,1350 1250,1350 1250,1100 1250,1100 Z"/>
        <path fill="none" stroke="rgb(246,14,31)" d="M 1250,1100 L 1950,1100 1950,1350 2201,1350 2201,1850 1950,1850 1950,2101 1250,2101 1250,1850 1000,1850 1000,1350 1250,1350 1250,1100 1250,1100 Z"/>
       </g>
      </g>
      <g class="com.sun.star.drawing.CustomShape">
       <g id="id11">
        <rect class="BoundingBox" stroke="none" fill="none" x="3899" y="1099" width="1204" height="1004"/>
        <path fill="rgb(246,14,31)" stroke="none" d="M 4150,1100 L 4850,1100 4850,1350 5101,1350 5101,1850 4850,1850 4850,2101 4150,2101 4150,1850 3900,1850 3900,1350 4150,1350 4150,1100 4150,1100 Z"/>
        <path fill="none" stroke="rgb(246,14,31)" d="M 4150,1100 L 4850,1100 4850,1350 5101,1350 5101,1850 4850,1850 4850,2101 4150,2101 4150,1850 3900,1850 3900,1350 4150,1350 4150,1100 4150,1100 Z"/>
       </g>
      </g>
      <g class="com.sun.star.drawing.CustomShape">
       <g id="id12">
        <rect class="BoundingBox" stroke="none" fill="none" x="6799" y="1099" width="1204" height="1004"/>
        <path fill="rgb(246,14,31)" stroke="none" d="M 7050,1100 L 7750,1100 7750,1350 8001,1350 8001,1850 7750,1850 7750,2101 7050,2101 7050,1850 6800,1850 6800,1350 7050,1350 7050,1100 7050,1100 Z"/>
        <path fill="none" stroke="rgb(246,14,31)" d="M 7050,1100 L 7750,1100 7750,1350 8001,1350 8001,1850 7750,1850 7750,2101 7050,2101 7050,1850 6800,1850 6800,1350 7050,1350 7050,1100 7050,1100 Z"/>
       </g>
      </g>
      <g class="com.sun.star.drawing.CustomShape">
       <g id="id13">
        <rect class="BoundingBox" stroke="none" fill="none" x="9799" y="1099" width="1204" height="1004"/>
        <path fill="rgb(246,14,31)" stroke="none" d="M 10050,1100 L 10750,1100 10750,1350 11001,1350 11001,1850 10750,1850 10750,2101 10050,2101 10050,1850 9800,1850 9800,1350 10050,1350 10050,1100 10050,1100 Z"/>
        <path fill="none" stroke="rgb(246,14,31)" d="M 10050,1100 L 10750,1100 10750,1350 11001,1350 11001,1850 10750,1850 10750,2101 10050,2101 10050,1850 9800,1850 9800,1350 10050,1350 10050,1100 10050,1100 Z"/>
       </g>
      </g>
      <g class="com.sun.star.drawing.CustomShape">
       <g id="id14">
        <rect class="BoundingBox" stroke="none" fill="none" x="12799" y="1099" width="1204" height="1004"/>
        <path fill="rgb(246,14,31)" stroke="none" d="M 13050,1100 L 13750,1100 13750,1350 14001,1350 14001,1850 13750,1850 13750,2101 13050,2101 13050,1850 12800,1850 12800,1350 13050,1350 13050,1100 13050,1100 Z"/>
        <path fill="none" stroke="rgb(246,14,31)" d="M 13050,1100 L 13750,1100 13750,1350 14001,1350 14001,1850 13750,1850 13750,2101 13050,2101 13050,1850 12800,1850 12800,1350 13050,1350 13050,1100 13050,1100 Z"/>
       </g>
      </g>
      <g class="com.sun.star.drawing.CustomShape">
       <g id="id15">
        <rect class="BoundingBox" stroke="none" fill="none" x="15799" y="1099" width="1204" height="1004"/>
        <path fill="rgb(246,14,31)" stroke="none" d="M 16050,1100 L 16750,1100 16750,1350 17001,1350 17001,1850 16750,1850 16750,2101 16050,2101 16050,1850 15800,1850 15800,1350 16050,1350 16050,1100 16050,1100 Z"/>
        <path fill="none" stroke="rgb(246,14,31)" d="M 16050,1100 L 16750,1100 16750,1350 17001,1350 17001,1850 16750,1850 16750,2101 16050,2101 16050,1850 15800,1850 15800,1350 16050,1350 16050,1100 16050,1100 Z"/>
       </g>
      </g>
      <g class="com.sun.star.drawing.CustomShape">
       <g id="id16">
        <rect class="BoundingBox" stroke="none" fill="none" x="18799" y="1099" width="1204" height="1004"/>
        <path fill="rgb(246,14,31)" stroke="none" d="M 19050,1100 L 19750,1100 19750,1350 20001,1350 20001,1850 19750,1850 19750,2101 19050,2101 19050,1850 18800,1850 18800,1350 19050,1350 19050,1100 19050,1100 Z"/>
        <path fill="none" stroke="rgb(246,14,31)" d="M 19050,1100 L 19750,1100 19750,1350 20001,1350 20001,1850 19750,1850 19750,2101 19050,2101 19050,1850 18800,1850 18800,1350 19050,1350 19050,1100 19050,1100 Z"/>
       </g>
      </g>
      <g class="com.sun.star.drawing.CustomShape">
       <g id="id17">
        <rect class="BoundingBox" stroke="none" fill="none" x="3700" y="4700" width="15300" height="5314"/>
        <defs>
         <mask id="mask1">
          <g>
           <defs>
            <linearGradient id="gradient1" x1="12349" y1="4700" x2="12349" y2="8014" gradientUnits="userSpaceOnUse">
             <stop offset="0.5" style="stop-color:rgb(102,102,102)"/>
             <stop offset="0.5" style="stop-color:rgb(102,102,102)"/>
             <stop offset="1" style="stop-color:rgb(102,102,102)"/>
             <stop offset="1" style="stop-color:rgb(102,102,102)"/>
            </linearGradient>
           </defs>
           <path style="fill:url(#gradient1)" d="M 5700,4700 L 18999,4700 18999,8014 5700,8014 5700,4700 Z"/>
          </g>
         </mask>
        </defs>
        <g style="mask:url(#mask1)">
         <path fill="rgb(148,189,94)" stroke="none" d="M 6553,6533 L 6553,6574 6551,6613 6549,6652 6545,6689 6541,6726 6535,6761 6528,6794 6520,6827 6512,6860 6502,6891 6492,6919 6480,6948 6468,6977 6453,7004 6439,7028 6423,7053 6407,7076 6388,7098 6352,7137 6311,7170 6268,7197 6223,7218 6173,7232 6121,7242 6066,7244 5975,7240 5885,7224 5797,7199 5711,7164 5700,6644 5768,6644 5811,6991 5820,7002 5832,7010 5843,7020 5856,7028 5885,7045 5919,7061 5953,7074 5987,7084 6017,7088 6047,7090 6084,7088 6118,7082 6150,7072 6179,7057 6206,7039 6219,7026 6230,7016 6242,7002 6252,6987 6262,6973 6271,6956 6281,6940 6289,6919 6296,6901 6303,6878 6310,6856 6316,6831 6321,6806 6326,6779 6334,6722 6340,6658 6344,6588 6345,6514 6344,6454 6341,6399 6334,6347 6331,6323 6327,6300 6322,6277 6317,6255 6311,6234 6305,6214 6298,6195 6291,6177 6283,6160 6274,6144 6265,6129 6256,6113 6245,6101 6235,6088 6210,6066 6185,6045 6157,6029 6125,6018 6092,6008 6056,6004 5910,5989 5910,5837 6056,5821 6086,5817 6113,5808 6139,5796 6164,5782 6186,5761 6196,5751 6206,5738 6216,5726 6225,5714 6234,5697 6242,5683 6250,5666 6257,5650 6263,5631 6270,5613 6276,5594 6281,5574 6286,5553 6290,5533 6297,5485 6302,5438 6305,5387 6306,5331 6305,5274 6303,5218 6298,5169 6293,5121 6285,5078 6281,5057 6276,5039 6270,5020 6264,5004 6258,4988 6252,4973 6245,4959 6238,4946 6230,4934 6221,4922 6212,4911 6201,4901 6191,4893 6180,4885 6157,4870 6130,4862 6102,4856 6071,4854 6057,4854 6043,4856 6013,4862 5983,4870 5951,4885 5922,4901 5896,4918 5884,4926 5873,4934 5864,4944 5855,4953 5821,5255 5754,5255 5754,4780 5838,4745 5920,4720 5998,4704 6038,4702 6075,4700 6127,4702 6176,4710 6222,4722 6264,4739 6304,4759 6340,4786 6373,4817 6388,4835 6402,4854 6416,4874 6429,4895 6441,4918 6452,4940 6462,4965 6472,4992 6480,5018 6487,5045 6494,5074 6499,5105 6504,5136 6508,5169 6511,5201 6513,5236 6515,5271 6515,5308 6514,5368 6510,5426 6507,5452 6503,5479 6499,5506 6494,5531 6489,5555 6483,5580 6476,5603 6469,5627 6460,5648 6451,5671 6432,5712 6411,5751 6386,5784 6361,5815 6333,5841 6304,5864 6272,5882 6239,5899 6204,5909 6247,5922 6287,5936 6324,5954 6359,5977 6390,6004 6419,6033 6444,6066 6456,6084 6468,6103 6478,6123 6488,6144 6497,6164 6505,6187 6512,6212 6519,6236 6525,6261 6532,6288 6537,6315 6541,6343 6548,6403 6552,6467 6553,6533 Z M 7191,5601 L 7063,5553 7063,5471 7476,5471 7476,5553 7359,5601 7359,6243 7808,6243 7808,5601 7681,5553 7681,5471 8095,5471 8095,5553 7978,5601 7978,7080 8095,7125 8095,7209 7681,7209 7681,7125 7808,7080 7808,6397 7359,6397 7359,7080 7476,7125 7476,7209 7063,7209 7063,7125 7191,7080 7191,5601 Z M 8985,6329 L 8983,6440 8978,6543 8969,6640 8956,6730 8941,6812 8922,6886 8900,6954 8873,7016 8843,7070 8809,7117 8773,7156 8733,7187 8688,7212 8642,7230 8591,7240 8536,7244 8483,7240 8434,7230 8389,7212 8346,7187 8327,7170 8307,7152 8289,7133 8272,7113 8254,7090 8239,7065 8224,7039 8210,7010 8197,6979 8184,6948 8172,6915 8162,6880 8152,6843 8143,6804 8135,6765 8127,6722 8115,6633 8106,6539 8101,6438 8099,6329 8101,6222 8106,6123 8115,6029 8127,5942 8135,5901 8143,5860 8152,5823 8162,5786 8172,5751 8184,5718 8197,5687 8210,5656 8224,5627 8239,5603 8255,5578 8272,5555 8290,5535 8308,5514 8328,5498 8348,5481 8392,5457 8439,5438 8490,5428 8544,5424 8597,5428 8647,5438 8693,5457 8736,5481 8756,5496 8776,5512 8794,5531 8812,5551 8828,5574 8845,5599 8860,5625 8874,5652 8887,5681 8901,5712 8912,5745 8923,5780 8933,5817 8942,5854 8950,5895 8957,5936 8970,6024 8978,6119 8983,6220 8985,6329 Z M 8801,6329 L 8800,6232 8797,6144 8792,6061 8785,5985 8776,5915 8765,5854 8758,5825 8752,5798 8745,5773 8737,5751 8729,5728 8720,5710 8711,5689 8700,5673 8690,5656 8679,5642 8667,5629 8655,5617 8642,5607 8628,5597 8614,5588 8600,5582 8569,5574 8536,5572 8503,5574 8474,5582 8460,5588 8446,5597 8433,5605 8421,5615 8409,5625 8398,5638 8388,5652 8377,5669 8368,5685 8359,5701 8351,5722 8343,5743 8336,5765 8329,5790 8323,5815 8316,5843 8306,5905 8298,5975 8291,6053 8287,6138 8284,6230 8283,6329 8284,6430 8287,6524 8291,6609 8298,6689 8306,6759 8317,6821 8324,6849 8330,6876 8337,6901 8344,6924 8352,6944 8360,6965 8369,6983 8378,7000 8389,7016 8400,7030 8411,7043 8422,7055 8434,7065 8447,7074 8461,7082 8475,7088 8504,7096 8536,7098 8568,7096 8599,7088 8613,7080 8627,7074 8640,7063 8654,7053 8666,7041 8677,7028 8688,7014 8699,6998 8709,6979 8719,6961 8728,6940 8736,6917 8744,6895 8751,6868 8758,6841 8764,6812 8776,6749 8785,6679 8792,6603 8797,6518 8800,6428 8801,6329 Z M 8998,7207 L 8998,7125 9126,7078 9126,5599 8998,5553 8998,5469 9409,5469 9462,5471 9513,5475 9559,5483 9602,5496 9639,5510 9673,5527 9702,5547 9715,5559 9727,5572 9739,5584 9749,5599 9759,5613 9768,5629 9776,5646 9784,5664 9791,5683 9798,5701 9803,5722 9808,5743 9812,5765 9815,5788 9818,5813 9820,5837 9821,5862 9821,5889 9820,5932 9817,5973 9815,5992 9813,6010 9810,6029 9807,6047 9803,6064 9799,6080 9795,6094 9789,6109 9783,6123 9778,6138 9772,6150 9765,6162 9750,6185 9735,6208 9716,6226 9698,6245 9678,6263 9655,6277 9632,6290 9608,6302 9608,6317 9639,6325 9669,6333 9696,6345 9722,6360 9746,6376 9768,6393 9788,6413 9807,6436 9815,6448 9823,6461 9830,6475 9837,6489 9843,6504 9848,6520 9853,6537 9859,6555 9863,6574 9866,6592 9869,6611 9872,6631 9874,6652 9875,6675 9876,6720 9876,6751 9874,6782 9872,6812 9870,6841 9866,6868 9862,6895 9855,6919 9849,6944 9843,6967 9835,6987 9826,7008 9817,7028 9807,7047 9796,7063 9784,7080 9771,7094 9758,7109 9743,7121 9710,7144 9675,7164 9634,7179 9589,7191 9541,7201 9489,7205 9432,7207 8998,7207 Z M 9417,7059 L 9453,7057 9487,7055 9517,7049 9546,7039 9571,7028 9593,7014 9604,7006 9613,6998 9622,6989 9630,6979 9637,6969 9644,6956 9651,6944 9657,6932 9662,6917 9668,6903 9673,6886 9677,6870 9680,6854 9684,6835 9686,6817 9688,6798 9690,6777 9691,6757 9692,6712 9691,6668 9690,6650 9688,6629 9686,6611 9683,6594 9680,6578 9676,6561 9672,6547 9667,6533 9661,6518 9655,6506 9648,6494 9641,6481 9634,6471 9626,6461 9618,6452 9608,6444 9587,6428 9564,6415 9538,6405 9508,6397 9477,6391 9441,6389 9403,6387 9295,6387 9295,7059 9417,7059 Z M 9295,6238 L 9403,6238 9433,6236 9460,6234 9486,6228 9509,6220 9530,6210 9550,6197 9558,6189 9566,6181 9574,6173 9581,6164 9588,6154 9594,6144 9601,6133 9606,6121 9611,6109 9615,6094 9620,6080 9623,6064 9626,6049 9629,6031 9632,6014 9634,5996 9636,5957 9637,5913 9637,5895 9636,5876 9635,5860 9633,5843 9631,5827 9629,5810 9626,5796 9623,5782 9619,5769 9615,5755 9610,5743 9605,5732 9599,5720 9593,5710 9587,5699 9580,5691 9573,5683 9565,5675 9548,5658 9528,5646 9507,5636 9484,5627 9457,5621 9430,5619 9399,5617 9295,5617 9295,6238 Z M 10013,5599 L 9885,5553 9885,5471 10298,5471 10298,5553 10182,5599 10182,6691 10631,5813 10631,5599 10504,5553 10504,5471 10917,5471 10917,5553 10800,5599 10800,7078 10917,7125 10917,7207 10504,7207 10504,7125 10631,7078 10631,6020 10182,6901 10182,7078 10298,7125 10298,7207 9885,7207 9885,7125 10013,7078 10013,5599 Z M 11008,5599 L 10890,5553 10890,5471 11230,5471 11505,6728 11787,5471 12115,5471 12115,5553 11999,5599 11999,7078 12115,7125 12115,7207 11723,7207 11723,7125 11829,7078 11829,5693 11491,7207 11436,7207 11105,5699 11105,7078 11202,7125 11202,7207 10890,7207 10890,7125 11008,7078 11008,5599 Z M 12664,5599 L 12555,5553 12555,5469 12824,5469 12826,5572 12837,5555 12849,5539 12863,5525 12876,5512 12891,5498 12906,5487 12923,5475 12941,5465 12977,5446 12996,5440 13014,5434 13032,5430 13050,5426 13069,5424 13087,5424 13132,5428 13174,5438 13213,5457 13232,5467 13251,5481 13268,5496 13284,5514 13300,5533 13316,5553 13331,5576 13345,5601 13358,5625 13371,5654 13384,5683 13395,5716 13406,5749 13415,5782 13424,5819 13432,5856 13447,5936 13458,6022 13466,6115 13470,6214 13472,6319 13470,6426 13465,6526 13457,6621 13445,6710 13429,6792 13420,6831 13410,6868 13400,6905 13388,6938 13376,6971 13362,7002 13348,7030 13334,7059 13318,7084 13301,7109 13284,7129 13267,7150 13248,7168 13228,7185 13208,7199 13188,7209 13143,7230 13096,7240 13045,7244 12988,7242 12934,7234 12879,7222 12826,7203 12831,7323 12832,7372 12832,7413 12832,7882 13000,7925 13000,8014 12543,8014 12543,7925 12664,7882 12664,5599 Z M 13288,6319 L 13287,6232 13284,6152 13279,6078 13272,6008 13264,5946 13253,5889 13247,5862 13239,5835 13232,5813 13225,5790 13217,5769 13208,5749 13199,5730 13189,5714 13178,5699 13168,5685 13156,5673 13145,5660 13132,5650 13120,5642 13106,5634 13092,5627 13063,5619 13031,5617 13002,5617 12974,5621 12948,5625 12922,5634 12898,5642 12875,5652 12852,5664 12832,5679 12832,7068 12879,7082 12928,7090 12978,7096 13031,7098 13063,7096 13091,7086 13119,7072 13144,7049 13167,7022 13188,6989 13207,6950 13224,6903 13239,6851 13253,6794 13263,6730 13272,6660 13279,6584 13284,6502 13288,6319 Z M 14415,6329 L 14413,6440 14408,6543 14399,6640 14386,6730 14371,6812 14352,6886 14329,6954 14303,7016 14273,7070 14239,7117 14202,7156 14163,7187 14118,7212 14071,7230 14021,7240 13966,7244 13913,7240 13864,7230 13818,7212 13776,7187 13756,7170 13737,7152 13719,7133 13702,7113 13684,7090 13669,7065 13654,7039 13640,7010 13626,6979 13614,6948 13602,6915 13592,6880 13582,6843 13573,6804 13564,6765 13557,6722 13545,6633 13536,6539 13531,6438 13529,6329 13531,6222 13536,6123 13545,6029 13557,5942 13564,5901 13573,5860 13582,5823 13592,5786 13602,5751 13614,5718 13626,5687 13640,5656 13654,5627 13669,5603 13685,5578 13702,5555 13720,5535 13738,5514 13758,5498 13778,5481 13822,5457 13869,5438 13920,5428 13974,5424 14027,5428 14076,5438 14123,5457 14166,5481 14186,5496 14206,5512 14224,5531 14242,5551 14258,5574 14275,5599 14290,5625 14304,5652 14317,5681 14330,5712 14342,5745 14353,5780 14363,5817 14372,5854 14380,5895 14387,5936 14400,6024 14408,6119 14413,6220 14415,6329 Z M 14231,6329 L 14230,6232 14227,6144 14222,6061 14215,5985 14206,5915 14195,5854 14188,5825 14182,5798 14175,5773 14167,5751 14159,5728 14150,5710 14140,5689 14130,5673 14120,5656 14109,5642 14097,5629 14085,5617 14071,5607 14058,5597 14044,5588 14030,5582 13999,5574 13966,5572 13933,5574 13904,5582 13890,5588 13876,5597 13863,5605 13851,5615 13839,5625 13828,5638 13817,5652 13807,5669 13798,5685 13789,5701 13781,5722 13773,5743 13766,5765 13759,5790 13752,5815 13746,5843 13736,5905 13728,5975 13721,6053 13717,6138 13714,6230 13713,6329 13714,6430 13717,6524 13721,6609 13728,6689 13736,6759 13747,6821 13753,6849 13760,6876 13767,6901 13774,6924 13782,6944 13790,6965 13799,6983 13808,7000 13818,7016 13830,7030 13841,7043 13852,7055 13864,7065 13877,7074 13891,7082 13905,7088 13934,7096 13966,7098 13998,7096 14029,7088 14043,7080 14057,7074 14070,7063 14084,7053 14096,7041 14107,7028 14118,7014 14129,6998 14138,6979 14149,6961 14158,6940 14166,6917 14174,6895 14181,6868 14188,6841 14194,6812 14206,6749 14215,6679 14222,6603 14227,6518 14230,6428 14231,6329 Z M 14556,5599 L 14428,5553 14428,5471 14841,5471 14841,5553 14725,5599 14725,6368 15117,5603 15017,5553 15017,5471 15355,5471 15355,5553 15237,5597 14962,6103 15314,7082 15407,7125 15407,7207 15025,7207 15025,7125 15113,7078 14850,6329 14725,6522 14725,7078 14841,7125 14841,7207 14428,7207 14428,7125 14556,7078 14556,5599 Z M 16162,6329 L 16160,6440 16155,6543 16146,6640 16134,6730 16118,6812 16099,6886 16077,6954 16050,7016 16020,7070 15986,7117 15950,7156 15910,7187 15865,7212 15819,7230 15768,7240 15713,7244 15660,7240 15612,7230 15566,7212 15523,7187 15504,7170 15485,7152 15466,7133 15449,7113 15432,7090 15416,7065 15401,7039 15387,7010 15374,6979 15362,6948 15349,6915 15339,6880 15329,6843 15320,6804 15312,6765 15305,6722 15293,6633 15283,6539 15278,6438 15276,6329 15278,6222 15283,6123 15293,6029 15305,5942 15312,5901 15320,5860 15329,5823 15339,5786 15349,5751 15362,5718 15374,5687 15387,5656 15401,5627 15416,5603 15433,5578 15449,5555 15467,5535 15486,5514 15505,5498 15525,5481 15569,5457 15617,5438 15667,5428 15721,5424 15774,5428 15824,5438 15871,5457 15913,5481 15934,5496 15953,5512 15971,5531 15989,5551 16006,5574 16022,5599 16037,5625 16051,5652 16065,5681 16078,5712 16089,5745 16100,5780 16110,5817 16119,5854 16128,5895 16135,5936 16147,6024 16155,6119 16160,6220 16162,6329 Z M 15978,6329 L 15977,6232 15974,6144 15969,6061 15962,5985 15953,5915 15943,5854 15936,5825 15929,5798 15922,5773 15914,5751 15906,5728 15897,5710 15888,5689 15878,5673 15868,5656 15856,5642 15844,5629 15832,5617 15819,5607 15806,5597 15791,5588 15777,5582 15747,5574 15713,5572 15681,5574 15651,5582 15637,5588 15624,5597 15610,5605 15598,5615 15586,5625 15575,5638 15565,5652 15555,5669 15545,5685 15536,5701 15528,5722 15520,5743 15513,5765 15506,5790 15500,5815 15494,5843 15484,5905 15475,5975 15468,6053 15464,6138 15461,6230 15460,6329 15461,6430 15464,6524 15468,6609 15475,6689 15484,6759 15495,6821 15501,6849 15507,6876 15514,6901 15521,6924 15529,6944 15537,6965 15546,6983 15556,7000 15566,7016 15577,7030 15588,7043 15599,7055 15612,7065 15625,7074 15638,7082 15652,7088 15682,7096 15713,7098 15746,7096 15776,7088 15790,7080 15805,7074 15818,7063 15831,7053 15843,7041 15854,7028 15865,7014 15877,6998 15886,6979 15896,6961 15905,6940 15913,6917 15921,6895 15928,6868 15936,6841 15942,6812 15953,6749 15962,6679 15969,6603 15974,6518 15977,6428 15978,6329 Z M 16276,5599 L 16158,5553 16158,5471 16498,5471 16774,6728 17055,5471 17383,5471 17383,5553 17267,5599 17267,7078 17383,7125 17383,7207 16991,7207 16991,7125 17098,7078 17098,5693 16759,7207 16705,7207 16373,5699 16373,7078 16470,7125 16470,7207 16158,7207 16158,7125 16276,7078 16276,5599 Z M 17763,7037 L 17763,7049 17762,7059 17762,7070 17761,7082 17760,7092 17758,7102 17756,7113 17754,7123 17752,7131 17749,7142 17743,7160 17736,7179 17728,7195 17718,7209 17709,7224 17699,7234 17688,7244 17677,7251 17666,7257 17653,7259 17640,7261 17627,7259 17615,7257 17603,7251 17591,7244 17580,7234 17570,7224 17561,7209 17552,7195 17544,7179 17537,7160 17531,7142 17527,7131 17525,7123 17523,7113 17521,7102 17519,7092 17518,7082 17517,7070 17517,7059 17516,7049 17516,7037 17516,7024 17517,7014 17517,7004 17518,6991 17519,6981 17521,6971 17523,6961 17525,6950 17527,6940 17531,6932 17534,6921 17537,6913 17544,6895 17552,6878 17561,6864 17571,6849 17581,6839 17591,6831 17603,6823 17615,6819 17627,6814 17640,6814 17652,6814 17665,6819 17677,6823 17688,6831 17698,6839 17708,6849 17718,6864 17728,6878 17736,6895 17743,6913 17746,6921 17749,6932 17752,6940 17754,6950 17756,6961 17758,6971 17760,6981 17761,6991 17762,7004 17762,7014 17763,7024 17763,7037 Z M 17528,4728 L 17751,4728 17688,6489 17591,6489 17528,4728 Z M 18382,7037 L 18382,7049 18381,7059 18381,7070 18380,7082 18379,7092 18377,7102 18375,7113 18373,7123 18371,7131 18368,7142 18362,7160 18354,7179 18346,7195 18337,7209 18328,7224 18318,7234 18307,7244 18295,7251 18284,7257 18272,7259 18259,7261 18246,7259 18234,7257 18221,7251 18210,7244 18199,7234 18189,7224 18180,7209 18171,7195 18162,7179 18155,7160 18149,7142 18146,7131 18144,7123 18142,7113 18140,7102 18138,7092 18137,7082 18136,7070 18136,7059 18135,7049 18135,7037 18135,7024 18136,7014 18136,7004 18137,6991 18138,6981 18140,6971 18142,6961 18144,6950 18146,6940 18149,6932 18152,6921 18155,6913 18162,6895 18171,6878 18180,6864 18190,6849 18200,6839 18210,6831 18221,6823 18234,6819 18246,6814 18259,6814 18271,6814 18283,6819 18295,6823 18307,6831 18317,6839 18327,6849 18337,6864 18346,6878 18354,6895 18362,6913 18365,6921 18368,6932 18371,6940 18373,6950 18375,6961 18377,6971 18379,6981 18380,6991 18381,7004 18381,7014 18382,7024 18382,7037 Z M 18147,4728 L 18370,4728 18307,6489 18210,6489 18147,4728 Z M 18999,7037 L 18999,7049 18998,7059 18998,7070 18997,7082 18996,7092 18994,7102 18992,7113 18990,7123 18988,7131 18985,7142 18979,7160 18972,7179 18964,7195 18955,7209 18946,7224 18935,7234 18924,7244 18913,7251 18902,7257 18890,7259 18877,7261 18863,7259 18851,7257 18839,7251 18828,7244 18817,7234 18806,7224 18797,7209 18788,7195 18780,7179 18773,7160 18767,7142 18764,7131 18762,7123 18760,7113 18758,7102 18756,7092 18755,7082 18754,7070 18754,7059 18753,7049 18753,7037 18753,7024 18754,7014 18754,7004 18755,6991 18756,6981 18758,6971 18760,6961 18762,6950 18764,6940 18767,6932 18770,6921 18773,6913 18780,6895 18788,6878 18797,6864 18807,6849 18818,6839 18828,6831 18839,6823 18851,6819 18863,6814 18877,6814 18889,6814 18901,6819 18913,6823 18924,6831 18934,6839 18945,6849 18955,6864 18964,6878 18972,6895 18979,6913 18982,6921 18985,6932 18988,6940 18990,6950 18992,6961 18994,6971 18996,6981 18997,6991 18998,7004 18998,7014 18999,7024 18999,7037 Z M 18765,4728 L 18987,4728 18924,6489 18828,6489 18765,4728 Z"/>
        </g>
        <path fill="rgb(0,128,0)" stroke="none" d="M 4553,8532 L 4553,8573 4551,8612 4549,8651 4545,8688 4541,8725 4535,8760 4528,8793 4520,8826 4512,8859 4502,8890 4492,8918 4480,8947 4468,8976 4453,9003 4439,9027 4423,9052 4407,9075 4388,9097 4352,9136 4311,9169 4268,9196 4223,9217 4173,9231 4121,9241 4066,9243 3975,9239 3885,9223 3797,9198 3711,9163 3700,8643 3768,8643 3811,8990 3820,9001 3832,9009 3843,9019 3856,9027 3885,9044 3919,9060 3953,9073 3987,9083 4017,9087 4047,9089 4084,9087 4118,9081 4150,9071 4179,9056 4206,9038 4219,9025 4230,9015 4242,9001 4252,8986 4262,8972 4271,8955 4281,8939 4289,8918 4296,8900 4303,8877 4310,8855 4316,8830 4321,8805 4326,8778 4334,8721 4340,8657 4344,8587 4345,8513 4344,8453 4341,8398 4334,8346 4331,8322 4327,8299 4322,8276 4317,8254 4311,8233 4305,8213 4298,8194 4291,8176 4283,8159 4274,8143 4265,8128 4256,8112 4245,8100 4235,8087 4210,8065 4185,8044 4157,8028 4125,8017 4092,8007 4056,8003 3910,7988 3910,7836 4056,7820 4086,7816 4113,7807 4139,7795 4164,7781 4186,7760 4196,7750 4206,7737 4216,7725 4225,7713 4234,7696 4242,7682 4250,7665 4257,7649 4263,7630 4270,7612 4276,7593 4281,7573 4286,7552 4290,7532 4297,7484 4302,7437 4305,7386 4306,7330 4305,7273 4303,7217 4298,7168 4293,7120 4285,7077 4281,7056 4276,7038 4270,7019 4264,7003 4258,6987 4252,6972 4245,6958 4238,6945 4230,6933 4221,6921 4212,6910 4201,6900 4191,6892 4180,6884 4157,6869 4130,6861 4102,6855 4071,6853 4057,6853 4043,6855 4013,6861 3983,6869 3951,6884 3922,6900 3896,6917 3884,6925 3873,6933 3864,6943 3855,6952 3821,7254 3754,7254 3754,6779 3838,6744 3920,6719 3998,6703 4038,6701 4075,6699 4127,6701 4176,6709 4222,6721 4264,6738 4304,6758 4340,6785 4373,6816 4388,6834 4402,6853 4416,6873 4429,6894 4441,6917 4452,6939 4462,6964 4472,6991 4480,7017 4487,7044 4494,7073 4499,7104 4504,7135 4508,7168 4511,7200 4513,7235 4515,7270 4515,7307 4514,7367 4510,7425 4507,7451 4503,7478 4499,7505 4494,7530 4489,7554 4483,7579 4476,7602 4469,7626 4460,7647 4451,7670 4432,7711 4411,7750 4386,7783 4361,7814 4333,7840 4304,7863 4272,7881 4239,7898 4204,7908 4247,7921 4287,7935 4324,7953 4359,7976 4390,8003 4419,8032 4444,8065 4456,8083 4468,8102 4478,8122 4488,8143 4497,8163 4505,8186 4512,8211 4519,8235 4525,8260 4532,8287 4537,8314 4541,8342 4548,8402 4552,8466 4553,8532 Z M 5191,7600 L 5063,7552 5063,7470 5476,7470 5476,7552 5359,7600 5359,8242 5808,8242 5808,7600 5681,7552 5681,7470 6095,7470 6095,7552 5978,7600 5978,9079 6095,9124 6095,9208 5681,9208 5681,9124 5808,9079 5808,8396 5359,8396 5359,9079 5476,9124 5476,9208 5063,9208 5063,9124 5191,9079 5191,7600 Z M 6985,8328 L 6983,8439 6978,8542 6969,8639 6956,8729 6941,8811 6922,8885 6900,8953 6873,9015 6843,9069 6809,9116 6773,9155 6733,9186 6688,9211 6642,9229 6591,9239 6536,9243 6483,9239 6434,9229 6389,9211 6346,9186 6327,9169 6307,9151 6289,9132 6272,9112 6254,9089 6239,9064 6224,9038 6210,9009 6197,8978 6184,8947 6172,8914 6162,8879 6152,8842 6143,8803 6135,8764 6127,8721 6115,8632 6106,8538 6101,8437 6099,8328 6101,8221 6106,8122 6115,8028 6127,7941 6135,7900 6143,7859 6152,7822 6162,7785 6172,7750 6184,7717 6197,7686 6210,7655 6224,7626 6239,7602 6255,7577 6272,7554 6290,7534 6308,7513 6328,7497 6348,7480 6392,7456 6439,7437 6490,7427 6544,7423 6597,7427 6647,7437 6693,7456 6736,7480 6756,7495 6776,7511 6794,7530 6812,7550 6828,7573 6845,7598 6860,7624 6874,7651 6887,7680 6901,7711 6912,7744 6923,7779 6933,7816 6942,7853 6950,7894 6957,7935 6970,8023 6978,8118 6983,8219 6985,8328 Z M 6801,8328 L 6800,8231 6797,8143 6792,8060 6785,7984 6776,7914 6765,7853 6758,7824 6752,7797 6745,7772 6737,7750 6729,7727 6720,7709 6711,7688 6700,7672 6690,7655 6679,7641 6667,7628 6655,7616 6642,7606 6628,7596 6614,7587 6600,7581 6569,7573 6536,7571 6503,7573 6474,7581 6460,7587 6446,7596 6433,7604 6421,7614 6409,7624 6398,7637 6388,7651 6377,7668 6368,7684 6359,7700 6351,7721 6343,7742 6336,7764 6329,7789 6323,7814 6316,7842 6306,7904 6298,7974 6291,8052 6287,8137 6284,8229 6283,8328 6284,8429 6287,8523 6291,8608 6298,8688 6306,8758 6317,8820 6324,8848 6330,8875 6337,8900 6344,8923 6352,8943 6360,8964 6369,8982 6378,8999 6389,9015 6400,9029 6411,9042 6422,9054 6434,9064 6447,9073 6461,9081 6475,9087 6504,9095 6536,9097 6568,9095 6599,9087 6613,9079 6627,9073 6640,9062 6654,9052 6666,9040 6677,9027 6688,9013 6699,8997 6709,8978 6719,8960 6728,8939 6736,8916 6744,8894 6751,8867 6758,8840 6764,8811 6776,8748 6785,8678 6792,8602 6797,8517 6800,8427 6801,8328 Z M 6998,9206 L 6998,9124 7126,9077 7126,7598 6998,7552 6998,7468 7409,7468 7462,7470 7513,7474 7559,7482 7602,7495 7639,7509 7673,7526 7702,7546 7715,7558 7727,7571 7739,7583 7749,7598 7759,7612 7768,7628 7776,7645 7784,7663 7791,7682 7798,7700 7803,7721 7808,7742 7812,7764 7815,7787 7818,7812 7820,7836 7821,7861 7821,7888 7820,7931 7817,7972 7815,7991 7813,8009 7810,8028 7807,8046 7803,8063 7799,8079 7795,8093 7789,8108 7783,8122 7778,8137 7772,8149 7765,8161 7750,8184 7735,8207 7716,8225 7698,8244 7678,8262 7655,8276 7632,8289 7608,8301 7608,8316 7639,8324 7669,8332 7696,8344 7722,8359 7746,8375 7768,8392 7788,8412 7807,8435 7815,8447 7823,8460 7830,8474 7837,8488 7843,8503 7848,8519 7853,8536 7859,8554 7863,8573 7866,8591 7869,8610 7872,8630 7874,8651 7875,8674 7876,8719 7876,8750 7874,8781 7872,8811 7870,8840 7866,8867 7862,8894 7855,8918 7849,8943 7843,8966 7835,8986 7826,9007 7817,9027 7807,9046 7796,9062 7784,9079 7771,9093 7758,9108 7743,9120 7710,9143 7675,9163 7634,9178 7589,9190 7541,9200 7489,9204 7432,9206 6998,9206 Z M 7417,9058 L 7453,9056 7487,9054 7517,9048 7546,9038 7571,9027 7593,9013 7604,9005 7613,8997 7622,8988 7630,8978 7637,8968 7644,8955 7651,8943 7657,8931 7662,8916 7668,8902 7673,8885 7677,8869 7680,8853 7684,8834 7686,8816 7688,8797 7690,8776 7691,8756 7692,8711 7691,8667 7690,8649 7688,8628 7686,8610 7683,8593 7680,8577 7676,8560 7672,8546 7667,8532 7661,8517 7655,8505 7648,8493 7641,8480 7634,8470 7626,8460 7618,8451 7608,8443 7587,8427 7564,8414 7538,8404 7508,8396 7477,8390 7441,8388 7403,8386 7295,8386 7295,9058 7417,9058 Z M 7295,8237 L 7403,8237 7433,8235 7460,8233 7486,8227 7509,8219 7530,8209 7550,8196 7558,8188 7566,8180 7574,8172 7581,8163 7588,8153 7594,8143 7601,8132 7606,8120 7611,8108 7615,8093 7620,8079 7623,8063 7626,8048 7629,8030 7632,8013 7634,7995 7636,7956 7637,7912 7637,7894 7636,7875 7635,7859 7633,7842 7631,7826 7629,7809 7626,7795 7623,7781 7619,7768 7615,7754 7610,7742 7605,7731 7599,7719 7593,7709 7587,7698 7580,7690 7573,7682 7565,7674 7548,7657 7528,7645 7507,7635 7484,7626 7457,7620 7430,7618 7399,7616 7295,7616 7295,8237 Z M 8013,7598 L 7885,7552 7885,7470 8298,7470 8298,7552 8182,7598 8182,8690 8631,7812 8631,7598 8504,7552 8504,7470 8917,7470 8917,7552 8800,7598 8800,9077 8917,9124 8917,9206 8504,9206 8504,9124 8631,9077 8631,8019 8182,8900 8182,9077 8298,9124 8298,9206 7885,9206 7885,9124 8013,9077 8013,7598 Z M 9008,7598 L 8890,7552 8890,7470 9230,7470 9505,8727 9787,7470 10115,7470 10115,7552 9999,7598 9999,9077 10115,9124 10115,9206 9723,9206 9723,9124 9829,9077 9829,7692 9491,9206 9436,9206 9105,7698 9105,9077 9202,9124 9202,9206 8890,9206 8890,9124 9008,9077 9008,7598 Z M 10664,7598 L 10555,7552 10555,7468 10824,7468 10826,7571 10837,7554 10849,7538 10863,7524 10876,7511 10891,7497 10906,7486 10923,7474 10941,7464 10977,7445 10996,7439 11014,7433 11032,7429 11050,7425 11069,7423 11087,7423 11132,7427 11174,7437 11213,7456 11232,7466 11251,7480 11268,7495 11284,7513 11300,7532 11316,7552 11331,7575 11345,7600 11358,7624 11371,7653 11384,7682 11395,7715 11406,7748 11415,7781 11424,7818 11432,7855 11447,7935 11458,8021 11466,8114 11470,8213 11472,8318 11470,8425 11465,8525 11457,8620 11445,8709 11429,8791 11420,8830 11410,8867 11400,8904 11388,8937 11376,8970 11362,9001 11348,9029 11334,9058 11318,9083 11301,9108 11284,9128 11267,9149 11248,9167 11228,9184 11208,9198 11188,9208 11143,9229 11096,9239 11045,9243 10988,9241 10934,9233 10879,9221 10826,9202 10831,9322 10832,9371 10832,9412 10832,9881 11000,9924 11000,10013 10543,10013 10543,9924 10664,9881 10664,7598 Z M 11288,8318 L 11287,8231 11284,8151 11279,8077 11272,8007 11264,7945 11253,7888 11247,7861 11239,7834 11232,7812 11225,7789 11217,7768 11208,7748 11199,7729 11189,7713 11178,7698 11168,7684 11156,7672 11145,7659 11132,7649 11120,7641 11106,7633 11092,7626 11063,7618 11031,7616 11002,7616 10974,7620 10948,7624 10922,7633 10898,7641 10875,7651 10852,7663 10832,7678 10832,9067 10879,9081 10928,9089 10978,9095 11031,9097 11063,9095 11091,9085 11119,9071 11144,9048 11167,9021 11188,8988 11207,8949 11224,8902 11239,8850 11253,8793 11263,8729 11272,8659 11279,8583 11284,8501 11288,8318 Z M 12415,8328 L 12413,8439 12408,8542 12399,8639 12386,8729 12371,8811 12352,8885 12329,8953 12303,9015 12273,9069 12239,9116 12202,9155 12163,9186 12118,9211 12071,9229 12021,9239 11966,9243 11913,9239 11864,9229 11818,9211 11776,9186 11756,9169 11737,9151 11719,9132 11702,9112 11684,9089 11669,9064 11654,9038 11640,9009 11626,8978 11614,8947 11602,8914 11592,8879 11582,8842 11573,8803 11564,8764 11557,8721 11545,8632 11536,8538 11531,8437 11529,8328 11531,8221 11536,8122 11545,8028 11557,7941 11564,7900 11573,7859 11582,7822 11592,7785 11602,7750 11614,7717 11626,7686 11640,7655 11654,7626 11669,7602 11685,7577 11702,7554 11720,7534 11738,7513 11758,7497 11778,7480 11822,7456 11869,7437 11920,7427 11974,7423 12027,7427 12076,7437 12123,7456 12166,7480 12186,7495 12206,7511 12224,7530 12242,7550 12258,7573 12275,7598 12290,7624 12304,7651 12317,7680 12330,7711 12342,7744 12353,7779 12363,7816 12372,7853 12380,7894 12387,7935 12400,8023 12408,8118 12413,8219 12415,8328 Z M 12231,8328 L 12230,8231 12227,8143 12222,8060 12215,7984 12206,7914 12195,7853 12188,7824 12182,7797 12175,7772 12167,7750 12159,7727 12150,7709 12140,7688 12130,7672 12120,7655 12109,7641 12097,7628 12085,7616 12071,7606 12058,7596 12044,7587 12030,7581 11999,7573 11966,7571 11933,7573 11904,7581 11890,7587 11876,7596 11863,7604 11851,7614 11839,7624 11828,7637 11817,7651 11807,7668 11798,7684 11789,7700 11781,7721 11773,7742 11766,7764 11759,7789 11752,7814 11746,7842 11736,7904 11728,7974 11721,8052 11717,8137 11714,8229 11713,8328 11714,8429 11717,8523 11721,8608 11728,8688 11736,8758 11747,8820 11753,8848 11760,8875 11767,8900 11774,8923 11782,8943 11790,8964 11799,8982 11808,8999 11818,9015 11830,9029 11841,9042 11852,9054 11864,9064 11877,9073 11891,9081 11905,9087 11934,9095 11966,9097 11998,9095 12029,9087 12043,9079 12057,9073 12070,9062 12084,9052 12096,9040 12107,9027 12118,9013 12129,8997 12138,8978 12149,8960 12158,8939 12166,8916 12174,8894 12181,8867 12188,8840 12194,8811 12206,8748 12215,8678 12222,8602 12227,8517 12230,8427 12231,8328 Z M 12556,7598 L 12428,7552 12428,7470 12841,7470 12841,7552 12725,7598 12725,8367 13117,7602 13017,7552 13017,7470 13355,7470 13355,7552 13237,7596 12962,8102 13314,9081 13407,9124 13407,9206 13025,9206 13025,9124 13113,9077 12850,8328 12725,8521 12725,9077 12841,9124 12841,9206 12428,9206 12428,9124 12556,9077 12556,7598 Z M 14162,8328 L 14160,8439 14155,8542 14146,8639 14134,8729 14118,8811 14099,8885 14077,8953 14050,9015 14020,9069 13986,9116 13950,9155 13910,9186 13865,9211 13819,9229 13768,9239 13713,9243 13660,9239 13612,9229 13566,9211 13523,9186 13504,9169 13485,9151 13466,9132 13449,9112 13432,9089 13416,9064 13401,9038 13387,9009 13374,8978 13362,8947 13349,8914 13339,8879 13329,8842 13320,8803 13312,8764 13305,8721 13293,8632 13283,8538 13278,8437 13276,8328 13278,8221 13283,8122 13293,8028 13305,7941 13312,7900 13320,7859 13329,7822 13339,7785 13349,7750 13362,7717 13374,7686 13387,7655 13401,7626 13416,7602 13433,7577 13449,7554 13467,7534 13486,7513 13505,7497 13525,7480 13569,7456 13617,7437 13667,7427 13721,7423 13774,7427 13824,7437 13871,7456 13913,7480 13934,7495 13953,7511 13971,7530 13989,7550 14006,7573 14022,7598 14037,7624 14051,7651 14065,7680 14078,7711 14089,7744 14100,7779 14110,7816 14119,7853 14128,7894 14135,7935 14147,8023 14155,8118 14160,8219 14162,8328 Z M 13978,8328 L 13977,8231 13974,8143 13969,8060 13962,7984 13953,7914 13943,7853 13936,7824 13929,7797 13922,7772 13914,7750 13906,7727 13897,7709 13888,7688 13878,7672 13868,7655 13856,7641 13844,7628 13832,7616 13819,7606 13806,7596 13791,7587 13777,7581 13747,7573 13713,7571 13681,7573 13651,7581 13637,7587 13624,7596 13610,7604 13598,7614 13586,7624 13575,7637 13565,7651 13555,7668 13545,7684 13536,7700 13528,7721 13520,7742 13513,7764 13506,7789 13500,7814 13494,7842 13484,7904 13475,7974 13468,8052 13464,8137 13461,8229 13460,8328 13461,8429 13464,8523 13468,8608 13475,8688 13484,8758 13495,8820 13501,8848 13507,8875 13514,8900 13521,8923 13529,8943 13537,8964 13546,8982 13556,8999 13566,9015 13577,9029 13588,9042 13599,9054 13612,9064 13625,9073 13638,9081 13652,9087 13682,9095 13713,9097 13746,9095 13776,9087 13790,9079 13805,9073 13818,9062 13831,9052 13843,9040 13854,9027 13865,9013 13877,8997 13886,8978 13896,8960 13905,8939 13913,8916 13921,8894 13928,8867 13936,8840 13942,8811 13953,8748 13962,8678 13969,8602 13974,8517 13977,8427 13978,8328 Z M 14276,7598 L 14158,7552 14158,7470 14498,7470 14774,8727 15055,7470 15383,7470 15383,7552 15267,7598 15267,9077 15383,9124 15383,9206 14991,9206 14991,9124 15098,9077 15098,7692 14759,9206 14705,9206 14373,7698 14373,9077 14470,9124 14470,9206 14158,9206 14158,9124 14276,9077 14276,7598 Z M 15763,9036 L 15763,9048 15762,9058 15762,9069 15761,9081 15760,9091 15758,9101 15756,9112 15754,9122 15752,9130 15749,9141 15743,9159 15736,9178 15728,9194 15718,9208 15709,9223 15699,9233 15688,9243 15677,9250 15666,9256 15653,9258 15640,9260 15627,9258 15615,9256 15603,9250 15591,9243 15580,9233 15570,9223 15561,9208 15552,9194 15544,9178 15537,9159 15531,9141 15527,9130 15525,9122 15523,9112 15521,9101 15519,9091 15518,9081 15517,9069 15517,9058 15516,9048 15516,9036 15516,9023 15517,9013 15517,9003 15518,8990 15519,8980 15521,8970 15523,8960 15525,8949 15527,8939 15531,8931 15534,8920 15537,8912 15544,8894 15552,8877 15561,8863 15571,8848 15581,8838 15591,8830 15603,8822 15615,8818 15627,8813 15640,8813 15652,8813 15665,8818 15677,8822 15688,8830 15698,8838 15708,8848 15718,8863 15728,8877 15736,8894 15743,8912 15746,8920 15749,8931 15752,8939 15754,8949 15756,8960 15758,8970 15760,8980 15761,8990 15762,9003 15762,9013 15763,9023 15763,9036 Z M 15528,6727 L 15751,6727 15688,8488 15591,8488 15528,6727 Z M 16382,9036 L 16382,9048 16381,9058 16381,9069 16380,9081 16379,9091 16377,9101 16375,9112 16373,9122 16371,9130 16368,9141 16362,9159 16354,9178 16346,9194 16337,9208 16328,9223 16318,9233 16307,9243 16295,9250 16284,9256 16272,9258 16259,9260 16246,9258 16234,9256 16221,9250 16210,9243 16199,9233 16189,9223 16180,9208 16171,9194 16162,9178 16155,9159 16149,9141 16146,9130 16144,9122 16142,9112 16140,9101 16138,9091 16137,9081 16136,9069 16136,9058 16135,9048 16135,9036 16135,9023 16136,9013 16136,9003 16137,8990 16138,8980 16140,8970 16142,8960 16144,8949 16146,8939 16149,8931 16152,8920 16155,8912 16162,8894 16171,8877 16180,8863 16190,8848 16200,8838 16210,8830 16221,8822 16234,8818 16246,8813 16259,8813 16271,8813 16283,8818 16295,8822 16307,8830 16317,8838 16327,8848 16337,8863 16346,8877 16354,8894 16362,8912 16365,8920 16368,8931 16371,8939 16373,8949 16375,8960 16377,8970 16379,8980 16380,8990 16381,9003 16381,9013 16382,9023 16382,9036 Z M 16147,6727 L 16370,6727 16307,8488 16210,8488 16147,6727 Z M 16999,9036 L 16999,9048 16998,9058 16998,9069 16997,9081 16996,9091 16994,9101 16992,9112 16990,9122 16988,9130 16985,9141 16979,9159 16972,9178 16964,9194 16955,9208 16946,9223 16935,9233 16924,9243 16913,9250 16902,9256 16890,9258 16877,9260 16863,9258 16851,9256 16839,9250 16828,9243 16817,9233 16806,9223 16797,9208 16788,9194 16780,9178 16773,9159 16767,9141 16764,9130 16762,9122 16760,9112 16758,9101 16756,9091 16755,9081 16754,9069 16754,9058 16753,9048 16753,9036 16753,9023 16754,9013 16754,9003 16755,8990 16756,8980 16758,8970 16760,8960 16762,8949 16764,8939 16767,8931 16770,8920 16773,8912 16780,8894 16788,8877 16797,8863 16807,8848 16818,8838 16828,8830 16839,8822 16851,8818 16863,8813 16877,8813 16889,8813 16901,8818 16913,8822 16924,8830 16934,8838 16945,8848 16955,8863 16964,8877 16972,8894 16979,8912 16982,8920 16985,8931 16988,8939 16990,8949 16992,8960 16994,8970 16996,8980 16997,8990 16998,9003 16998,9013 16999,9023 16999,9036 Z M 16765,6727 L 16987,6727 16924,8488 16828,8488 16765,6727 Z"/>
       </g>
      </g>
      <g class="Group">
       <g class="com.sun.star.drawing.CustomShape">
        <g id="id18">
         <rect class="BoundingBox" stroke="none" fill="none" x="2799" y="11199" width="1603" height="2404"/>
         <path fill="rgb(56,142,60)" stroke="none" d="M 3600,11200 L 4400,13601 2800,13601 3600,11200 Z"/>
         <path fill="none" stroke="rgb(52,101,164)" d="M 3600,11200 L 4400,13601 2800,13601 3600,11200 Z"/>
        </g>
       </g>
       <g class="com.sun.star.drawing.CustomShape">
        <g id="id19">
         <rect class="BoundingBox" stroke="none" fill="none" x="2299" y="12599" width="2604" height="3304"/>
         <path fill="rgb(56,142,60)" stroke="none" d="M 3600,12600 L 4901,15901 2300,15901 3600,12600 Z"/>
         <path fill="none" stroke="rgb(52,101,164)" d="M 3600,12600 L 4901,15901 2300,15901 3600,12600 Z"/>
        </g>
       </g>
       <g class="com.sun.star.drawing.CustomShape">
        <g id="id20">
         <rect class="BoundingBox" stroke="none" fill="none" x="1999" y="14299" width="3104" height="4804"/>
         <path fill="rgb(56,142,60)" stroke="none" d="M 3550,14300 L 5101,19101 2000,19101 3550,14300 Z"/>
         <path fill="none" stroke="rgb(52,101,164)" d="M 3550,14300 L 5101,19101 2000,19101 3550,14300 Z"/>
        </g>
       </g>
       <g class="com.sun.star.drawing.CustomShape">
        <g id="id21">
         <rect class="BoundingBox" stroke="none" fill="none" x="3199" y="18599" width="803" height="2003"/>
         <path fill="rgb(56,142,60)" stroke="none" d="M 3600,20600 L 3200,20600 3200,18600 4000,18600 4000,20600 3600,20600 Z"/>
         <path fill="none" stroke="rgb(52,101,164)" d="M 3600,20600 L 3200,20600 3200,18600 4000,18600 4000,20600 3600,20600 Z"/>
        </g>
       </g>
      </g>
      <g class="Group">
       <g class="com.sun.star.drawing.CustomShape">
        <g id="id22">
         <rect class="BoundingBox" stroke="none" fill="none" x="6299" y="11199" width="1603" height="2404"/>
         <path fill="rgb(56,142,60)" stroke="none" d="M 7100,11200 L 7900,13601 6300,13601 7100,11200 Z"/>
         <path fill="none" stroke="rgb(52,101,164)" d="M 7100,11200 L 7900,13601 6300,13601 7100,11200 Z"/>
        </g>
       </g>
       <g class="com.sun.star.drawing.CustomShape">
        <g id="id23">
         <rect class="BoundingBox" stroke="none" fill="none" x="5799" y="12599" width="2604" height="3304"/>
         <path fill="rgb(56,142,60)" stroke="none" d="M 7100,12600 L 8401,15901 5800,15901 7100,12600 Z"/>
         <path fill="none" stroke="rgb(52,101,164)" d="M 7100,12600 L 8401,15901 5800,15901 7100,12600 Z"/>
        </g>
       </g>
       <g class="com.sun.star.drawing.CustomShape">
        <g id="id24">
         <rect class="BoundingBox" stroke="none" fill="none" x="5499" y="14299" width="3104" height="4804"/>
         <path fill="rgb(56,142,60)" stroke="none" d="M 7050,14300 L 8601,19101 5500,19101 7050,14300 Z"/>
         <path fill="none" stroke="rgb(52,101,164)" d="M 7050,14300 L 8601,19101 5500,19101 7050,14300 Z"/>
        </g>
       </g>
       <g class="com.sun.star.drawing.CustomShape">
        <g id="id25">
         <rect class="BoundingBox" stroke="none" fill="none" x="6699" y="18599" width="803" height="2003"/>
         <path fill="rgb(56,142,60)" stroke="none" d="M 7100,20600 L 6700,20600 6700,18600 7500,18600 7500,20600 7100,20600 Z"/>
         <path fill="none" stroke="rgb(52,101,164)" d="M 7100,20600 L 6700,20600 6700,18600 7500,18600 7500,20600 7100,20600 Z"/>
        </g>
       </g>
      </g>
      <g class="Group">
       <g class="com.sun.star.drawing.CustomShape">
        <g id="id26">
         <rect class="BoundingBox" stroke="none" fill="none" x="9799" y="11199" width="1603" height="2404"/>
         <path fill="rgb(56,142,60)" stroke="none" d="M 10600,11200 L 11400,13601 9800,13601 10600,11200 Z"/>
         <path fill="none" stroke="rgb(52,101,164)" d="M 10600,11200 L 11400,13601 9800,13601 10600,11200 Z"/>
        </g>
       </g>
       <g class="com.sun.star.drawing.CustomShape">
        <g id="id27">
         <rect class="BoundingBox" stroke="none" fill="none" x="9299" y="12599" width="2604" height="3304"/>
         <path fill="rgb(56,142,60)" stroke="none" d="M 10600,12600 L 11901,15901 9300,15901 10600,12600 Z"/>
         <path fill="none" stroke="rgb(52,101,164)" d="M 10600,12600 L 11901,15901 9300,15901 10600,12600 Z"/>
        </g>
       </g>
       <g class="com.sun.star.drawing.CustomShape">
        <g id="id28">
         <rect class="BoundingBox" stroke="none" fill="none" x="8999" y="14299" width="3104" height="4804"/>
         <path fill="rgb(56,142,60)" stroke="none" d="M 10550,14300 L 12101,19101 9000,19101 10550,14300 Z"/>
         <path fill="none" stroke="rgb(52,101,164)" d="M 10550,14300 L 12101,19101 9000,19101 10550,14300 Z"/>
        </g>
       </g>
       <g class="com.sun.star.drawing.CustomShape">
        <g id="id29">
         <rect class="BoundingBox" stroke="none" fill="none" x="10199" y="18599" width="803" height="2003"/>
         <path fill="rgb(56,142,60)" stroke="none" d="M 10600,20600 L 10200,20600 10200,18600 11000,18600 11000,20600 10600,20600 Z"/>
         <path fill="none" stroke="rgb(52,101,164)" d="M 10600,20600 L 10200,20600 10200,18600 11000,18600 11000,20600 10600,20600 Z"/>
        </g>
       </g>
      </g>
      <g class="Group">
       <g class="com.sun.star.drawing.CustomShape">
        <g id="id30">
         <rect class="BoundingBox" stroke="none" fill="none" x="13299" y="11199" width="1603" height="2404"/>
         <path fill="rgb(56,142,60)" stroke="none" d="M 14100,11200 L 14900,13601 13300,13601 14100,11200 Z"/>
         <path fill="none" stroke="rgb(52,101,164)" d="M 14100,11200 L 14900,13601 13300,13601 14100,11200 Z"/>
        </g>
       </g>
       <g class="com.sun.star.drawing.CustomShape">
        <g id="id31">
         <rect class="BoundingBox" stroke="none" fill="none" x="12799" y="12599" width="2604" height="3304"/>
         <path fill="rgb(56,142,60)" stroke="none" d="M 14100,12600 L 15401,15901 12800,15901 14100,12600 Z"/>
         <path fill="none" stroke="rgb(52,101,164)" d="M 14100,12600 L 15401,15901 12800,15901 14100,12600 Z"/>
        </g>
       </g>
       <g class="com.sun.star.drawing.CustomShape">
        <g id="id32">
         <rect class="BoundingBox" stroke="none" fill="none" x="12499" y="14299" width="3104" height="4804"/>
         <path fill="rgb(56,142,60)" stroke="none" d="M 14050,14300 L 15601,19101 12500,19101 14050,14300 Z"/>
         <path fill="none" stroke="rgb(52,101,164)" d="M 14050,14300 L 15601,19101 12500,19101 14050,14300 Z"/>
        </g>
       </g>
       <g class="com.sun.star.drawing.CustomShape">
        <g id="id33">
         <rect class="BoundingBox" stroke="none" fill="none" x="13699" y="18599" width="803" height="2003"/>
         <path fill="rgb(56,142,60)" stroke="none" d="M 14100,20600 L 13700,20600 13700,18600 14500,18600 14500,20600 14100,20600 Z"/>
         <path fill="none" stroke="rgb(52,101,164)" d="M 14100,20600 L 13700,20600 13700,18600 14500,18600 14500,20600 14100,20600 Z"/>
        </g>
       </g>
      </g>
      <g class="Group">
       <g class="com.sun.star.drawing.CustomShape">
        <g id="id34">
         <rect class="BoundingBox" stroke="none" fill="none" x="16799" y="11199" width="1603" height="2404"/>
         <path fill="rgb(56,142,60)" stroke="none" d="M 17600,11200 L 18400,13601 16800,13601 17600,11200 Z"/>
         <path fill="none" stroke="rgb(52,101,164)" d="M 17600,11200 L 18400,13601 16800,13601 17600,11200 Z"/>
        </g>
       </g>
       <g class="com.sun.star.drawing.CustomShape">
        <g id="id35">
         <rect class="BoundingBox" stroke="none" fill="none" x="16299" y="12599" width="2604" height="3304"/>
         <path fill="rgb(56,142,60)" stroke="none" d="M 17600,12600 L 18901,15901 16300,15901 17600,12600 Z"/>
         <path fill="none" stroke="rgb(52,101,164)" d="M 17600,12600 L 18901,15901 16300,15901 17600,12600 Z"/>
        </g>
       </g>
       <g class="com.sun.star.drawing.CustomShape">
        <g id="id36">
         <rect class="BoundingBox" stroke="none" fill="none" x="15999" y="14299" width="3104" height="4804"/>
         <path fill="rgb(56,142,60)" stroke="none" d="M 17550,14300 L 19101,19101 16000,19101 17550,14300 Z"/>
         <path fill="none" stroke="rgb(52,101,164)" d="M 17550,14300 L 19101,19101 16000,19101 17550,14300 Z"/>
        </g>
       </g>
       <g class="com.sun.star.drawing.CustomShape">
        <g id="id37">
         <rect class="BoundingBox" stroke="none" fill="none" x="17199" y="18599" width="803" height="2003"/>
         <path fill="rgb(56,142,60)" stroke="none" d="M 17600,20600 L 17200,20600 17200,18600 18000,18600 18000,20600 17600,20600 Z"/>
         <path fill="none" stroke="rgb(52,101,164)" d="M 17600,20600 L 17200,20600 17200,18600 18000,18600 18000,20600 17600,20600 Z"/>
        </g>
       </g>
      </g>
     </g>
    </g>
   </g>
  </g>
 </g>
</svg>