<?xml version="1.0" encoding="UTF-8" standalone="no"?>
<!-- Created with Inkscape (http://www.inkscape.org/) -->

<svg
   width="210mm"
   height="297mm"
   viewBox="0 0 210 297"
   version="1.1"
   id="svg933"
   inkscape:version="1.1 (1:1.1+202106031931+af4d65493e)"
   sodipodi:docname="mediator.svg"
   xmlns:inkscape="http://www.inkscape.org/namespaces/inkscape"
   xmlns:sodipodi="http://sodipodi.sourceforge.net/DTD/sodipodi-0.dtd"
   xmlns:xlink="http://www.w3.org/1999/xlink"
   xmlns="http://www.w3.org/2000/svg"
   xmlns:svg="http://www.w3.org/2000/svg">
  <sodipodi:namedview
     id="namedview935"
     pagecolor="#ffffff"
     bordercolor="#666666"
     borderopacity="1.0"
     inkscape:pageshadow="2"
     inkscape:pageopacity="0.0"
     inkscape:pagecheckerboard="0"
     inkscape:document-units="mm"
     showgrid="false"
     inkscape:zoom="0.96568463"
     inkscape:cx="386.77223"
     inkscape:cy="246.45727"
     inkscape:window-width="1366"
     inkscape:window-height="717"
     inkscape:window-x="0"
     inkscape:window-y="27"
     inkscape:window-maximized="1"
     inkscape:current-layer="layer1" />
  <defs
     id="defs930">
    <inkscape:path-effect
       effect="skeletal"
       id="path-effect11242"
       is_visible="true"
       lpeversion="1"
       pattern="#path11087"
       copytype="repeated_stretched"
       prop_scale="1"
       scale_y_rel="true"
       spacing="0"
       normal_offset="0"
       tang_offset="0"
       prop_units="false"
       vertical_pattern="false"
       hide_knot="false"
       fuse_tolerance="0" />
    <inkscape:path-effect
       effect="skeletal"
       id="path-effect11200"
       is_visible="true"
       lpeversion="1"
       pattern="m 27.630978,57.246753 c 0,-0.525573 -0.483566,-0.951633 -1.080076,-0.951633 -0.596509,0 -1.080076,0.42606 -1.080076,0.951633 0,0.525571 0.483567,0.951633 1.080076,0.951633 0.59651,0 1.080076,-0.426062 1.080076,-0.951633 z"
       copytype="repeated_stretched"
       prop_scale="1.04"
       scale_y_rel="false"
       spacing="1.7"
       normal_offset="0"
       tang_offset="0"
       prop_units="true"
       vertical_pattern="false"
       hide_knot="true"
       fuse_tolerance="2" />
    <inkscape:path-effect
       effect="skeletal"
       id="path-effect11178"
       is_visible="true"
       lpeversion="1"
       pattern="#path11087"
       copytype="repeated_stretched"
       prop_scale="1"
       scale_y_rel="true"
       spacing="0"
       normal_offset="0"
       tang_offset="0"
       prop_units="false"
       vertical_pattern="false"
       hide_knot="false"
       fuse_tolerance="0" />
    <inkscape:path-effect
       effect="skeletal"
       id="path-effect2444"
       is_visible="true"
       lpeversion="1"
       pattern="m 1.6010343,-0.46785187 h 1"
       copytype="repeated_stretched"
       prop_scale="1"
       scale_y_rel="false"
       spacing="0"
       normal_offset="0"
       tang_offset="0"
       prop_units="false"
       vertical_pattern="false"
       hide_knot="false"
       fuse_tolerance="0" />
    <linearGradient
       id="linearGradient3424"
       inkscape:swatch="solid">
      <stop
         style="stop-color:#000000;stop-opacity:1;"
         offset="0"
         id="stop3422" />
    </linearGradient>
    <linearGradient
       id="linearGradient4228"
       inkscape:swatch="solid">
      <stop
         style="stop-color:#000000;stop-opacity:1;"
         offset="0"
         id="stop4226" />
    </linearGradient>
    <pattern
       inkscape:collect="always"
       xlink:href="#pattern4011"
       id="pattern4223"
       patternTransform="matrix(0.3989548,0,0,0.36608451,2.1684301e-6,-9.5946112e-6)" />
    <linearGradient
       id="linearGradient4216"
       inkscape:swatch="solid">
      <stop
         style="stop-color:#000000;stop-opacity:1;"
         offset="0"
         id="stop4214" />
    </linearGradient>
    <linearGradient
       id="linearGradient4109"
       inkscape:swatch="solid">
      <stop
         style="stop-color:#db0000;stop-opacity:1;"
         offset="0"
         id="stop4107" />
    </linearGradient>
    <linearGradient
       id="linearGradient3441"
       inkscape:swatch="solid">
      <stop
         style="stop-color:#ff6800;stop-opacity:1;"
         offset="0"
         id="stop3439" />
    </linearGradient>
    <pattern
       patternUnits="userSpaceOnUse"
       width="36.388111"
       height="60.031466"
       patternTransform="translate(376.19604,209.43499)"
       id="pattern4011">
      <rect
         style="fill:none;stroke:#000000;stroke-width:2.7941;stroke-opacity:1;paint-order:fill markers stroke"
         id="rect2011"
         width="32.305305"
         height="32.305305"
         x="18.946745"
         y="-16.152651"
         transform="matrix(0.51835802,0.8551637,-0.51835802,0.8551637,0,0)" />
    </pattern>
    <pattern
       patternUnits="userSpaceOnUse"
       width="14.517213"
       height="21.976589"
       patternTransform="translate(442.11156,339.60081)"
       id="pattern3431">
      <rect
         style="fill:url(#pattern4223);stroke:none;stroke-width:0.382167"
         width="14.517213"
         height="21.976589"
         x="0"
         y="0"
         id="rect4014" />
    </pattern>
    <inkscape:path-effect
       effect="fill_between_many"
       method="originald"
       linkedpaths="#path1981-3,0,1|#path1981,0,1"
       id="path-effect1823" />
  </defs>
  <g
     inkscape:label="Слой 1"
     inkscape:groupmode="layer"
     id="layer1"
     style="display:inline">
    <path
       id="path3370"
       style="fill:none;stroke:#000000;stroke-width:0.653496;paint-order:fill markers stroke"
       inkscape:transform-center-x="0.044632444"
       inkscape:transform-center-y="-15.809744"
       d="m 96.243355,33.365423 c -0.01028,0.546562 0.46612,0.998621 1.063584,1.01019 0.597319,0.01157 1.090791,-0.421618 1.101911,-0.968066 0.01112,-0.546481 -0.46513,-0.999405 -1.063537,-1.011023 -0.598511,-0.01162 -1.09168,0.422393 -1.101958,0.968899 z m -5.847033,-0.114437 c -0.01211,0.546483 0.463548,1.000315 1.062224,1.012727 0.598889,0.01242 1.092537,-0.421223 1.103271,-0.967729 0.01074,-0.546557 -0.465187,-0.999 -1.062271,-1.01136 -0.597297,-0.01237 -1.091109,0.419882 -1.103224,0.966362 z m -5.845154,-0.166161 c -0.01995,0.546179 0.44999,1.006866 1.049497,1.026682 0.599505,0.01981 1.098635,-0.408724 1.114982,-0.955046 0.01635,-0.546319 -0.453732,-1.003442 -1.049637,-1.023115 -0.595906,-0.01967 -1.094894,0.405302 -1.114842,0.951479 z m -5.84079,-0.281194 c -0.03313,0.545797 0.426339,1.017895 1.02593,1.05134 0.113072,0.0063 0.22297,-0.0034 0.327032,-0.02704 0,0 10e-7,0 10e-7,0 0.448626,-0.101576 0.787053,-0.460133 0.809741,-0.90312 0.02268,-0.442836 -0.276471,-0.834019 -0.706373,-0.983457 0,0 0,0 0,0 -0.100108,-0.0348 -0.207403,-0.05655 -0.319568,-0.06288 -0.594814,-0.03353 -1.10363,0.379358 -1.136763,0.925152 z m -5.833991,-0.445975 c -0.05159,0.544432 0.392881,1.032301 0.992954,1.08473 0.600071,0.05243 1.122147,-0.350883 1.165955,-0.896092 0.04381,-0.545208 -0.401434,-1.02537 -0.993724,-1.077021 -0.59229,-0.05165 -1.113595,0.343953 -1.165185,0.888383 z m -5.806916,-0.686854 c -0.07816,0.540736 0.342662,1.049684 0.940665,1.129976 0.598002,0.08029 1.137932,-0.299625 1.205308,-0.842001 0.06737,-0.542374 -0.355077,-1.040638 -0.942291,-1.119289 -0.587215,-0.07865 -1.125519,0.290581 -1.203682,0.831314 z m -5.75489,-1.014546 c -0.11285,0.534706 0.275681,1.070041 0.869063,1.187074 0.59338,0.117034 1.155675,-0.230398 1.254732,-0.767609 0.09906,-0.537209 -0.291957,-1.058883 -0.871544,-1.173412 -0.579588,-0.114529 -1.1394,0.219242 -1.252251,0.753947 z m -5.690894,-1.43949 c -0.160517,0.525731 0.184773,1.098551 0.774213,1.265317 0.589439,0.166766 1.182376,-0.139929 1.32213,-0.671695 0.139754,-0.531764 -0.211515,-1.084019 -0.780191,-1.244749 -0.568677,-0.160731 -1.155636,0.125398 -1.316152,0.651127 z M 50.16136,27.121479 c -0.235874,0.490899 0.02114,1.106927 0.583164,1.355451 0.562023,0.248524 1.190331,0.02305 1.395011,-0.483898 0.20468,-0.506952 -0.06824,-1.092082 -0.599068,-1.32455 -0.52381,-0.229395 -1.143572,-0.0372 -1.379107,0.452997 z m -4.944843,-3.052223 c -0.129265,0.162934 -0.193887,0.357433 -0.194452,0.558878 -0.0014,0.327941 0.167303,0.668675 0.481863,0.893596 0.512932,0.366766 1.167988,0.263047 1.465286,-0.191319 0.297768,-0.455086 0.15003,-1.07614 -0.313351,-1.411162 -0.285942,-0.206734 -0.637379,-0.262196 -0.946619,-0.174556 -0.189002,0.05404 -0.363741,0.16198 -0.492727,0.324563 z M 41.310438,19.75644 c -0.464221,0.28676 -0.571448,0.961698 -0.199243,1.477021 0.372204,0.515322 1.044737,0.62452 1.464418,0.274761 0.419678,-0.349758 0.4645,-0.980576 0.136836,-1.432899 -0.327664,-0.452324 -0.937792,-0.605642 -1.402011,-0.318883 z M 39.33621,14.299983 c -0.540681,0.08294 -0.904765,0.660294 -0.764985,1.280777 0.13978,0.620481 0.71655,0.987105 1.239331,0.830051 0.522779,-0.157054 0.81345,-0.716675 0.691569,-1.263045 -0.12188,-0.546371 -0.625236,-0.930725 -1.165915,-0.847783 z M 39.469395,8.49152 c -0.53575,-0.1015657 -1.066853,0.3124158 -1.149762,0.9338908 -0.08291,0.6214742 0.3225,1.1644002 0.865537,1.2034462 0.543035,0.03905 1.012209,-0.382155 1.087831,-0.9411098 C 40.348622,9.1287916 40.005142,8.5930853 39.469395,8.49152 Z m 1.644003,-5.6240292 c -0.51415,-0.1845287 -1.101071,0.1222733 -1.301501,0.7010256 -0.199613,0.5763921 0.07216,1.1879785 0.595244,1.3566054 0.522484,0.1684333 1.094892,-0.1532562 1.285279,-0.7085668 0.191313,-0.5580144 -0.0639,-1.1641875 -0.579022,-1.3490642 z m 2.160801,-5.4316271 c -0.500834,-0.2187518 -1.103413,0.052344 -1.338945,0.6088921 -0.235532,0.5565474 -0.0106,1.17825982 0.495125,1.38515709 0.505724,0.20689648 1.096562,-0.0690449 1.327202,-0.61373779 0.230641,-0.5446938 0.01745,-1.1615605 -0.483382,-1.3803114 z m 2.479622,-5.2967857 c -0.489914,-0.2428761 -1.104318,-0.00269 -1.367959,0.5391069 -0.263642,0.5417922 -0.07346,1.1739414 0.420107,1.409224 0.493567,0.2352817 1.100451,-0.00853 1.360437,-0.5427276 0.259987,-0.5341996 0.07733,-1.1627281 -0.412585,-1.4056033 z m 2.680649,-5.197337 c -0.482019,-0.257545 -1.102579,-0.03689 -1.382999,0.494544 -0.280419,0.531436 -0.112271,1.16832 0.372477,1.420804 0.484745,0.252483 1.100295,0.02913 1.377986,-0.497247 0.277692,-0.526377 0.114554,-1.160558 -0.367464,-1.418101 z m 2.825252,-5.118473 c -0.474897,-0.270423 -1.101031,-0.0667 -1.395709,0.456664 -0.294677,0.523359 -0.144178,1.164414 0.333315,1.4302 0.477492,0.265786 1.099035,0.05949 1.391116,-0.459236 0.29208,-0.518723 0.146173,-1.157205 -0.328722,-1.427628 z m 2.956929,-5.044159 c -0.468127,-0.28216 -1.09911,-0.09412 -1.406796,0.421553 -0.307686,0.515669 -0.173535,1.160283 0.297058,1.438229 0.470591,0.277946 1.097402,0.08746 1.402622,-0.423996 0.30522,-0.511456 0.175242,-1.153627 -0.292884,-1.435786 z m 3.076385,-4.973633 c -0.461712,-0.292755 -1.096817,-0.119154 -1.416261,0.389213 -0.319444,0.508366 -0.200342,1.155926 0.263705,1.44489 0.464045,0.288963 1.095397,0.11305 1.412506,-0.391526 0.31711,-0.504576 0.20176,-1.149824 -0.25995,-1.442577 z m 3.183617,-4.906894 c -0.455651,-0.302206 -1.094151,-0.141809 -1.424103,0.359642 -0.329952,0.501451 -0.224598,1.151345 0.233257,1.450184 0.457852,0.298838 1.093019,0.136259 1.420767,-0.361825 0.327749,-0.498084 0.225728,-1.145795 -0.229921,-1.448001 z m 3.278627,-4.84394 c -0.449944,-0.310516 -1.091113,-0.162083 -1.430323,0.332841 -0.33921,0.494923 -0.246304,1.146539 0.205713,1.45411 0.452014,0.307571 1.090269,0.157084 1.427406,-0.334894 0.337138,-0.491979 0.247146,-1.141543 -0.202796,-1.452057 z m 3.36179,-4.786026 c -0.444914,-0.31795 -1.088537,-0.179954 -1.435771,0.309278 -0.347233,0.489232 -0.265172,1.142131 0.181532,1.457288 0.446703,0.315156 1.087562,0.175388 1.433005,-0.311052 0.345442,-0.48644 0.266145,-1.137566 -0.178766,-1.455514 z m 3.446543,-4.728637 c -0.438742,-0.326632 -1.085389,-0.200937 -1.442146,0.282247 -0.356757,0.483183 -0.286528,1.138075 0.154727,1.461297 0.441253,0.32322 1.084524,0.195036 1.438768,-0.284737 0.354244,-0.479773 0.287392,-1.132175 -0.151349,-1.458807 z m 3.548379,-4.65218 c -0.430621,-0.336987 -1.080193,-0.226675 -1.448302,0.248327 -0.368109,0.475001 -0.312774,1.13151 0.121082,1.464467 0.433854,0.332955 1.079437,0.21944 1.44431,-0.251532 0.364874,-0.470973 0.313529,-1.124277 -0.11709,-1.461262 z m 3.668085,-4.554863 c -0.42055,-0.349011 -1.072948,-0.257168 -1.454237,0.207519 -0.381288,0.464686 -0.34391,1.122436 0.0806,1.466799 0.424505,0.344361 1.072301,0.248598 1.449632,-0.21144 0.377331,-0.460039 0.344555,-1.113869 -0.07599,-1.462878 z m 3.805664,-4.436685 c -0.408528,-0.362706 -1.063654,-0.292414 -1.45995,0.159824 -0.396295,0.452237 -0.379936,1.110853 0.03327,1.468292 0.413207,0.357437 1.063117,0.28251 1.454733,-0.16446 0.391617,-0.446971 0.380473,-1.100952 -0.02805,-1.463656 z m 3.961117,-4.297646 c -0.394557,-0.378071 -1.052311,-0.332415 -1.465443,0.105241 -0.413131,0.437654 -0.420854,1.096761 -0.0209,1.468947 0.399958,0.372184 1.051884,0.321177 1.459613,-0.110592 0.40773,-0.431769 0.421281,-1.085526 0.02672,-1.463596 z m 4.141755,-4.132291 c -0.375372,-0.398072 -1.037612,-0.384186 -1.47268,0.03642 -0.435067,0.420602 -0.471079,1.080965 -0.08652,1.470209 0.384556,0.389243 1.038055,0.366257 1.463935,-0.04552 0.425882,-0.411775 0.470637,-1.063039 0.09527,-1.461109 z m 4.42508,-3.818838 c -0.33466,-0.431493 -0.997297,-0.479156 -1.470398,-0.0958 -0.4731,0.383352 -0.56341,1.040669 -0.210965,1.458152 0.352444,0.417482 1.001205,0.447528 1.45652,0.07819 0.455315,-0.369342 0.559501,-1.009042 0.224843,-1.440533 z m 4.873557,-3.216472 c -0.249817,-0.485734 -0.90712,-0.648307 -1.446655,-0.335316 -0.54727,0.317479 -0.72121,0.960362 -0.427182,1.420627 0.294525,0.461042 0.927372,0.579328 1.422198,0.291026 0.484183,-0.2821 0.700818,-0.891846 0.451639,-1.376337 z m 5.59496,-1.265983 c 0.0981,-0.505368 -0.28016,-1.041061 -1.00068,-1.086796 -0.0284,-0.0012 -0.057,-0.0014 -0.0858,-7.89e-4 -0.73,0.01646 -1.15341,0.56331 -1.05959,1.093928 0.0949,0.53691 0.58759,0.884804 1.08737,0.883701 0.0207,-4.6e-5 0.0412,-7.03e-4 0.0615,-0.002 0.40831,-0.04181 0.89852,-0.379998 0.99718,-0.888088 z m 5.18696,2.619395 c 0.32102,-0.441401 0.18742,-1.093921 -0.33919,-1.444461 -0.51953,-0.345835 -1.18691,-0.223675 -1.46547,0.246284 -0.27768,0.468452 -0.0992,1.090481 0.36643,1.401653 0.47632,0.318323 1.11645,0.238969 1.43823,-0.203476 z m 4.47458,3.753992 c 0.37512,-0.397507 0.3215,-1.058746 -0.12927,-1.467819 -0.45078,-0.409072 -1.115,-0.398826 -1.47357,0.01308 -0.35857,0.411905 -0.2907,1.056756 0.14353,1.451428 0.43423,0.394674 1.08419,0.400816 1.45931,0.0033 z m 4.0922,4.182148 c 0.40229,-0.370167 0.39992,-1.029404 -0.0143,-1.47177 -0.41292,-0.440971 -1.07308,-0.488369 -1.46838,-0.109956 -0.39529,0.378411 -0.38344,1.031737 0.0223,1.464644 0.40573,0.432908 1.0579,0.487429 1.46039,0.117082 z m 3.87324,4.379104 c 0.41608,-0.354062 0.43769,-1.012718 0.0447,-1.468232 -0.39302,-0.455514 -1.04789,-0.53064 -1.45904,-0.170767 -0.41115,0.359873 -0.427,1.013648 -0.0389,1.463351 0.3881,0.449704 1.03721,0.529709 1.45328,0.175648 z m 3.70892,4.517363 c 0.42809,-0.339583 0.47253,-0.996853 0.0961,-1.465566 -0.37647,-0.468712 -1.0279,-0.567152 -1.45177,-0.222413 -0.42386,0.344739 -0.46319,0.997822 -0.0909,1.461378 0.37225,0.463556 1.01857,0.566182 1.44666,0.226601 z m 3.56344,4.635759 c 0.43821,-0.326868 0.50238,-0.982508 0.14053,-1.462352 -0.36185,-0.479844 -1.00988,-0.598492 -1.44456,-0.26712 -0.43468,0.33137 -0.49439,0.983516 -0.13607,1.458856 0.35832,0.475341 1.00189,0.597482 1.4401,0.270616 z m 3.43685,4.733941 c 0.44645,-0.315919 0.52726,-0.969683 0.17809,-1.458592 -0.34916,-0.488907 -0.99382,-0.624655 -1.43743,-0.304887 -0.44362,0.319767 -0.52061,0.970731 -0.17428,1.455789 0.34633,0.485059 0.98718,0.623607 1.43362,0.30769 z m 3.32916,4.81191 c 0.45278,-0.306734 0.54713,-0.958379 0.20873,-1.454284 -0.33841,-0.495904 -0.97973,-0.645646 -1.43039,-0.335716 -0.45066,0.309929 -0.54184,0.959467 -0.20557,1.452175 0.33628,0.492709 0.97444,0.644558 1.42723,0.337825 z m 3.24026,4.869857 c 0.42399,-0.277316 0.54537,-0.854872 0.29802,-1.337316 0,0 0,0 0,0 -0.0195,-0.0381 -0.0413,-0.0756 -0.0655,-0.112304 -0.32958,-0.500833 -0.96761,-0.661462 -1.42342,-0.359605 -0.45581,0.301856 -0.55808,0.949722 -0.22993,1.448013 0.024,0.03651 0.0497,0.07121 0.0769,0.104056 0,0 0,1e-6 0,1e-6 0.34317,0.415316 0.91998,0.534443 1.34393,0.257155 z m 3.15948,4.922094 c 0.46273,-0.291232 0.57886,-0.939162 0.25749,-1.445931 -0.32137,-0.506767 -0.95691,-0.677971 -1.41765,-0.383647 -0.46074,0.294322 -0.57381,0.940286 -0.25443,1.443962 0.31939,0.503676 0.95186,0.676848 1.41459,0.385616 z m 3.06787,4.980184 c 0.46833,-0.282088 0.59708,-0.927752 0.28542,-1.440793 -0.31166,-0.51304 -0.94398,-0.696331 -1.4102,-0.410721 -0.46621,0.285609 -0.59147,0.929182 -0.28192,1.4387 0.30955,0.509518 0.93837,0.6949 1.4067,0.412814 z m 2.96381,5.041878 c 0.47427,-0.271779 0.61695,-0.914533 0.31626,-1.434215 -0.30068,-0.519682 -0.92902,-0.716302 -1.40104,-0.440569 -0.47203,0.275731 -0.61079,0.91627 -0.31235,1.431998 0.29845,0.515729 0.92287,0.714564 1.39713,0.442786 z m 2.84731,5.107178 c 0.48053,-0.260307 0.63844,-0.899505 0.35001,-1.426197 -0.28842,-0.526692 -0.91202,-0.737884 -1.3902,-0.473192 -0.47817,0.26469 -0.63174,0.90155 -0.34567,1.423857 0.28606,0.522308 0.90532,0.735839 1.38586,0.475532 z m 2.71834,5.176085 c 0.48714,-0.247671 0.66159,-0.882669 0.38669,-1.416741 -0.2749,-0.534071 -0.893,-0.761077 -1.37766,-0.50859 -0.48466,0.252486 -0.65434,0.885023 -0.38192,1.414278 0.27241,0.529256 0.88574,0.758724 1.37289,0.511053 z m 2.57695,5.248701 c 0.49421,-0.2338205 0.68646,-0.8642486 0.42628,-1.405974 -0.0186,-0.03875 -0.039,-0.07599 -0.0611,-0.111642 0,0 0,0 0,0 -0.28607,-0.46286 -0.84605,-0.657109 -1.30237,-0.435096 -0.45632,0.222013 -0.6501,0.779132 -0.46956,1.2869141 0,0 0,0 0,0 0.0139,0.039132 0.03,0.07798 0.0485,0.1163708 0.25744,0.5366812 0.86406,0.7832466 1.35826,0.5494271 z m 2.39851,5.3346277 c 0.50353,-0.2127478 0.72182,-0.8360559 0.48197,-1.3894298 -0.23985,-0.5533731 -0.84369,-0.8199699 -1.34344,-0.5981492 -0.49974,0.2218198 -0.70904,0.8413792 -0.47298,1.3856794 0.23606,0.544301 0.83091,0.8146465 1.33445,0.6018996 z m 2.11487,5.4496061 c 0.5157,-0.1807984 0.77197,-0.7906838 0.56436,-1.3588079 -0.20762,-0.56812313 -0.79634,-0.8687916 -1.3072,-0.6748919 -0.51086,0.19389896 -0.75416,0.79899557 -0.55138,1.3540174 0.20278,0.5550228 0.77853,0.8604802 1.29422,0.6796824 z m 1.70859,5.6064143 c 0.53278,-0.1262643 0.85131,-0.7170002 0.69151,-1.3115561 -0.1598,-0.5945549 -0.72985,-0.9433212 -1.25621,-0.7869451 -0.52637,0.1563755 -0.81507,0.7407535 -0.66169,1.3051966 0.15142,0.5572178 0.69473,0.919302 1.22639,0.7933046 z m 0.62511,5.7849029 c 0.44753,0.02283 0.84301,-0.288843 0.96764,-0.768732 0,0 0,0 0,0 0.027,-0.104784 0.0404,-0.216191 0.038,-0.331246 -0.0135,-0.644701 -0.49852,-1.103287 -1.04012,-1.061205 -0.54297,0.04219 -0.94407,0.533089 -0.93638,1.09589 0.001,0.102457 0.0164,0.201213 0.0432,0.294751 0,0 0,0 0,0 0.1198,0.410988 0.48274,0.747841 0.9277,0.770542 z m -1.43074,5.626127 c 0.48962,0.241248 1.12061,-0.029 1.35657,-0.624178 0.23596,-0.595176 -0.0383,-1.222736 -0.55996,-1.383799 -0.52171,-0.161063 -1.07327,0.140975 -1.27714,0.655966 -0.20387,0.514992 -0.009,1.110764 0.48053,1.352011 z m -3.56722,4.581884 c 0.36533,0.407821 1.04493,0.399687 1.48909,-0.05027 0.44417,-0.449956 0.44477,-1.131185 0.0329,-1.489361 -0.41072,-0.357173 -1.0527,-0.293462 -1.43992,0.09637 -0.39762,0.400312 -0.4474,1.035438 -0.0821,1.443258 z m -4.8115,3.284583 c 0.25567,0.47982 0.90334,0.636698 1.43594,0.328114 0.53261,-0.308583 0.71902,-0.950529 0.42761,-1.410851 -0.2914,-0.46032 -0.91976,-0.581795 -1.41663,-0.29271 -0.49686,0.289086 -0.70258,0.895629 -0.44692,1.375447 z m -5.35752,2.287828 c 0.17616,0.518274 0.78936,0.779483 1.36365,0.566755 0.57429,-0.212727 0.87018,-0.809809 0.66747,-1.316255 -0.20246,-0.50582 -0.81017,-0.739163 -1.35194,-0.54045 -0.54773,0.2009 -0.85534,0.771677 -0.67918,1.28995 z m -5.65815,1.569854 c 0.12138,0.535714 0.6986,0.863582 1.29523,0.718773 0.59331,-0.144003 0.96022,-0.701427 0.8214,-1.233289 -0.13882,-0.53186 -0.71518,-0.84141 -1.29111,-0.701564 -0.57594,0.139845 -0.94697,0.680062 -0.82552,1.21608 z m -5.75089,1.108342 c 0.0873,0.539321 0.64115,0.899054 1.23625,0.796205 0.5951,-0.102849 0.99633,-0.627946 0.89711,-1.165388 -0.0992,-0.53744 -0.65124,-0.885332 -1.23439,-0.784362 -0.58314,0.10097 -0.98623,0.614226 -0.89897,1.153545 z m -5.79258,0.777351 c 0.059,0.543286 0.59266,0.93139 1.19133,0.860914 0.59866,-0.07048 1.02774,-0.571941 0.95893,-1.113947 -0.0688,-0.542004 -0.60115,-0.920443 -1.19006,-0.851247 -0.58891,0.0692 -1.01925,0.560996 -0.9602,1.10428 z m -5.82635,0.507239 c 0.0368,0.545634 0.55348,0.955534 1.15394,0.910939 0.60047,-0.04459 1.05113,-0.526378 1.00681,-1.071331 -0.0443,-0.544951 -0.56037,-0.947363 -1.15327,-0.903449 -0.59291,0.04391 -1.04425,0.518209 -1.00748,1.063841 z m -5.84282,0.300603 c 0.0204,0.546364 0.5236,0.971486 1.12409,0.946281 0.6005,-0.0252 1.06652,-0.49126 1.04074,-1.037542 -0.0258,-0.546281 -0.52889,-0.966092 -1.12402,-0.940969 -0.59513,0.02512 -1.06123,0.485867 -1.04081,1.03223 z m -5.8456,0.148331 c 0.008,0.546491 0.50017,0.983014 1.10036,0.97229 0.60018,-0.01072 1.077,-0.464651 1.06491,-1.011067 -0.0121,-0.546414 -0.50461,-0.978472 -1.10028,-0.967822 -0.59567,0.01065 -1.07256,0.46011 -1.06499,1.006599 z m -5.84734,0.02521 c -0.002,0.546599 0.4819,0.991914 1.08161,0.992692 0.5997,7.77e-4 1.08516,-0.443335 1.0842,-0.98991 -9.7e-4,-0.546573 -0.48515,-0.988662 -1.08159,-0.989463 -0.59644,-8.02e-4 -1.08193,0.440084 -1.08422,0.986681 z m -5.84777,-0.06221 c -0.009,0.546571 0.46964,0.997568 1.06871,1.006148 0.59907,0.0086 1.09032,-0.428605 1.09709,-0.975203 0.007,-0.546595 -0.47167,-0.995606 -1.06874,-1.004159 -0.59706,-0.0086 -1.08828,0.426646 -1.09706,0.973214 z"
       sodipodi:nodetypes="asssa"
       inkscape:path-effect="#path-effect11200"
       inkscape:original-d="m 98.40885,33.407547 c -21.388825,-0.435241 -59.338018,-2.2e-4 -59.264391,-21.712202 0.06377,-18.8054054 48.196915,-89.600865 64.438821,-89.629678 14.19151,-0.02519 60.12426,70.6784698 60.10535,90.484857 -0.0208,21.764521 -42.13951,21.327907 -65.27978,20.857023 z" />
    <path
       style="fill:none;fill-opacity:1;stroke:#000000;stroke-width:0.813602;stroke-opacity:1;paint-order:fill markers stroke"
       id="path11087"
       inkscape:path-effect="#path-effect11178"
       sodipodi:type="arc"
       sodipodi:cx="106.55425"
       sodipodi:cy="46.428013"
       sodipodi:rx="4.3128242"
       sodipodi:ry="4.3128242"
       d="m 110.86708,46.428013 c 0,2.381907 -1.93092,4.312824 -4.31283,4.312824 -2.3819,0 -4.31282,-1.930917 -4.31282,-4.312824 0,-2.381907 1.93092,-4.312824 4.31282,-4.312824 2.38191,0 4.31283,1.930917 4.31283,4.312824 z" />
  </g>
  <g
     inkscape:groupmode="layer"
     id="layer2"
     inkscape:label="Слой 2"
     style="display:inline">
    <path
       id="path1981"
       style="fill:none;stroke:#000000;stroke-width:1.065;stroke-linecap:butt;stroke-linejoin:miter;stroke-miterlimit:4;stroke-dasharray:none;stroke-dashoffset:0;stroke-opacity:1"
       d="m 105.23656,42.881438 c -0.3335,-1.28e-4 -0.66691,0.0025 -1.00021,0.0078 -0.33331,0.0053 -0.66652,0.01324 -0.99962,0.02369 -0.33311,0.01045 -0.66611,0.0234 -0.999,0.03871 -0.3329,0.01532 -0.66568,0.033 -0.99836,0.0529 -0.33267,0.01991 -0.66523,0.04204 -0.99767,0.06627 -0.332449,0.02422 -0.664776,0.05053 -0.996982,0.07879 -0.332205,0.02826 -0.664289,0.05847 -0.996247,0.09048 -0.331958,0.03202 -0.66379,0.06585 -0.995491,0.101344 -0.331701,0.0355 -0.663271,0.07267 -0.994706,0.11137 -0.331435,0.0387 -0.662735,0.07893 -0.993894,0.120562 -0.33116,0.04163 -0.66218,0.08465 -0.993055,0.12892 -0.330876,0.04427 -0.661607,0.0898 -0.992188,0.136444 -0.330582,0.04664 -0.661015,0.0944 -0.991294,0.143135 -0.330279,0.04874 -0.660405,0.09844 -0.990372,0.148993 -0.329968,0.05055 -0.659777,0.101933 -0.989423,0.154017 -0.329647,0.05208 -0.65913,0.104865 -0.988446,0.158206 -0.213115,0.03452 -0.426159,0.06927 -0.639132,0.104223 -0.116124,0.01906 -0.232248,0.03818 -0.348369,0.05738 -0.329087,0.0544 -0.658151,0.109379 -0.987148,0.165051 -0.328997,0.05567 -0.657928,0.112037 -0.98675,0.169213 -0.328821,0.05718 -0.657533,0.11516 -0.986093,0.174071 -0.328559,0.05891 -0.656965,0.118746 -0.985176,0.179624 -0.32821,0.06088 -0.656224,0.122797 -0.984,0.185873 -0.327775,0.06308 -0.655311,0.12731 -0.982564,0.192818 -0.327254,0.06551 -0.654225,0.132287 -0.98087,0.200457 -0.326646,0.06817 -0.652965,0.137728 -0.978916,0.208792 -0.325951,0.07106 -0.651533,0.143632 -0.976703,0.217822 -0.32517,0.07419 -0.649927,0.150001 -0.97423,0.227548 -0.324302,0.07755 -0.648149,0.156833 -0.971497,0.23797 -0.323348,0.08114 -0.646198,0.164128 -0.968506,0.249086 -0.322308,0.08496 -0.644074,0.171887 -0.965255,0.260899 -0.321181,0.08901 -0.641777,0.180109 -0.961745,0.273406 -0.319968,0.0933 -0.639307,0.188795 -0.957975,0.286609 -0.318668,0.09781 -0.636665,0.197945 -0.953946,0.300508 -0.11298,0.03652 -0.225869,0.07335 -0.338666,0.110494 -0.203971,0.06717 -0.407508,0.135539 -0.610612,0.205096 -0.315421,0.108022 -0.629799,0.218898 -0.943133,0.332544 -0.313335,0.113646 -0.625627,0.230062 -0.936878,0.349161 -0.311252,0.119099 -0.621462,0.240882 -0.930634,0.365264 -0.309172,0.124382 -0.617305,0.251362 -0.924401,0.380856 -0.307096,0.129493 -0.613155,0.261499 -0.918179,0.395933 -0.305024,0.134434 -0.609012,0.271296 -0.911968,0.410499 -0.302955,0.139204 -0.604877,0.28075 -0.905768,0.424553 -0.30089,0.143802 -0.600749,0.289862 -0.899579,0.438092 -0.298829,0.148231 -0.596629,0.298633 -0.893401,0.45112 -0.296772,0.152488 -0.592516,0.307061 -0.887235,0.463635 -0.294718,0.156574 -0.58841,0.315148 -0.881079,0.475637 -0.292668,0.160489 -0.584312,0.322894 -0.874934,0.487127 -0.290622,0.164234 -0.580222,0.330297 -0.868801,0.498104 -0.288579,0.167807 -0.576138,0.337358 -0.862678,0.508567 -0.286541,0.17121 -0.572062,0.344078 -0.856567,0.51852 -0.284505,0.174441 -0.567994,0.350456 -0.850467,0.527958 -0.209456,0.131619 -0.418353,0.264055 -0.626694,0.397275 -0.07263,0.04644 -0.145219,0.09297 -0.217767,0.139586 -0.280657,0.180339 -0.560687,0.362002 -0.839918,0.545115 -0.279231,0.183113 -0.557662,0.367675 -0.835121,0.553812 -0.277459,0.186136 -0.553947,0.373845 -0.829289,0.563253 -0.275343,0.189408 -0.54954,0.380514 -0.822421,0.573442 -0.27288,0.192927 -0.544444,0.387677 -0.814517,0.584374 -0.270073,0.196696 -0.538656,0.395339 -0.805577,0.596053 -0.26692,0.200713 -0.532178,0.403498 -0.795601,0.608477 -0.263423,0.204979 -0.52501,0.412153 -0.78459,0.621646 -0.25958,0.209493 -0.517151,0.421305 -0.772543,0.635561 -0.255391,0.214256 -0.508602,0.430955 -0.759459,0.650221 -0.250858,0.219267 -0.499362,0.441101 -0.74534,0.665628 -0.245979,0.224526 -0.489432,0.451744 -0.730186,0.681778 -0.240754,0.230034 -0.47881,0.462884 -0.713995,0.698675 -0.235184,0.23579 -0.467498,0.474521 -0.696768,0.716317 -0.197483,0.208272 -0.392708,0.418819 -0.585565,0.631718 -0.03104,0.03427 -0.06176,0.06879 -0.09217,0.103553 -0.21932,0.250756 -0.422217,0.5143 -0.609984,0.788352 -0.187767,0.274053 -0.360403,0.558614 -0.519201,0.851405 -0.158797,0.29279 -0.303756,0.593811 -0.436168,0.900783 -0.132412,0.306973 -0.252278,0.619896 -0.360888,0.936492 -0.100785,0.293786 -0.191879,0.590733 -0.274314,0.889023 -0.0064,0.02316 -0.01275,0.04633 -0.01906,0.06952 -0.08749,0.321766 -0.165712,0.645706 -0.235489,0.971422 -0.06978,0.325716 -0.131114,0.653208 -0.184846,0.982077 -0.05373,0.328869 -0.09986,0.659115 -0.139219,0.99034 -0.03936,0.331225 -0.07195,0.663428 -0.09861,0.996212 -0.02666,0.332783 -0.04738,0.666147 -0.06301,0.999692 -0.01563,0.333545 -0.02616,0.667271 -0.03243,1.000781 -6.89e-4,0.03665 -0.0013,0.07329 -0.0019,0.109934 -0.0048,0.296815 -0.0064,0.593545 -0.0049,0.890175 0.0016,0.33325 0.007,0.666373 0.01609,0.999349 0.0091,0.332976 0.02176,0.665805 0.03792,0.998465 0.01615,0.332661 0.03576,0.665153 0.05865,0.997456 0.02288,0.332303 0.04904,0.664417 0.07828,0.99632 0.02924,0.331904 0.06158,0.663596 0.09681,0.995058 0.03524,0.331461 0.07338,0.662691 0.114249,0.993668 0.04087,0.330977 0.08446,0.661702 0.130588,0.992152 0.04613,0.330451 0.0948,0.660628 0.145829,0.99051 0.05103,0.329883 0.104413,0.65947 0.159972,0.988741 0.05556,0.329272 0.113293,0.658227 0.173018,0.986846 0.05972,0.328618 0.121441,0.6569 0.184965,0.984823 0.06352,0.327923 0.128857,0.655488 0.195815,0.982674 0.06696,0.327186 0.135542,0.653993 0.205567,0.980399 0.07003,0.326406 0.141494,0.652412 0.214222,0.977997 0.02707,0.121207 0.05432,0.242356 0.08174,0.363445 0.04623,0.204179 0.09302,0.408225 0.14038,0.612136 0.07545,0.324843 0.152323,0.649346 0.230609,0.973505 0.07829,0.324159 0.15798,0.647974 0.23906,0.971441 0.08108,0.323466 0.163547,0.646584 0.247376,0.96935 0.08383,0.322765 0.169021,0.645178 0.255554,0.967234 0.08653,0.322055 0.174406,0.643754 0.263597,0.965092 0.08919,0.321338 0.1797,0.642314 0.271503,0.962925 0.0918,0.320611 0.184902,0.640857 0.279273,0.960732 0.09437,0.319876 0.190014,0.639382 0.286907,0.958514 0.09689,0.319132 0.195035,0.637887 0.294404,0.956267 0.09937,0.31838 0.199965,0.63638 0.301765,0.954 0.1018,0.31762 0.204804,0.63486 0.30899,0.95171 0.104186,0.31685 0.209552,0.63331 0.316078,0.94938 0.106526,0.31607 0.21421,0.63175 0.32303,0.94704 0.108821,0.31528 0.218777,0.63017 0.329846,0.94466 0.11107,0.31449 0.223252,0.62858 0.336526,0.94226 0.06196,0.17159 0.124248,0.34306 0.186858,0.5144 0.05185,0.1419 0.103866,0.28376 0.156063,0.42556 0.115226,0.31303 0.231332,0.62581 0.348463,0.93824 0.117131,0.31244 0.235287,0.62453 0.354614,0.93619 0.119327,0.31166 0.239825,0.62289 0.36164,0.93359 0.121814,0.3107 0.244946,0.62088 0.369539,0.93045 0.124594,0.30957 0.25065,0.61852 0.378314,0.92678 0.127664,0.30825 0.256936,0.6158 0.387962,0.92255 0.131026,0.30676 0.263806,0.61272 0.398485,0.9178 0.134679,0.30508 0.271258,0.60928 0.409882,0.91251 0.138624,0.30322 0.279293,0.60547 0.422154,0.90666 0.14286,0.30119 0.287911,0.60132 0.435299,0.9003 0.147388,0.29897 0.297113,0.5968 0.44932,0.89338 0.152208,0.29658 0.306897,0.59191 0.464215,0.88592 0.05491,0.10262 0.110141,0.20508 0.165698,0.30737 0.103613,0.19077 0.207786,0.38123 0.312502,0.57137 0.160865,0.2921 0.323012,0.58346 0.486386,0.87412 0.163373,0.29066 0.327972,0.58062 0.49374,0.8699 0.165768,0.28928 0.332704,0.57789 0.500751,0.86585 0.168048,0.28796 0.337207,0.57527 0.50742,0.86197 0.170213,0.28669 0.341481,0.57277 0.513745,0.85826 0.172264,0.28549 0.345525,0.5704 0.519727,0.85474 0.174201,0.28434 0.349342,0.56813 0.525365,0.85138 0.176024,0.28325 0.35293,0.56598 0.530662,0.8482 0.177731,0.28222 0.356289,0.56394 0.535614,0.84519 0.179325,0.28125 0.359419,0.56203 0.540224,0.84236 0.180804,0.28034 0.36232,0.56023 0.54449,0.8397 0.18217,0.27948 0.364993,0.55854 0.548414,0.83722 0.18342,0.27867 0.367437,0.55696 0.551994,0.8349 0.184556,0.27793 0.369652,0.55551 0.555231,0.83276 0.185578,0.27725 0.371639,0.55418 0.558125,0.8308 0.186486,0.27663 0.373397,0.55296 0.560676,0.82902 0.187279,0.27605 0.374926,0.55184 0.562884,0.82739 0.174386,0.25565 0.34904,0.5111 0.523915,0.76636 0.01361,0.0199 0.02722,0.0397 0.04084,0.0596 0.188549,0.27509 0.377533,0.54988 0.566957,0.82437 0.189425,0.27449 0.379288,0.54868 0.569596,0.82257 0.190307,0.27388 0.381057,0.54746 0.572254,0.82073 0.191197,0.27327 0.38284,0.54623 0.574934,0.81887 0.192093,0.27264 0.384637,0.54497 0.577634,0.81697 0.192997,0.27201 0.386448,0.54369 0.580356,0.81505 0.193908,0.27135 0.388273,0.54238 0.583099,0.81308 0.194826,0.2707 0.390112,0.54106 0.585862,0.81109 0.19575,0.27003 0.391964,0.53972 0.588646,0.80906 0.196682,0.26935 0.393831,0.53836 0.591451,0.80701 0.19762,0.26866 0.395711,0.53697 0.594277,0.80492 0.198566,0.26796 0.397606,0.53556 0.597124,0.8028 0.199518,0.26724 0.399514,0.53413 0.599992,0.80065 0.200477,0.26652 0.401436,0.53267 0.60288,0.79846 0.201444,0.26578 0.403373,0.5312 0.60579,0.79624 0.202417,0.26504 0.405322,0.52971 0.60872,0.794 0.203397,0.26428 0.407286,0.52819 0.611671,0.79171 0.204385,0.26352 0.409265,0.52666 0.614643,0.7894 0.205379,0.26275 0.411257,0.5251 0.617637,0.78706 0.20638,0.26195 0.413262,0.52351 0.62065,0.78467 0.207388,0.26116 0.415282,0.52192 0.623685,0.78227 0.208403,0.26035 0.417316,0.5203 0.626741,0.77983 0.209425,0.25953 0.419363,0.51865 0.629817,0.77735 0.210454,0.2587 0.421424,0.51699 0.632915,0.77485 0.09349,0.11399 0.187083,0.22789 0.280778,0.34172 0.118256,0.14366 0.236655,0.28722 0.355203,0.43068 0.212475,0.25713 0.425429,0.51392 0.638896,0.77032 0.213467,0.25641 0.427447,0.51243 0.641973,0.76803 0.214526,0.2556 0.429598,0.51078 0.645251,0.76548 0.215652,0.25471 0.431884,0.50894 0.64873,0.76266 0.216845,0.25372 0.434304,0.50693 0.65241,0.75957 0.218106,0.25265 0.436858,0.50474 0.656291,0.75623 0.219433,0.25148 0.439546,0.50237 0.660373,0.7526 0.220827,0.25024 0.442368,0.49983 0.664656,0.74873 0.222288,0.2489 0.445323,0.4971 0.669139,0.74457 0.223816,0.24747 0.448413,0.49421 0.673824,0.74016 0.225412,0.24596 0.451637,0.49113 0.67871,0.73548 0.227074,0.24435 0.454995,0.48788 0.683797,0.73053 0.228802,0.24266 0.458486,0.48445 0.689084,0.72532 0.230598,0.24087 0.462111,0.48084 0.694573,0.71984 0.232461,0.239 0.46587,0.47705 0.700262,0.71409 0.234391,0.23705 0.469764,0.47309 0.706152,0.70809 0.236388,0.23499 0.473792,0.46894 0.712244,0.7018 0.238452,0.23286 0.477953,0.46463 0.718536,0.69527 0.240583,0.23063 0.482248,0.46013 0.725029,0.68845 0.242781,0.22832 0.486678,0.45546 0.731724,0.68138 0.245046,0.22591 0.491241,0.45061 0.738618,0.67403 0.247378,0.22343 0.495939,0.44559 0.745715,0.66643 0.232012,0.20514 0.465074,0.40915 0.699212,0.61199 0.01793,0.0155 0.03586,0.0311 0.0538,0.0466 0.252252,0.21818 0.505823,0.43504 0.760851,0.65027 0.255028,0.21523 0.511511,0.42883 0.769586,0.6405 0.258075,0.21167 0.517741,0.4214 0.779135,0.6289 0.261394,0.20749 0.524516,0.41275 0.789501,0.61546 0.264985,0.20272 0.531833,0.40289 0.800681,0.60022 0.268847,0.19732 0.539694,0.3918 0.812676,0.58313 0.272981,0.19133 0.548098,0.3795 0.825486,0.56422 0.277385,0.18472 0.557045,0.36599 0.839115,0.54349 0.28206,0.17751 0.56654,0.35125 0.85355,0.52093 0.0853,0.0504 0.17076,0.10045 0.25648,0.15014 0.20282,0.11755 0.40717,0.23347 0.61305,0.3472 0.29289,0.16179 0.58887,0.31913 0.88791,0.47039 0.29904,0.15125 0.60114,0.29642 0.90628,0.43388 0.30513,0.13745 0.6133,0.26718 0.92448,0.38755 0.31117,0.12037 0.62535,0.23139 0.94251,0.33142 0.31716,0.10002 0.6373,0.18905 0.96039,0.26545 0.3231,0.0764 0.64914,0.14018 0.97811,0.18968 0.13704,0.0206 0.27459,0.0388 0.41264,0.0543 0.19218,-0.0304 0.38291,-0.0666 0.57222,-0.10809 0.32449,-0.0711 0.64482,-0.15789 0.96122,-0.25804 0.31639,-0.10015 0.62884,-0.21367 0.93757,-0.33833 0.30873,-0.12465 0.61373,-0.26043 0.91521,-0.40507 0.30149,-0.14465 0.59946,-0.29817 0.89412,-0.45831 0.29467,-0.16014 0.58604,-0.32689 0.87432,-0.498 0.28827,-0.17112 0.57346,-0.34659 0.85577,-0.52417 0.002,-0.001 0.004,-0.002 0.006,-0.004 0.28032,-0.17638 0.55818,-0.35641 0.83374,-0.53982 0.27749,-0.18469 0.55264,-0.37281 0.82562,-0.56405 0.27297,-0.19125 0.54377,-0.38562 0.81253,-0.58284 0.26877,-0.19721 0.53551,-0.39727 0.80037,-0.59988 0.26486,-0.20261 0.52785,-0.40777 0.78912,-0.6152 0.26126,-0.20742 0.5208,-0.41711 0.77877,-0.62876 0.25797,-0.21166 0.51437,-0.42529 0.76936,-0.6406 0.25498,-0.21532 0.50854,-0.43231 0.76084,-0.6507 0.2523,-0.21838 0.50333,-0.43816 0.75325,-0.65904 0.0438,-0.0387 0.0876,-0.0775 0.13143,-0.11635 0.20575,-0.18245 0.41079,-0.36566 0.61512,-0.54963 0.2478,-0.22311 0.49456,-0.44732 0.74032,-0.6726 0.24576,-0.22529 0.4905,-0.45164 0.73427,-0.67903 0.24377,-0.22738 0.48656,-0.4558 0.7284,-0.68522 0.24184,-0.22941 0.48272,-0.45982 0.72269,-0.69119 0.23996,-0.23137 0.479,-0.4637 0.71715,-0.69696 0.23815,-0.23325 0.47541,-0.46743 0.7118,-0.70249 0.23639,-0.23507 0.47192,-0.47102 0.70661,-0.70782 0.23469,-0.2368 0.46855,-0.47445 0.70159,-0.71292 0.23305,-0.23846 0.46529,-0.47774 0.69676,-0.7178 0.23146,-0.24005 0.46214,-0.48089 0.69208,-0.72246 0.22993,-0.24157 0.45912,-0.48389 0.68758,-0.7269 0.22847,-0.24302 0.45621,-0.48674 0.68326,-0.73113 0.22706,-0.24439 0.45342,-0.48945 0.67911,-0.73514 0.2257,-0.24569 0.45073,-0.49201 0.67513,-0.73892 0.2244,-0.24691 0.44817,-0.49442 0.67133,-0.74249 0.22316,-0.24806 0.44571,-0.49669 0.66769,-0.74583 0.22197,-0.24915 0.44337,-0.49881 0.66423,-0.74896 0.22085,-0.25015 0.44115,-0.50079 0.66094,-0.75187 0.21978,-0.25109 0.43905,-0.50262 0.65782,-0.75456 0.21878,-0.25195 0.43706,-0.5043 0.65488,-0.75704 0.21783,-0.25273 0.43519,-0.50583 0.65211,-0.75928 0.21693,-0.25344 0.43343,-0.50723 0.64952,-0.76131 0.15341,-0.18039 0.30662,-0.36093 0.45963,-0.54161 0.0625,-0.0738 0.125,-0.14766 0.18744,-0.22154 0.21528,-0.25472 0.43012,-0.5098 0.64452,-0.76524 0.2144,-0.25545 0.42836,-0.51127 0.64189,-0.76745 0.21352,-0.25618 0.42661,-0.51272 0.63926,-0.76963 0.21265,-0.25691 0.42486,-0.51418 0.63663,-0.7718 0.21178,-0.25763 0.42312,-0.51562 0.63402,-0.77397 0.2109,-0.25834 0.42136,-0.51705 0.63139,-0.7761 0.21003,-0.25906 0.41962,-0.51847 0.62877,-0.77823 0.20915,-0.25977 0.41787,-0.51988 0.62615,-0.78035 0.20828,-0.26046 0.41613,-0.52128 0.62354,-0.78244 0.20741,-0.26116 0.41438,-0.52267 0.62092,-0.78452 0.20653,-0.26185 0.41263,-0.52405 0.6183,-0.78659 0.20567,-0.26253 0.4109,-0.52541 0.61569,-0.78863 0.2048,-0.26322 0.40916,-0.52678 0.61308,-0.79068 0.20393,-0.26389 0.40742,-0.52812 0.61047,-0.79269 0.20306,-0.26457 0.40568,-0.52946 0.60786,-0.7947 0.20219,-0.26523 0.40394,-0.53079 0.60526,-0.79668 0.20132,-0.26589 0.4022,-0.53212 0.60265,-0.79866 0.20045,-0.26655 0.40046,-0.53342 0.60004,-0.80062 0.19958,-0.2672 0.39873,-0.53472 0.59745,-0.80256 0.19871,-0.26785 0.39699,-0.53601 0.59484,-0.8045 0.19785,-0.26848 0.39526,-0.53728 0.59224,-0.8064 0.19698,-0.26912 0.39353,-0.53855 0.58965,-0.8083 0.19611,-0.26975 0.3918,-0.53981 0.58705,-0.81018 0.19525,-0.27037 0.39006,-0.54106 0.58445,-0.81205 0.0877,-0.12224 0.17528,-0.24454 0.26278,-0.3669 0.10649,-0.14891 0.21293,-0.29787 0.31931,-0.4469 0.19378,-0.27148 0.38735,-0.54317 0.58063,-0.81511 0.19328,-0.27194 0.38626,-0.54413 0.57887,-0.81662 0.1926,-0.27248 0.38483,-0.54525 0.5766,-0.81836 0.19177,-0.27311 0.38309,-0.54656 0.57386,-0.82038 0.19077,-0.27382 0.38101,-0.54802 0.57062,-0.82264 0.18961,-0.27462 0.3786,-0.54966 0.56689,-0.82517 0.18828,-0.2755 0.37587,-0.55147 0.56267,-0.82794 0.1868,-0.27648 0.37281,-0.55346 0.55796,-0.83098 0.18515,-0.27753 0.36943,-0.55561 0.55276,-0.83428 0.18334,-0.27867 0.36572,-0.55793 0.54708,-0.83782 0.18136,-0.27989 0.36169,-0.56042 0.5409,-0.84163 0.17922,-0.2812 0.35732,-0.56309 0.53424,-0.84569 0.17691,-0.2826 0.35263,-0.56592 0.52708,-0.85001 0.17444,-0.28408 0.34761,-0.56893 0.51943,-0.85458 0.17181,-0.28565 0.34227,-0.57211 0.5113,-0.85942 0.16902,-0.2873 0.33661,-0.57546 0.50267,-0.8645 0.16607,-0.28904 0.33062,-0.57898 0.49356,-0.86985 0.16295,-0.29087 0.32429,-0.58267 0.48396,-0.87545 0.0233,-0.0428 0.0466,-0.0856 0.0699,-0.12842 0.13591,-0.25024 0.26986,-0.50147 0.40196,-0.75363 0.1547,-0.29533 0.30685,-0.59195 0.45658,-0.88976 0.14974,-0.29781 0.29707,-0.59682 0.44214,-0.89694 0.14506,-0.30011 0.28787,-0.60133 0.42855,-0.90357 0.14069,-0.30224 0.27925,-0.6055 0.41585,-0.90969 0.1366,-0.30418 0.27122,-0.60929 0.40402,-0.91524 0.1328,-0.30595 0.26377,-0.61274 0.39306,-0.92027 0.1293,-0.30753 0.25691,-0.61581 0.38299,-0.92475 0.12607,-0.30894 0.25062,-0.61854 0.37377,-0.9287 0.12316,-0.31016 0.24492,-0.62089 0.36544,-0.9321 0.12053,-0.31121 0.2398,-0.6229 0.35799,-0.93497 0.11818,-0.31207 0.23526,-0.62454 0.3514,-0.9373 0.11011,-0.29655 0.21937,-0.59337 0.3279,-0.89038 0.006,-0.0162 0.0119,-0.0325 0.0178,-0.0487 0.11435,-0.31328 0.22762,-0.62697 0.33979,-0.94107 0.11216,-0.31409 0.22323,-0.62858 0.33317,-0.94348 0.10994,-0.31489 0.21875,-0.63018 0.32642,-0.94586 0.10767,-0.31568 0.21419,-0.63176 0.31954,-0.94822 0.10535,-0.31647 0.20953,-0.63332 0.31251,-0.95056 0.10299,-0.31724 0.20479,-0.63486 0.30536,-0.95287 0.10058,-0.318 0.19995,-0.63639 0.29807,-0.955147 0.0981,-0.31876 0.19501,-0.637897 0.29064,-0.957406 0.0956,-0.319508 0.18999,-0.639388 0.28307,-0.959636 0.0931,-0.320248 0.18487,-0.640864 0.27536,-0.961843 0.0905,-0.320979 0.17968,-0.642321 0.26753,-0.964022 0.0879,-0.321701 0.17438,-0.643762 0.25956,-0.966177 0.0852,-0.322415 0.16899,-0.645185 0.25144,-0.968305 0.0824,-0.323121 0.16352,-0.646592 0.24319,-0.970409 0.0797,-0.323817 0.15796,-0.64798 0.23482,-0.972485 0.0768,-0.324506 0.15229,-0.649353 0.22629,-0.974538 0.009,-0.03997 0.0182,-0.07994 0.0272,-0.119917 0.0646,-0.285291 0.12827,-0.570911 0.1909,-0.856848 0.0714,-0.326004 0.14147,-0.65242 0.20999,-0.979225 0.0685,-0.326805 0.13551,-0.654 0.20078,-0.981563 0.0653,-0.327564 0.12882,-0.655496 0.19047,-0.983775 0.0617,-0.32828 0.12141,-0.656907 0.17908,-0.98586 0.0577,-0.328953 0.11325,-0.658233 0.16657,-0.987818 0.0533,-0.329585 0.10436,-0.659476 0.15296,-0.98965 0.0486,-0.330175 0.0948,-0.660633 0.13828,-0.991355 0.0435,-0.330722 0.0844,-0.661707 0.12247,-0.992933 0.0381,-0.331227 0.0733,-0.662696 0.10559,-0.994386 0.0323,-0.331689 0.0615,-0.6636 0.0876,-0.99571 0.0261,-0.332111 0.049,-0.664421 0.0685,-0.99691 0.0195,-0.332489 0.0357,-0.665156 0.0483,-0.997981 0.0126,-0.332825 0.0217,-0.665808 0.027,-0.998927 0.005,-0.333119 0.007,-0.666375 0.005,-0.999746 -8.9e-4,-0.128448 -0.002,-0.256912 -0.004,-0.385392 -0.003,-0.204977 -0.008,-0.410052 -0.0148,-0.615133 -0.0108,-0.333627 -0.0263,-0.66727 -0.0472,-1.00053 -0.021,-0.33326 -0.0475,-0.666138 -0.0803,-0.998234 -0.0329,-0.332097 -0.0721,-0.663412 -0.11848,-0.993547 -0.0464,-0.330135 -0.10001,-0.65909 -0.16163,-0.986467 -0.0616,-0.327377 -0.13127,-0.653176 -0.20978,-0.976997 -0.0445,-0.183682 -0.0919,-0.366729 -0.14231,-0.549066 -0.0384,-0.139113 -0.0788,-0.277934 -0.12109,-0.416279 -0.0978,-0.319675 -0.20618,-0.636805 -0.32648,-0.949113 -0.12031,-0.312307 -0.25252,-0.619792 -0.39793,-0.920174 -0.14541,-0.300383 -0.30401,-0.593664 -0.47711,-0.877565 -0.1731,-0.283901 -0.36069,-0.558422 -0.56406,-0.821284 -0.12891,-0.166608 -0.26415,-0.328532 -0.40606,-0.485193 -0.082,-0.09051 -0.16443,-0.180547 -0.24733,-0.27013 -0.22637,-0.244644 -0.4561,-0.485872 -0.68898,-0.723844 -0.23288,-0.237971 -0.46892,-0.472686 -0.7079,-0.704304 -0.23899,-0.231618 -0.48093,-0.460138 -0.72563,-0.68572 -0.2447,-0.225582 -0.49215,-0.448226 -0.74216,-0.668091 -0.25001,-0.219865 -0.50258,-0.436951 -0.75751,-0.651418 -0.25493,-0.214466 -0.51222,-0.426313 -0.77167,-0.635699 -0.25945,-0.209386 -0.52106,-0.416312 -0.78464,-0.620936 -0.26357,-0.204625 -0.52911,-0.406948 -0.79642,-0.607129 -0.26731,-0.200182 -0.53638,-0.398221 -0.80702,-0.594277 -0.27064,-0.196056 -0.54284,-0.39013 -0.81642,-0.58238 -0.27358,-0.19225 -0.54852,-0.382677 -0.82464,-0.571439 -0.27612,-0.188762 -0.55341,-0.375859 -0.83167,-0.561452 -0.27826,-0.185593 -0.5575,-0.36968 -0.83751,-0.552422 -0.28001,-0.182741 -0.5608,-0.364137 -0.84216,-0.544346 -0.28136,-0.180209 -0.56331,-0.359232 -0.84563,-0.537227 -0.14182,-0.08941 -0.28373,-0.178568 -0.42572,-0.267484 -0.14067,-0.08809 -0.28154,-0.175891 -0.42262,-0.2634 -0.28348,-0.17584 -0.56781,-0.350489 -0.85299,-0.523852 -0.28518,-0.173363 -0.57121,-0.34544 -0.85811,-0.516136 -0.2869,-0.170697 -0.57466,-0.340013 -0.8633,-0.507854 -0.28863,-0.167841 -0.57814,-0.334207 -0.86854,-0.499004 -0.2904,-0.164796 -0.58169,-0.328023 -0.87388,-0.489586 -0.29218,-0.161563 -0.58527,-0.321462 -0.87926,-0.479603 -0.29399,-0.15814 -0.5889,-0.314522 -0.88472,-0.469051 -0.29583,-0.154529 -0.59258,-0.307205 -0.89026,-0.457933 -0.29768,-0.150728 -0.59629,-0.299509 -0.89585,-0.446247 -0.29956,-0.146739 -0.60006,-0.291436 -0.90152,-0.433996 -0.30146,-0.14256 -0.60387,-0.282983 -0.90725,-0.421175 -0.30338,-0.138193 -0.60773,-0.274154 -0.91306,-0.407789 -0.30533,-0.133636 -0.61164,-0.264946 -0.91893,-0.393836 -0.3073,-0.12889 -0.61559,-0.255359 -0.92488,-0.379314 -0.30929,-0.123955 -0.61958,-0.245396 -0.93089,-0.364227 -0.3113,-0.118831 -0.62362,-0.235054 -0.93696,-0.348572 -0.31335,-0.113519 -0.62771,-0.224333 -0.94312,-0.33235 -0.20662,-0.07076 -0.41369,-0.140325 -0.62121,-0.208659 -0.11083,-0.03076 -0.22169,-0.06146 -0.33256,-0.09211 -0.32149,-0.08886 -0.64317,-0.17724 -0.96505,-0.265052 -0.32187,-0.08781 -0.64395,-0.175057 -0.96623,-0.261653 -0.32228,-0.0866 -0.64476,-0.172541 -0.96746,-0.257753 -0.32269,-0.08521 -0.6456,-0.169691 -0.96872,-0.253353 -0.32312,-0.08366 -0.64645,-0.166507 -0.97001,-0.248452 -0.32356,-0.08195 -0.64734,-0.162989 -0.97134,-0.243049 -0.32401,-0.08006 -0.64824,-0.159137 -0.9727,-0.237146 -0.32447,-0.07801 -0.64917,-0.154951 -0.9741,-0.230741 -0.32494,-0.07579 -0.65012,-0.150431 -0.97553,-0.223837 -0.32542,-0.07341 -0.65109,-0.145576 -0.977,-0.21643 -0.32591,-0.07085 -0.65208,-0.140388 -0.9785,-0.208522 -0.32642,-0.06813 -0.65309,-0.134867 -0.98003,-0.200115 -0.32693,-0.06525 -0.65413,-0.129011 -0.98159,-0.191205 -0.32747,-0.0622 -0.6552,-0.122821 -0.9832,-0.181795 -0.32801,-0.05898 -0.65628,-0.116297 -0.98484,-0.171884 -0.32855,-0.05559 -0.65739,-0.109439 -0.9865,-0.161472 -0.32912,-0.05203 -0.65852,-0.102247 -0.98821,-0.150559 -0.32969,-0.04831 -0.65968,-0.09472 -0.98995,-0.139145 -0.33028,-0.04442 -0.66085,-0.08686 -0.99173,-0.12723 -0.33087,-0.04037 -0.66204,-0.07867 -0.99353,-0.114814 -0.1149,-0.01253 -0.22984,-0.0248 -0.34482,-0.03681 -0.21672,-0.02263 -0.4335,-0.04432 -0.65034,-0.0651 -0.33189,-0.0318 -0.66392,-0.06147 -0.99608,-0.08914 -0.33217,-0.02768 -0.66446,-0.05336 -0.99688,-0.07719 -0.33241,-0.02383 -0.66495,-0.04581 -0.9976,-0.06608 -0.33264,-0.02027 -0.6654,-0.03882 -0.99825,-0.0558 -0.33286,-0.01698 -0.66581,-0.03239 -0.99885,-0.04637 -0.33304,-0.01398 -0.66617,-0.02652 -0.99937,-0.03777 -0.3332,-0.01125 -0.66648,-0.0212 -0.99982,-0.03001 -0.33334,-0.0088 -0.66675,-0.01645 -1.00021,-0.02309 -0.33346,-0.0066 -0.66697,-0.01225 -1.00053,-0.017 -0.33355,-0.0047 -0.66715,-0.0086 -1.00077,-0.01176 -0.33363,-0.0031 -0.66729,-0.0055 -1.00096,-0.0073 -0.33368,-0.0018 -0.66737,-0.003 -1.00108,-0.0038 -0.3337,-7.57e-4 -0.66741,-0.0011 -1.00112,-0.001 -0.33371,1.4e-5 -0.66741,3.44e-4 -1.0011,8.49e-4 -0.33369,5.05e-4 -0.66736,0.0012 -1.00101,0.0019 -0.33365,7.18e-4 -0.66727,0.0015 -1.00086,0.0021 -0.33359,6.5e-4 -0.66713,0.0012 -1.00063,0.0015 m 4.59445,12.694833 c 0.33356,8.53e-4 0.66718,0.0023 1.00083,0.0046 0.33365,0.0023 0.66733,0.0053 1.001,0.0094 0.33368,0.0041 0.66735,0.0092 1.00099,0.01545 0.33364,0.0063 0.66725,0.0138 1.00079,0.02272 0.33355,0.0089 0.66703,0.01926 1.00043,0.03122 0.33339,0.01196 0.6667,0.02554 0.99988,0.04095 0.33318,0.01541 0.66624,0.03264 0.99915,0.05189 0.33291,0.01926 0.66567,0.04055 0.99825,0.06406 0.33258,0.02352 0.66498,0.04927 0.99717,0.07746 0.33219,0.02819 0.66417,0.05881 0.99591,0.09208 0.33174,0.03326 0.66325,0.06917 0.99448,0.107916 0.16552,0.01936 0.33098,0.03944 0.49636,0.06025 0.16557,0.02083 0.33105,0.04229 0.49642,0.06437 0.33057,0.04413 0.66075,0.0907 0.99056,0.13958 0.32981,0.04888 0.65925,0.10008 0.98833,0.153452 0.32908,0.05337 0.6578,0.108921 0.98618,0.166511 0.32837,0.05759 0.6564,0.11722 0.98409,0.178756 0.32769,0.06154 0.65505,0.124978 0.98209,0.190189 0.32703,0.06521 0.65375,0.132192 0.98015,0.200807 0.32641,0.06862 0.6525,0.138865 0.9783,0.210614 0.3258,0.07175 0.65131,0.144995 0.97652,0.219606 0.32522,0.07461 0.65016,0.150584 0.97482,0.227785 0.32466,0.0772 0.64905,0.15563 0.97318,0.235151 0.32414,0.07952 0.64801,0.160135 0.97163,0.241705 0.32363,0.08157 0.64701,0.164097 0.97015,0.247444 0.32315,0.08335 0.64606,0.167517 0.96875,0.252371 0.30822,0.08105 0.61623,0.162725 0.92406,0.244907 0.0143,0.0045 0.0285,0.009 0.0428,0.01357 0.31788,0.101054 0.63449,0.2057 0.94987,0.313788 0.31537,0.108087 0.6295,0.219616 0.9424,0.334437 0.3129,0.11482 0.62457,0.232932 0.93503,0.354184 0.31046,0.121253 0.6197,0.245646 0.92775,0.37303 0.30805,0.127384 0.6149,0.257759 0.92057,0.390974 0.30567,0.133215 0.61016,0.26927 0.91349,0.408015 0.30332,0.138745 0.60548,0.28018 0.90649,0.424155 0.30101,0.143974 0.60087,0.290489 0.8996,0.439392 0.29872,0.148904 0.59632,0.300197 0.89279,0.453728 0.29648,0.153532 0.59184,0.309303 0.88609,0.467162 0.29426,0.15786 0.58742,0.317808 0.87949,0.479694 0.29207,0.161886 0.58305,0.325711 0.87296,0.491323 0.28992,0.165613 0.57876,0.333013 0.86655,0.502052 0.28446,0.167078 0.56788,0.335757 0.85029,0.50589 0.003,0.002 0.007,0.004 0.01,0.006 0.28571,0.172156 0.57111,0.345502 0.85587,0.520319 0.28476,0.174818 0.56886,0.351107 0.85199,0.52915 0.28313,0.178043 0.56528,0.357839 0.84611,0.539671 0.28084,0.181831 0.56036,0.365698 0.83823,0.551882 0.27787,0.186184 0.5541,0.374686 0.82834,0.565786 0.27424,0.1911 0.5465,0.384799 0.81645,0.581379 0.26994,0.19658 0.53757,0.396041 0.80255,0.598665 0.26498,0.202623 0.52731,0.408409 0.78666,0.61764 0.25934,0.209231 0.51571,0.421906 0.76875,0.638308 0.25305,0.216401 0.50278,0.436529 0.74886,0.660665 0.24608,0.224136 0.4885,0.452281 0.72694,0.684715 0.23845,0.232434 0.4729,0.469159 0.70304,0.710455 0.0387,0.04062 0.0774,0.08136 0.11585,0.122239 0.19018,0.201966 0.36537,0.416289 0.5267,0.640652 0.194,0.269772 0.36797,0.554059 0.52395,0.848832 0.15597,0.294774 0.29395,0.600035 0.41593,0.911755 0.12164,0.310825 0.22738,0.628071 0.31922,0.947747 2.6e-4,9.21e-4 5.2e-4,0.0018 7.9e-4,0.0028 0.092,0.320616 0.1712,0.644385 0.23904,0.970547 0.0678,0.326162 0.12435,0.654718 0.17105,0.984907 0.0467,0.330189 0.0836,0.662011 0.11215,0.994705 0.0286,0.332695 0.0489,0.666263 0.0624,0.999942 0.009,0.210918 0.0144,0.421881 0.0179,0.632697 0.002,0.122702 0.003,0.245384 0.004,0.368043 0.002,0.333398 -0.002,0.666626 -0.0113,0.999644 -0.009,0.333017 -0.0229,0.665824 -0.0417,0.998381 -0.0187,0.332556 -0.0422,0.664861 -0.07,0.996876 -0.0278,0.332014 -0.06,0.663738 -0.0963,0.99513 -0.0362,0.331393 -0.0765,0.662454 -0.12054,0.993144 -0.044,0.33069 -0.0917,0.661008 -0.14274,0.990915 -0.0511,0.329907 -0.10548,0.659402 -0.16292,0.988446 -0.0574,0.329043 -0.11791,0.657635 -0.18105,0.985734 -0.0631,0.3281 -0.12897,0.655708 -0.19714,0.982783 -0.0682,0.327076 -0.13867,0.653619 -0.21118,0.97959 -0.0725,0.32597 -0.14701,0.651369 -0.22318,0.976155 -0.006,0.02427 -0.0114,0.04853 -0.0171,0.07279 -0.0707,0.300434 -0.14312,0.600454 -0.21719,0.900055 -0.0801,0.323793 -0.16208,0.647097 -0.24599,0.969904 -0.0839,0.322806 -0.16975,0.645115 -0.25743,0.966918 -0.0877,0.321804 -0.17725,0.643102 -0.26862,0.963888 -0.0914,0.320786 -0.18457,0.641058 -0.27954,0.960811 -0.095,0.319752 -0.19173,0.638984 -0.29022,0.957688 -0.0985,0.318704 -0.19871,0.63688 -0.30062,0.95452 -0.10192,0.317641 -0.20552,0.634746 -0.31078,0.951307 -0.10526,0.316561 -0.21216,0.63258 -0.32067,0.948045 -0.10851,0.31547 -0.21863,0.63039 -0.33031,0.94474 -0.11168,0.31436 -0.22493,0.62816 -0.33969,0.94139 -0.11477,0.31324 -0.23105,0.62591 -0.34881,0.938 -0.0273,0.0724 -0.0547,0.14471 -0.0822,0.21702 -0.091,0.23952 -0.18261,0.47885 -0.27503,0.71793 -0.12032,0.31126 -0.24195,0.62208 -0.36515,0.93231 -0.12321,0.31022 -0.24799,0.61984 -0.3746,0.9287 -0.12661,0.30885 -0.25505,0.61694 -0.38558,0.9241 -0.13053,0.30716 -0.26315,0.61339 -0.39811,0.91852 -0.13496,0.30513 -0.27226,0.60916 -0.41217,0.91193 -0.13991,0.30277 -0.28242,0.60428 -0.42779,0.90436 -0.14537,0.30009 -0.29359,0.59874 -0.44493,0.8958 -0.15135,0.29706 -0.3058,0.59252 -0.46364,0.88623 -0.13951,0.25962 -0.28166,0.51786 -0.42662,0.77462 -0.019,0.0337 -0.0381,0.0674 -0.0572,0.10108 -0.16452,0.29015 -0.33127,0.57895 -0.50012,0.86648 -0.16886,0.28753 -0.33981,0.57378 -0.51271,0.85884 -0.1729,0.28506 -0.34775,0.56893 -0.52441,0.85168 -0.17666,0.28275 -0.35513,0.56438 -0.53526,0.84498 -0.18013,0.2806 -0.36193,0.56016 -0.54524,0.83876 -0.18332,0.2786 -0.36815,0.55625 -0.55436,0.83301 -0.18621,0.27676 -0.37379,0.55265 -0.56261,0.82773 -0.18881,0.27509 -0.37886,0.54937 -0.56999,0.82293 -0.19113,0.27356 -0.38335,0.5464 -0.57651,0.81859 -0.19316,0.2722 -0.38727,0.54375 -0.58217,0.81473 -0.1949,0.27099 -0.3906,0.54141 -0.58696,0.81134 -0.19636,0.26994 -0.39336,0.53938 -0.59088,0.80843 -0.19752,0.26904 -0.39555,0.53767 -0.59395,0.80597 -0.19839,0.26831 -0.39715,0.53628 -0.59614,0.80401 -0.011,0.0148 -0.0221,0.0297 -0.0331,0.0445 -0.18798,0.25286 -0.37646,0.50534 -0.56545,0.75745 -0.20008,0.2669 -0.40073,0.53337 -0.60195,0.79942 -0.20122,0.26605 -0.403,0.53166 -0.60536,0.79685 -0.20235,0.26518 -0.40527,0.52993 -0.60877,0.79424 -0.20349,0.26432 -0.40755,0.52819 -0.61218,0.79163 -0.20462,0.26343 -0.40982,0.52642 -0.61559,0.78897 -0.20576,0.26255 -0.4121,0.52465 -0.619,0.7863 -0.2069,0.26165 -0.41438,0.52285 -0.62242,0.7836 -0.20804,0.26074 -0.41665,0.52104 -0.62583,0.78087 -0.20918,0.25983 -0.41892,0.51921 -0.62924,0.77812 -0.21032,0.25891 -0.4212,0.51736 -0.63266,0.77534 -0.21145,0.25799 -0.42348,0.5155 -0.63607,0.77254 -0.21259,0.25705 -0.42575,0.51362 -0.63948,0.76972 -0.21373,0.25609 -0.42803,0.51171 -0.6429,0.76686 -0.21487,0.25514 -0.43031,0.5098 -0.64632,0.76397 -0.216,0.25418 -0.43258,0.50787 -0.64972,0.76108 -0.21715,0.2532 -0.43487,0.50592 -0.65315,0.75814 -0.21828,0.25223 -0.43714,0.50396 -0.65656,0.75519 -0.19081,0.21847 -0.38205,0.43657 -0.57372,0.65428 -0.0287,0.0327 -0.0575,0.0653 -0.0863,0.0979 -0.22055,0.25027 -0.4416,0.50015 -0.66322,0.74958 -0.22161,0.24943 -0.44378,0.49841 -0.66655,0.74687 -0.22277,0.24847 -0.44615,0.49643 -0.67018,0.7438 -0.22403,0.24738 -0.44871,0.49418 -0.67409,0.74035 -0.22538,0.24616 -0.45146,0.49169 -0.67828,0.73651 -0.22682,0.24483 -0.4544,0.48895 -0.68276,0.73231 -0.22836,0.24336 -0.45752,0.48595 -0.68752,0.72772 -0.23,0.24177 -0.46084,0.48271 -0.69257,0.72276 -0.23173,0.24005 -0.46434,0.47921 -0.6979,0.71742 -0.23355,0.23821 -0.46804,0.47546 -0.70351,0.71171 -0.23547,0.23624 -0.47192,0.47146 -0.70941,0.70561 -0.23748,0.23415 -0.476,0.46721 -0.71559,0.69914 -0.23959,0.23193 -0.48026,0.46272 -0.72206,0.6923 -0.24179,0.22958 -0.48471,0.45796 -0.72881,0.68507 -0.24409,0.22712 -0.48935,0.45296 -0.73584,0.67748 -0.24648,0.22451 -0.49419,0.4477 -0.74316,0.66949 -0.24897,0.2218 -0.49921,0.4422 -0.75076,0.66115 -0.21009,0.18285 -0.42109,0.36469 -0.63303,0.54548 -0.0418,0.0357 -0.0837,0.0713 -0.12563,0.10694 -0.25424,0.21599 -0.50992,0.4305 -0.76727,0.64303 -0.25736,0.21254 -0.51638,0.4231 -0.77732,0.63121 -0.26094,0.20811 -0.5238,0.41377 -0.78881,0.61649 -0.26501,0.20273 -0.53218,0.40251 -0.80175,0.59888 -0.26957,0.19637 -0.54154,0.38932 -0.81615,0.57837 -0.2746,0.18905 -0.55185,0.3742 -0.83198,0.55497 -0.24507,0.15814 -0.49235,0.31293 -0.742,0.46404 -0.0357,0.0216 -0.0715,0.0432 -0.10731,0.0647 -0.28626,0.17196 -0.57615,0.3406 -0.86995,0.50234 -0.29381,0.16174 -0.59155,0.31657 -0.8935,0.46093 -0.30196,0.14435 -0.60814,0.27821 -0.91885,0.398 -0.31071,0.11979 -0.62595,0.2255 -0.94601,0.31355 -0.31213,0.0859 -0.62885,0.15494 -0.95044,0.20389 -0.008,-8.9e-4 -0.0164,-0.002 -0.0247,-0.003 -0.33145,-0.0369 -0.65943,-0.0922 -0.98387,-0.16356 -0.32445,-0.0713 -0.64535,-0.15857 -0.96265,-0.25918 -0.31731,-0.10062 -0.63101,-0.21458 -0.94104,-0.33933 -0.31003,-0.12475 -0.61639,-0.26027 -0.91902,-0.404 -0.30263,-0.14372 -0.60152,-0.29564 -0.89662,-0.45318 -0.14512,-0.0775 -0.28932,-0.15631 -0.4326,-0.23619 -0.14806,-0.0826 -0.2953,-0.1665 -0.44173,-0.25175 -0.28814,-0.16776 -0.57319,-0.34062 -0.85535,-0.51808 -0.28217,-0.17746 -0.56145,-0.35952 -0.83806,-0.54568 -0.27662,-0.18616 -0.55056,-0.37641 -0.82205,-0.57026 -0.27149,-0.19386 -0.540519,-0.3913 -0.807305,-0.59185 -0.266787,-0.20054 -0.531329,-0.40417 -0.793838,-0.6104 -0.26251,-0.20622 -0.522987,-0.41504 -0.781644,-0.62595 -0.178695,-0.1457 -0.356521,-0.2924 -0.533549,-0.43994 -0.07922,-0.066 -0.158281,-0.1322 -0.237195,-0.19856 -0.255267,-0.21466 -0.50896,-0.43108 -0.761134,-0.6492 -0.252175,-0.21812 -0.502831,-0.43794 -0.752024,-0.65937 -0.249193,-0.22143 -0.496922,-0.44449 -0.743243,-0.66908 -0.246321,-0.2246 -0.491233,-0.45073 -0.734792,-0.67834 -0.243558,-0.2276 -0.485763,-0.45667 -0.726669,-0.68713 -0.240906,-0.23047 -0.480514,-0.46232 -0.718877,-0.69548 -0.238363,-0.23317 -0.475483,-0.46765 -0.711413,-0.70337 -0.23593,-0.23572 -0.470671,-0.47268 -0.704279,-0.7108 -0.233607,-0.23812 -0.466079,-0.4774 -0.697473,-0.71777 -0.231394,-0.24037 -0.461708,-0.48183 -0.690998,-0.72429 -0.22929,-0.24247 -0.457555,-0.48595 -0.684851,-0.73036 -0.227296,-0.24441 -0.453622,-0.48975 -0.679034,-0.73596 -0.225411,-0.2462 -0.449908,-0.49326 -0.673546,-0.7411 -0.223637,-0.24785 -0.446414,-0.49647 -0.668387,-0.7458 -0.221972,-0.24934 -0.44314,-0.49937 -0.663557,-0.75004 -0.220418,-0.25067 -0.440086,-0.50197 -0.659058,-0.75382 -0.218972,-0.25185 -0.43725,-0.50425 -0.654887,-0.75714 -0.134388,-0.15615 -0.268531,-0.31248 -0.402444,-0.46898 -0.08295,-0.0969 -0.16581,-0.19398 -0.248566,-0.29109 -0.216349,-0.25388 -0.43202,-0.50834 -0.647021,-0.76336 -0.215,-0.25502 -0.429329,-0.5106 -0.642992,-0.76674 -0.213663,-0.25614 -0.426661,-0.51283 -0.638998,-0.77006 -0.212337,-0.25724 -0.424015,-0.51502 -0.635037,-0.77334 -0.211022,-0.25832 -0.42139,-0.51717 -0.631109,-0.77655 -0.209718,-0.25938 -0.418788,-0.51928 -0.627214,-0.7797 -0.208426,-0.26043 -0.416208,-0.52137 -0.623353,-0.78281 -0.207144,-0.26145 -0.413651,-0.52341 -0.619525,-0.78586 -0.205874,-0.26246 -0.411116,-0.52541 -0.61573,-0.78885 -0.204615,-0.26344 -0.408603,-0.52738 -0.611969,-0.79179 -0.203367,-0.26441 -0.406112,-0.52931 -0.608241,-0.79467 -0.20213,-0.26536 -0.403644,-0.5312 -0.604547,-0.79749 -0.200903,-0.2663 -0.401197,-0.53306 -0.600885,-0.80027 -0.199689,-0.26721 -0.398773,-0.53488 -0.597258,-0.80298 -0.198484,-0.26811 -0.39637,-0.53666 -0.593662,-0.80565 -0.197292,-0.26898 -0.393991,-0.5384 -0.590102,-0.80824 -0.19611,-0.26985 -0.391633,-0.54012 -0.586573,-0.8108 -0.19494,-0.27069 -0.389298,-0.54179 -0.583079,-0.81329 -0.04772,-0.0669 -0.0954,-0.13374 -0.143048,-0.20065 -0.145849,-0.2048 -0.291508,-0.40976 -0.436934,-0.61491 -0.192934,-0.27218 -0.385457,-0.54468 -0.577467,-0.81757 -0.192011,-0.27289 -0.383508,-0.54616 -0.574392,-0.81987 -0.190883,-0.27371 -0.381153,-0.54785 -0.570707,-0.82249 -0.189554,-0.27463 -0.378393,-0.54976 -0.566415,-0.82543 -0.188022,-0.27568 -0.375227,-0.55189 -0.561515,-0.8287 -0.186287,-0.27682 -0.371657,-0.55423 -0.556007,-0.83229 -0.184351,-0.27806 -0.367682,-0.55678 -0.549893,-0.8362 -0.18221,-0.27942 -0.3633,-0.55954 -0.543169,-0.84042 -0.179868,-0.28088 -0.358514,-0.56252 -0.535838,-0.84497 -0.177323,-0.28245 -0.353323,-0.56572 -0.527899,-0.84985 -0.174576,-0.28412 -0.347727,-0.56912 -0.519352,-0.85503 -0.171626,-0.28591 -0.341726,-0.57274 -0.510199,-0.86055 -0.168472,-0.2878 -0.335318,-0.57658 -0.500436,-0.86638 -0.05315,-0.0933 -0.106119,-0.18667 -0.158907,-0.28017 -0.111207,-0.19697 -0.220758,-0.39481 -0.328734,-0.59348 -0.15923,-0.29298 -0.315035,-0.58775 -0.46767,-0.88414 -0.152636,-0.2964 -0.302104,-0.59442 -0.448659,-0.89391 -0.146556,-0.29949 -0.2902,-0.60043 -0.431189,-0.90268 -0.14099,-0.30224 -0.279325,-0.60579 -0.415262,-0.91046 -0.135937,-0.30467 -0.269477,-0.61047 -0.400876,-0.91724 -0.131399,-0.30677 -0.260657,-0.6145 -0.388032,-0.92304 -0.127375,-0.30853 -0.252866,-0.61786 -0.376731,-0.92783 -0.123865,-0.30997 -0.246103,-0.62057 -0.366972,-0.93164 -0.117719,-0.30297 -0.23414,-0.60638 -0.349498,-0.91008 -0.0031,-0.008 -0.0062,-0.0162 -0.0093,-0.0244 -0.118369,-0.31186 -0.235269,-0.62429 -0.350657,-0.93729 -0.115389,-0.313 -0.229266,-0.62657 -0.341589,-0.94069 -0.112323,-0.31413 -0.223091,-0.62882 -0.332262,-0.94406 -0.109171,-0.31524 -0.216744,-0.631033 -0.322677,-0.947371 -0.105934,-0.316337 -0.210226,-0.633219 -0.312836,-0.950639 -0.102609,-0.317419 -0.203535,-0.635376 -0.302735,-0.953862 -0.0992,-0.318487 -0.196672,-0.637503 -0.292376,-0.957041 -0.0957,-0.319537 -0.189639,-0.639597 -0.281761,-0.960172 -0.09212,-0.320574 -0.182432,-0.641662 -0.270886,-0.963258 -0.08846,-0.321595 -0.175054,-0.643697 -0.259755,-0.966298 -0.0847,-0.322601 -0.167503,-0.645702 -0.248364,-0.969294 -0.08086,-0.323591 -0.159782,-0.647675 -0.236717,-0.972242 -0.01009,-0.04255 -0.02014,-0.08512 -0.03016,-0.127689 -0.0664,-0.282122 -0.131558,-0.56471 -0.195262,-0.847736 -0.07332,-0.325734 -0.144702,-0.652048 -0.213818,-0.978902 -0.06912,-0.326855 -0.135959,-0.65425 -0.200193,-0.982146 -0.06423,-0.327895 -0.125855,-0.656291 -0.184525,-0.985147 -0.05867,-0.328855 -0.11439,-0.658171 -0.166818,-0.987907 -0.05243,-0.329736 -0.101563,-0.659891 -0.147066,-0.990427 -0.0455,-0.330535 -0.08738,-0.66145 -0.125274,-0.992704 -0.0379,-0.331254 -0.07182,-0.662848 -0.101439,-0.994741 -0.02961,-0.331893 -0.05492,-0.664086 -0.07556,-0.996537 -0.02065,-0.332451 -0.03664,-0.665162 -0.04765,-0.998091 -0.011,-0.332929 -0.01701,-0.666077 -0.01769,-0.999404 -3.87e-4,-0.19124 9.81e-4,-0.38254 0.0042,-0.57389 0.0024,-0.142168 0.0058,-0.284403 0.01039,-0.426645 0.01079,-0.333694 0.02804,-0.667432 0.05328,-1.000454 0.02524,-0.333022 0.05845,-0.665327 0.101169,-0.996156 0.04272,-0.330829 0.09494,-0.660181 0.158177,-0.987297 0.06324,-0.327115 0.137501,-0.651994 0.224303,-0.973875 0.01812,-0.06718 0.03678,-0.134225 0.056,-0.201135 0.07288,-0.253687 0.154514,-0.505845 0.2459,-0.754477 0.115489,-0.314209 0.246552,-0.622787 0.395203,-0.921708 0.14865,-0.29892 0.314888,-0.588182 0.500726,-0.863759 0.185838,-0.275576 0.391276,-0.537467 0.618328,-0.781645 0.0085,-0.0092 0.01706,-0.01829 0.02564,-0.0274 0.2201,-0.233736 0.443987,-0.463557 0.671399,-0.689661 0.236274,-0.234913 0.476354,-0.465815 0.719948,-0.692928 0.243593,-0.227112 0.4907,-0.450436 0.741028,-0.670193 0.250327,-0.219756 0.503875,-0.435947 0.760351,-0.648794 0.256475,-0.212846 0.515879,-0.42235 0.777917,-0.628732 0.262039,-0.206382 0.526712,-0.409643 0.793727,-0.610006 0.267016,-0.200364 0.536373,-0.397829 0.80778,-0.592618 0.271407,-0.19479 0.544863,-0.386904 0.820075,-0.576566 0.275212,-0.189662 0.552181,-0.376871 0.830614,-0.56185 0.278432,-0.18498 0.558328,-0.36773 0.839395,-0.548472 0.281067,-0.180743 0.563304,-0.359478 0.84642,-0.53643 0.180463,-0.112792 0.361283,-0.224859 0.542384,-0.336259 0.103015,-0.06337 0.206196,-0.126491 0.309542,-0.189366 0.285028,-0.173407 0.571316,-0.344916 0.858864,-0.514391 0.287547,-0.169475 0.576354,-0.336916 0.86642,-0.502189 0.290066,-0.165273 0.581392,-0.328378 0.873977,-0.489179 0.292585,-0.160802 0.58643,-0.319302 0.881535,-0.475363 0.295105,-0.156062 0.59147,-0.309687 0.889095,-0.460739 0.297624,-0.151053 0.596509,-0.299534 0.896655,-0.445308 0.300145,-0.145774 0.60155,-0.288842 0.904216,-0.429069 0.302666,-0.140227 0.606592,-0.277613 0.911779,-0.412024 0.305187,-0.134411 0.611634,-0.265846 0.919343,-0.394171 0.307708,-0.128325 0.616677,-0.25354 0.926907,-0.37551 0.310231,-0.121971 0.621722,-0.240696 0.934474,-0.356043 0.312753,-0.115347 0.626766,-0.227315 0.942041,-0.335769 0.315275,-0.108454 0.631811,-0.213394 0.949609,-0.314686 0.02437,-0.0078 0.04874,-0.01551 0.07313,-0.02324 0.293608,-0.09301 0.587963,-0.18338 0.883015,-0.271264 0.319555,-0.09518 0.639925,-0.187447 0.961045,-0.276979 0.321119,-0.08953 0.642987,-0.176335 0.965537,-0.260593 0.32255,-0.08426 0.645782,-0.165971 0.969628,-0.245328 0.323846,-0.07936 0.648307,-0.156357 0.973316,-0.231187 0.325009,-0.07483 0.650565,-0.147492 0.976602,-0.21817 0.326037,-0.07068 0.652555,-0.139376 0.979486,-0.206277 0.326932,-0.0669 0.654277,-0.132008 0.981969,-0.195507 0.327691,-0.0635 0.65573,-0.125389 0.984048,-0.185859 0.328318,-0.06047 0.656915,-0.11952 0.985726,-0.177337 0.32881,-0.05782 0.657833,-0.1144 0.987001,-0.169937 0.329168,-0.05554 0.658482,-0.110028 0.987875,-0.163661 0.329393,-0.05363 0.658864,-0.106405 0.988346,-0.158507 0.02112,-0.0033 0.04224,-0.0067 0.06336,-0.01001 0.308363,-0.04868 0.616903,-0.09685 0.925616,-0.144329 0.329858,-0.05073 0.659913,-0.100668 0.990157,-0.149594 0.330244,-0.04893 0.660677,-0.09684 0.991293,-0.143527 0.330616,-0.04668 0.661415,-0.09214 0.992389,-0.136138 0.330973,-0.044 0.662123,-0.08655 0.99344,-0.127427 0.331318,-0.04088 0.662804,-0.08008 0.994451,-0.117395 0.331647,-0.03731 0.663456,-0.07273 0.995418,-0.106041 0.331967,-0.03331 0.664077,-0.0645 0.996347,-0.09337 0.33226,-0.02886 0.66467,-0.05539 0.99722,-0.07937 0.33256,-0.02398 0.66525,-0.0454 0.99807,-0.06405 0.33283,-0.01865 0.66578,-0.03453 0.99887,-0.04741 0.33308,-0.01288 0.66629,-0.02277 0.99962,-0.02945 0.33333,-0.0067 0.66678,-0.01014 1.00034,-0.01017 0.007,-10e-7 0.0148,0 0.0222,3e-6 0.32616,-2.83e-4 0.65231,-6.97e-4 0.97847,-0.0011 0.33357,-4.17e-4 0.66713,-8.27e-4 1.00069,-0.0011 0.33357,-2.58e-4 0.66713,-3.63e-4 1.0007,-1.69e-4 0.30018,1.75e-4 0.60035,5.92e-4 0.90053,0.0014 z"
       inkscape:path-effect="#path-effect2444"
       inkscape:original-d="m 105.23656,42.881438 c -8.5735,-0.0033 -24.627906,2.657819 -32.844499,5.363499 -10.445491,3.439644 -21.998641,11.208334 -27.331665,17.095597 -8.386262,9.25781 2.39857,41.647416 8.534879,52.945606 8.435266,15.53103 38.797748,58.6307 54.867445,60.44127 13.94825,-2.20695 46.4327,-44.91024 54.86797,-60.44127 6.13631,-11.29819 16.92114,-43.687796 8.53488,-52.945606 -5.33303,-5.887263 -18.29488,-14.281238 -28.74036,-17.720882 -17.67192,-4.904443 -23.68147,-4.75116 -37.88865,-4.738214 z m 4.59404,12.694833 c 8.49733,0.02174 13.5865,0.335751 25.63047,3.551206 8.13594,2.577261 18.23186,8.867042 22.38572,13.278257 6.53201,6.936703 -1.86813,31.205456 -6.64766,39.670966 -6.57018,11.63712 -31.87221,43.63404 -42.73641,45.28767 C 95.946134,156.00774 72.297009,123.71382 65.726834,112.0767 60.947305,103.61119 52.547173,79.342437 59.079177,72.405734 c 4.153861,-4.411215 13.1527,-10.232292 21.288624,-12.809553 6.399853,-2.027314 18.904566,-4.021376 25.582409,-4.018875 1.38324,-0.0012 2.66648,-0.0041 3.88039,-10e-4 z" />
    <ellipse
       style="fill:none;fill-opacity:1;stroke:#000000;stroke-width:0.813602;stroke-opacity:1;paint-order:fill markers stroke"
       id="path2353"
       cx="106.18258"
       cy="49.60355"
       rx="4.2069511"
       ry="4.234612" />
  </g>
</svg>
