<?xml version="1.0" encoding="UTF-8" standalone="no"?>
<!-- Created with Inkscape (http://www.inkscape.org/) -->

<svg
   width="210mm"
   height="297mm"
   viewBox="0 0 210 297"
   version="1.1"
   id="svg5"
   inkscape:version="1.1 (1:1.1+202106031931+af4d65493e)"
   sodipodi:docname="pattern.svg"
   xmlns:inkscape="http://www.inkscape.org/namespaces/inkscape"
   xmlns:sodipodi="http://sodipodi.sourceforge.net/DTD/sodipodi-0.dtd"
   xmlns="http://www.w3.org/2000/svg"
   xmlns:svg="http://www.w3.org/2000/svg">
  <sodipodi:namedview
     id="namedview7"
     pagecolor="#ffffff"
     bordercolor="#666666"
     borderopacity="1.0"
     inkscape:pageshadow="2"
     inkscape:pageopacity="0.0"
     inkscape:pagecheckerboard="0"
     inkscape:document-units="mm"
     showgrid="false"
     inkscape:zoom="1.9313692"
     inkscape:cx="171.63989"
     inkscape:cy="154.0358"
     inkscape:window-width="1366"
     inkscape:window-height="768"
     inkscape:window-x="0"
     inkscape:window-y="0"
     inkscape:window-maximized="1"
     inkscape:current-layer="layer2" />
  <defs
     id="defs2">
    <filter
       inkscape:collect="always"
       style="color-interpolation-filters:sRGB"
       id="filter3923"
       x="-0.16177851"
       y="-0.16177851"
       width="1.323557"
       height="1.323557">
      <feGaussianBlur
         inkscape:collect="always"
         stdDeviation="3.8361295"
         id="feGaussianBlur3925" />
    </filter>
  </defs>
  <g
     inkscape:label="Слой 1"
     inkscape:groupmode="layer"
     id="layer1">
    <g
       id="g2410"
       transform="matrix(1,0,0,-1,0.78093068,55.194571)"
       style="fill-opacity:1;fill:#ff0000;stroke:#ffff00;stroke-opacity:1">
      <g
         id="g2330"
         style="fill-opacity:1;fill:#ff0000;stroke:#ffff00;stroke-opacity:1">
        <g
           id="g2264"
           style="fill:#ff0000;fill-opacity:1;stroke:#ffff00;stroke-opacity:1"
           transform="matrix(0.15135378,0,0,0.1683412,7.6614837,1.0995419)">
          <g
             id="g1702"
             transform="matrix(1.0007184,0,0,0.87342141,-0.06908732,9.9205349)"
             inkscape:transform-center-x="0.3767752"
             inkscape:transform-center-y="-0.52091471"
             style="fill:#ff0000;fill-opacity:1;stroke:#ffff00;stroke-opacity:1">
            <path
               id="rect1412"
               style="fill:#ff0000;fill-opacity:1;stroke:#ffff00;stroke-width:3.66096;stroke-linejoin:miter;stroke-miterlimit:6.1;stroke-dasharray:none;paint-order:fill markers stroke;stroke-opacity:1"
               d="m 181.08008,297.07227 v 117.28515 h 33.37109 l 80.71094,84.11328 84.62695,-81.20312 -81.20312,-84.62696 -0.22266,0.2129 v -35.78125 z"
               transform="scale(0.26458333)" />
            <path
               id="path2090"
               style="fill:#ff0000;fill-opacity:1;stroke:#ffff00;stroke-width:0.968629;stroke-linejoin:miter;stroke-miterlimit:6.1;stroke-dasharray:none;paint-order:fill markers stroke;stroke-opacity:1"
               d="m 144.43196,79.37035 v 31.0317 h -8.82943 l -21.35477,22.25497 -22.390876,-21.48499 21.484986,-22.390887 0.0589,0.05633 V 79.37035 Z" />
          </g>
          <g
             id="g2176"
             transform="matrix(1.0007184,0,0,-0.87342141,-0.40912735,223.21436)"
             inkscape:transform-center-x="0.3767752"
             inkscape:transform-center-y="0.52091286"
             style="fill:#ff0000;fill-opacity:1;stroke:#ffff00;stroke-opacity:1">
            <path
               id="path2172"
               style="fill:#ff0000;fill-opacity:1;stroke:#ffff00;stroke-width:3.66096;stroke-linejoin:miter;stroke-miterlimit:6.1;stroke-dasharray:none;paint-order:fill markers stroke;stroke-opacity:1"
               d="m 181.08008,297.07227 v 117.28515 h 33.37109 l 80.71094,84.11328 84.62695,-81.20312 -81.20312,-84.62696 -0.22266,0.2129 v -35.78125 z"
               transform="scale(0.26458333)" />
            <path
               id="path2174"
               style="fill:#ff0000;fill-opacity:1;stroke:#ffff00;stroke-width:0.968629;stroke-linejoin:miter;stroke-miterlimit:6.1;stroke-dasharray:none;paint-order:fill markers stroke;stroke-opacity:1"
               d="m 144.43196,79.37035 v 31.0317 h -8.82943 l -21.35477,22.25497 -22.390876,-21.48499 21.484986,-22.390887 0.0589,0.05633 V 79.37035 Z" />
          </g>
        </g>
        <g
           id="g2314"
           style="fill:#ff0000;fill-opacity:1;stroke:#ffff00;stroke-opacity:1"
           transform="matrix(0.15135378,0,0,0.1683412,26.074554,1.1574276)">
          <g
             id="g2306"
             transform="matrix(1.0007184,0,0,0.87342141,-0.06908732,9.9205349)"
             inkscape:transform-center-x="0.3767752"
             inkscape:transform-center-y="-0.52091471"
             style="fill:#ff0000;fill-opacity:1;stroke:#ffff00;stroke-opacity:1">
            <path
               id="path2302"
               style="fill:#ff0000;fill-opacity:1;stroke:#ffff00;stroke-width:3.66096;stroke-linejoin:miter;stroke-miterlimit:6.1;stroke-dasharray:none;paint-order:fill markers stroke;stroke-opacity:1"
               d="m 181.08008,297.07227 v 117.28515 h 33.37109 l 80.71094,84.11328 84.62695,-81.20312 -81.20312,-84.62696 -0.22266,0.2129 v -35.78125 z"
               transform="scale(0.26458333)" />
            <path
               id="path2304"
               style="fill:#ff0000;fill-opacity:1;stroke:#ffff00;stroke-width:0.968629;stroke-linejoin:miter;stroke-miterlimit:6.1;stroke-dasharray:none;paint-order:fill markers stroke;stroke-opacity:1"
               d="m 144.43196,79.37035 v 31.0317 h -8.82943 l -21.35477,22.25497 -22.390876,-21.48499 21.484986,-22.390887 0.0589,0.05633 V 79.37035 Z" />
          </g>
          <g
             id="g2312"
             transform="matrix(1.0007184,0,0,-0.87342141,-0.40912735,223.21436)"
             inkscape:transform-center-x="0.3767752"
             inkscape:transform-center-y="0.52091286"
             style="fill:#ff0000;fill-opacity:1;stroke:#ffff00;stroke-opacity:1">
            <path
               id="path2308"
               style="fill:#ff0000;fill-opacity:1;stroke:#ffff00;stroke-width:3.66096;stroke-linejoin:miter;stroke-miterlimit:6.1;stroke-dasharray:none;paint-order:fill markers stroke;stroke-opacity:1"
               d="m 181.08008,297.07227 v 117.28515 h 33.37109 l 80.71094,84.11328 84.62695,-81.20312 -81.20312,-84.62696 -0.22266,0.2129 v -35.78125 z"
               transform="scale(0.26458333)" />
            <path
               id="path2310"
               style="fill:#ff0000;fill-opacity:1;stroke:#ffff00;stroke-width:0.968629;stroke-linejoin:miter;stroke-miterlimit:6.1;stroke-dasharray:none;paint-order:fill markers stroke;stroke-opacity:1"
               d="m 144.43196,79.37035 v 31.0317 h -8.82943 l -21.35477,22.25497 -22.390876,-21.48499 21.484986,-22.390887 0.0589,0.05633 V 79.37035 Z" />
          </g>
        </g>
      </g>
      <g
         id="g2360"
         transform="translate(0.1770352,15.918544)"
         style="fill:#ff0000;fill-opacity:1;stroke:#ffff00;stroke-opacity:1">
        <g
           id="g2344"
           style="fill:#ff0000;fill-opacity:1;stroke:#ffff00;stroke-opacity:1"
           transform="matrix(0.15135378,0,0,0.1683412,7.6614837,1.0995419)">
          <g
             id="g2336"
             transform="matrix(1.0007184,0,0,0.87342141,-0.06908732,9.9205349)"
             inkscape:transform-center-x="0.3767752"
             inkscape:transform-center-y="-0.52091471"
             style="fill:#ff0000;fill-opacity:1;stroke:#ffff00;stroke-opacity:1">
            <path
               id="path2332"
               style="fill:#ff0000;fill-opacity:1;stroke:#ffff00;stroke-width:3.66096;stroke-linejoin:miter;stroke-miterlimit:6.1;stroke-dasharray:none;paint-order:fill markers stroke;stroke-opacity:1"
               d="m 181.08008,297.07227 v 117.28515 h 33.37109 l 80.71094,84.11328 84.62695,-81.20312 -81.20312,-84.62696 -0.22266,0.2129 v -35.78125 z"
               transform="scale(0.26458333)" />
            <path
               id="path2334"
               style="fill:#ff0000;fill-opacity:1;stroke:#ffff00;stroke-width:0.968629;stroke-linejoin:miter;stroke-miterlimit:6.1;stroke-dasharray:none;paint-order:fill markers stroke;stroke-opacity:1"
               d="m 144.43196,79.37035 v 31.0317 h -8.82943 l -21.35477,22.25497 -22.390876,-21.48499 21.484986,-22.390887 0.0589,0.05633 V 79.37035 Z" />
          </g>
          <g
             id="g2342"
             transform="matrix(1.0007184,0,0,-0.87342141,-0.40912735,223.21436)"
             inkscape:transform-center-x="0.3767752"
             inkscape:transform-center-y="0.52091286"
             style="fill:#ff0000;fill-opacity:1;stroke:#ffff00;stroke-opacity:1">
            <path
               id="path2338"
               style="fill:#ff0000;fill-opacity:1;stroke:#ffff00;stroke-width:3.66096;stroke-linejoin:miter;stroke-miterlimit:6.1;stroke-dasharray:none;paint-order:fill markers stroke;stroke-opacity:1"
               d="m 181.08008,297.07227 v 117.28515 h 33.37109 l 80.71094,84.11328 84.62695,-81.20312 -81.20312,-84.62696 -0.22266,0.2129 v -35.78125 z"
               transform="scale(0.26458333)" />
            <path
               id="path2340"
               style="fill:#ff0000;fill-opacity:1;stroke:#ffff00;stroke-width:0.968629;stroke-linejoin:miter;stroke-miterlimit:6.1;stroke-dasharray:none;paint-order:fill markers stroke;stroke-opacity:1"
               d="m 144.43196,79.37035 v 31.0317 h -8.82943 l -21.35477,22.25497 -22.390876,-21.48499 21.484986,-22.390887 0.0589,0.05633 V 79.37035 Z" />
          </g>
        </g>
        <g
           id="g2358"
           style="fill:#ff0000;fill-opacity:1;stroke:#ffff00;stroke-opacity:1"
           transform="matrix(0.15135378,0,0,0.1683412,26.074554,1.1574276)">
          <g
             id="g2350"
             transform="matrix(1.0007184,0,0,0.87342141,-0.06908732,9.9205349)"
             inkscape:transform-center-x="0.3767752"
             inkscape:transform-center-y="-0.52091471"
             style="fill:#ff0000;fill-opacity:1;stroke:#ffff00;stroke-opacity:1">
            <path
               id="path2346"
               style="fill:#ff0000;fill-opacity:1;stroke:#ffff00;stroke-width:3.66096;stroke-linejoin:miter;stroke-miterlimit:6.1;stroke-dasharray:none;paint-order:fill markers stroke;stroke-opacity:1"
               d="m 181.08008,297.07227 v 117.28515 h 33.37109 l 80.71094,84.11328 84.62695,-81.20312 -81.20312,-84.62696 -0.22266,0.2129 v -35.78125 z"
               transform="scale(0.26458333)" />
            <path
               id="path2348"
               style="fill:#ff0000;fill-opacity:1;stroke:#ffff00;stroke-width:0.968629;stroke-linejoin:miter;stroke-miterlimit:6.1;stroke-dasharray:none;paint-order:fill markers stroke;stroke-opacity:1"
               d="m 144.43196,79.37035 v 31.0317 h -8.82943 l -21.35477,22.25497 -22.390876,-21.48499 21.484986,-22.390887 0.0589,0.05633 V 79.37035 Z" />
          </g>
          <g
             id="g2356"
             transform="matrix(1.0007184,0,0,-0.87342141,-0.40912735,223.21436)"
             inkscape:transform-center-x="0.3767752"
             inkscape:transform-center-y="0.52091286"
             style="fill:#ff0000;fill-opacity:1;stroke:#ffff00;stroke-opacity:1">
            <path
               id="path2352"
               style="fill:#ff0000;fill-opacity:1;stroke:#ffff00;stroke-width:3.66096;stroke-linejoin:miter;stroke-miterlimit:6.1;stroke-dasharray:none;paint-order:fill markers stroke;stroke-opacity:1"
               d="m 181.08008,297.07227 v 117.28515 h 33.37109 l 80.71094,84.11328 84.62695,-81.20312 -81.20312,-84.62696 -0.22266,0.2129 v -35.78125 z"
               transform="scale(0.26458333)" />
            <path
               id="path2354"
               style="fill:#ff0000;fill-opacity:1;stroke:#ffff00;stroke-width:0.968629;stroke-linejoin:miter;stroke-miterlimit:6.1;stroke-dasharray:none;paint-order:fill markers stroke;stroke-opacity:1"
               d="m 144.43196,79.37035 v 31.0317 h -8.82943 l -21.35477,22.25497 -22.390876,-21.48499 21.484986,-22.390887 0.0589,0.05633 V 79.37035 Z" />
          </g>
        </g>
      </g>
    </g>
    <g
       id="g2472"
       transform="matrix(1,0,0,-1,0.87785145,88.426306)"
       style="fill-opacity:1;fill:#ff0000;stroke:#ffff00;stroke-opacity:1">
      <g
         id="g2440"
         style="fill-opacity:1;fill:#ff0000;stroke:#ffff00;stroke-opacity:1">
        <g
           id="g2424"
           style="fill:#ff0000;fill-opacity:1;stroke:#ffff00;stroke-opacity:1"
           transform="matrix(0.15135378,0,0,0.1683412,7.6614837,1.0995419)">
          <g
             id="g2416"
             transform="matrix(1.0007184,0,0,0.87342141,-0.06908732,9.9205349)"
             inkscape:transform-center-x="0.3767752"
             inkscape:transform-center-y="-0.52091471"
             style="fill:#ff0000;fill-opacity:1;stroke:#ffff00;stroke-opacity:1">
            <path
               id="path2412"
               style="fill:#ff0000;fill-opacity:1;stroke:#ffff00;stroke-width:3.66096;stroke-linejoin:miter;stroke-miterlimit:6.1;stroke-dasharray:none;paint-order:fill markers stroke;stroke-opacity:1"
               d="m 181.08008,297.07227 v 117.28515 h 33.37109 l 80.71094,84.11328 84.62695,-81.20312 -81.20312,-84.62696 -0.22266,0.2129 v -35.78125 z"
               transform="scale(0.26458333)" />
            <path
               id="path2414"
               style="fill:#ff0000;fill-opacity:1;stroke:#ffff00;stroke-width:0.968629;stroke-linejoin:miter;stroke-miterlimit:6.1;stroke-dasharray:none;paint-order:fill markers stroke;stroke-opacity:1"
               d="m 144.43196,79.37035 v 31.0317 h -8.82943 l -21.35477,22.25497 -22.390876,-21.48499 21.484986,-22.390887 0.0589,0.05633 V 79.37035 Z" />
          </g>
          <g
             id="g2422"
             transform="matrix(1.0007184,0,0,-0.87342141,-0.40912735,223.21436)"
             inkscape:transform-center-x="0.3767752"
             inkscape:transform-center-y="0.52091286"
             style="fill:#ff0000;fill-opacity:1;stroke:#ffff00;stroke-opacity:1">
            <path
               id="path2418"
               style="fill:#ff0000;fill-opacity:1;stroke:#ffff00;stroke-width:3.66096;stroke-linejoin:miter;stroke-miterlimit:6.1;stroke-dasharray:none;paint-order:fill markers stroke;stroke-opacity:1"
               d="m 181.08008,297.07227 v 117.28515 h 33.37109 l 80.71094,84.11328 84.62695,-81.20312 -81.20312,-84.62696 -0.22266,0.2129 v -35.78125 z"
               transform="scale(0.26458333)" />
            <path
               id="path2420"
               style="fill:#ff0000;fill-opacity:1;stroke:#ffff00;stroke-width:0.968629;stroke-linejoin:miter;stroke-miterlimit:6.1;stroke-dasharray:none;paint-order:fill markers stroke;stroke-opacity:1"
               d="m 144.43196,79.37035 v 31.0317 h -8.82943 l -21.35477,22.25497 -22.390876,-21.48499 21.484986,-22.390887 0.0589,0.05633 V 79.37035 Z" />
          </g>
        </g>
        <g
           id="g2438"
           style="fill:#ff0000;fill-opacity:1;stroke:#ffff00;stroke-opacity:1"
           transform="matrix(0.15135378,0,0,0.1683412,26.074554,1.1574276)">
          <g
             id="g2430"
             transform="matrix(1.0007184,0,0,0.87342141,-0.06908732,9.9205349)"
             inkscape:transform-center-x="0.3767752"
             inkscape:transform-center-y="-0.52091471"
             style="fill:#ff0000;fill-opacity:1;stroke:#ffff00;stroke-opacity:1">
            <path
               id="path2426"
               style="fill:#ff0000;fill-opacity:1;stroke:#ffff00;stroke-width:3.66096;stroke-linejoin:miter;stroke-miterlimit:6.1;stroke-dasharray:none;paint-order:fill markers stroke;stroke-opacity:1"
               d="m 181.08008,297.07227 v 117.28515 h 33.37109 l 80.71094,84.11328 84.62695,-81.20312 -81.20312,-84.62696 -0.22266,0.2129 v -35.78125 z"
               transform="scale(0.26458333)" />
            <path
               id="path2428"
               style="fill:#ff0000;fill-opacity:1;stroke:#ffff00;stroke-width:0.968629;stroke-linejoin:miter;stroke-miterlimit:6.1;stroke-dasharray:none;paint-order:fill markers stroke;stroke-opacity:1"
               d="m 144.43196,79.37035 v 31.0317 h -8.82943 l -21.35477,22.25497 -22.390876,-21.48499 21.484986,-22.390887 0.0589,0.05633 V 79.37035 Z" />
          </g>
          <g
             id="g2436"
             transform="matrix(1.0007184,0,0,-0.87342141,-0.40912735,223.21436)"
             inkscape:transform-center-x="0.3767752"
             inkscape:transform-center-y="0.52091286"
             style="fill:#ff0000;fill-opacity:1;stroke:#ffff00;stroke-opacity:1">
            <path
               id="path2432"
               style="fill:#ff0000;fill-opacity:1;stroke:#ffff00;stroke-width:3.66096;stroke-linejoin:miter;stroke-miterlimit:6.1;stroke-dasharray:none;paint-order:fill markers stroke;stroke-opacity:1"
               d="m 181.08008,297.07227 v 117.28515 h 33.37109 l 80.71094,84.11328 84.62695,-81.20312 -81.20312,-84.62696 -0.22266,0.2129 v -35.78125 z"
               transform="scale(0.26458333)" />
            <path
               id="path2434"
               style="fill:#ff0000;fill-opacity:1;stroke:#ffff00;stroke-width:0.968629;stroke-linejoin:miter;stroke-miterlimit:6.1;stroke-dasharray:none;paint-order:fill markers stroke;stroke-opacity:1"
               d="m 144.43196,79.37035 v 31.0317 h -8.82943 l -21.35477,22.25497 -22.390876,-21.48499 21.484986,-22.390887 0.0589,0.05633 V 79.37035 Z" />
          </g>
        </g>
      </g>
      <g
         id="g2470"
         transform="translate(0.1770352,15.918544)"
         style="fill:#ff0000;fill-opacity:1;stroke:#ffff00;stroke-opacity:1">
        <g
           id="g2454"
           style="fill:#ff0000;fill-opacity:1;stroke:#ffff00;stroke-opacity:1"
           transform="matrix(0.15135378,0,0,0.1683412,7.6614837,1.0995419)">
          <g
             id="g2446"
             transform="matrix(1.0007184,0,0,0.87342141,-0.06908732,9.9205349)"
             inkscape:transform-center-x="0.3767752"
             inkscape:transform-center-y="-0.52091471"
             style="fill:#ff0000;fill-opacity:1;stroke:#ffff00;stroke-opacity:1">
            <path
               id="path2442"
               style="fill:#ff0000;fill-opacity:1;stroke:#ffff00;stroke-width:3.66096;stroke-linejoin:miter;stroke-miterlimit:6.1;stroke-dasharray:none;paint-order:fill markers stroke;stroke-opacity:1"
               d="m 181.08008,297.07227 v 117.28515 h 33.37109 l 80.71094,84.11328 84.62695,-81.20312 -81.20312,-84.62696 -0.22266,0.2129 v -35.78125 z"
               transform="scale(0.26458333)" />
            <path
               id="path2444"
               style="fill:#ff0000;fill-opacity:1;stroke:#ffff00;stroke-width:0.968629;stroke-linejoin:miter;stroke-miterlimit:6.1;stroke-dasharray:none;paint-order:fill markers stroke;stroke-opacity:1"
               d="m 144.43196,79.37035 v 31.0317 h -8.82943 l -21.35477,22.25497 -22.390876,-21.48499 21.484986,-22.390887 0.0589,0.05633 V 79.37035 Z" />
          </g>
          <g
             id="g2452"
             transform="matrix(1.0007184,0,0,-0.87342141,-0.40912735,223.21436)"
             inkscape:transform-center-x="0.3767752"
             inkscape:transform-center-y="0.52091286"
             style="fill:#ff0000;fill-opacity:1;stroke:#ffff00;stroke-opacity:1">
            <path
               id="path2448"
               style="fill:#ff0000;fill-opacity:1;stroke:#ffff00;stroke-width:3.66096;stroke-linejoin:miter;stroke-miterlimit:6.1;stroke-dasharray:none;paint-order:fill markers stroke;stroke-opacity:1"
               d="m 181.08008,297.07227 v 117.28515 h 33.37109 l 80.71094,84.11328 84.62695,-81.20312 -81.20312,-84.62696 -0.22266,0.2129 v -35.78125 z"
               transform="scale(0.26458333)" />
            <path
               id="path2450"
               style="fill:#ff0000;fill-opacity:1;stroke:#ffff00;stroke-width:0.968629;stroke-linejoin:miter;stroke-miterlimit:6.1;stroke-dasharray:none;paint-order:fill markers stroke;stroke-opacity:1"
               d="m 144.43196,79.37035 v 31.0317 h -8.82943 l -21.35477,22.25497 -22.390876,-21.48499 21.484986,-22.390887 0.0589,0.05633 V 79.37035 Z" />
          </g>
        </g>
        <g
           id="g2468"
           style="fill:#ff0000;fill-opacity:1;stroke:#ffff00;stroke-opacity:1"
           transform="matrix(0.15135378,0,0,0.1683412,26.074554,1.1574276)">
          <g
             id="g2460"
             transform="matrix(1.0007184,0,0,0.87342141,-0.06908732,9.9205349)"
             inkscape:transform-center-x="0.3767752"
             inkscape:transform-center-y="-0.52091471"
             style="fill:#ff0000;fill-opacity:1;stroke:#ffff00;stroke-opacity:1">
            <path
               id="path2456"
               style="fill:#ff0000;fill-opacity:1;stroke:#ffff00;stroke-width:3.66096;stroke-linejoin:miter;stroke-miterlimit:6.1;stroke-dasharray:none;paint-order:fill markers stroke;stroke-opacity:1"
               d="m 181.08008,297.07227 v 117.28515 h 33.37109 l 80.71094,84.11328 84.62695,-81.20312 -81.20312,-84.62696 -0.22266,0.2129 v -35.78125 z"
               transform="scale(0.26458333)" />
            <path
               id="path2458"
               style="fill:#ff0000;fill-opacity:1;stroke:#ffff00;stroke-width:0.968629;stroke-linejoin:miter;stroke-miterlimit:6.1;stroke-dasharray:none;paint-order:fill markers stroke;stroke-opacity:1"
               d="m 144.43196,79.37035 v 31.0317 h -8.82943 l -21.35477,22.25497 -22.390876,-21.48499 21.484986,-22.390887 0.0589,0.05633 V 79.37035 Z" />
          </g>
          <g
             id="g2466"
             transform="matrix(1.0007184,0,0,-0.87342141,-0.40912735,223.21436)"
             inkscape:transform-center-x="0.3767752"
             inkscape:transform-center-y="0.52091286"
             style="fill:#ff0000;fill-opacity:1;stroke:#ffff00;stroke-opacity:1">
            <path
               id="path2462"
               style="fill:#ff0000;fill-opacity:1;stroke:#ffff00;stroke-width:3.66096;stroke-linejoin:miter;stroke-miterlimit:6.1;stroke-dasharray:none;paint-order:fill markers stroke;stroke-opacity:1"
               d="m 181.08008,297.07227 v 117.28515 h 33.37109 l 80.71094,84.11328 84.62695,-81.20312 -81.20312,-84.62696 -0.22266,0.2129 v -35.78125 z"
               transform="scale(0.26458333)" />
            <path
               id="path2464"
               style="fill:#ff0000;fill-opacity:1;stroke:#ffff00;stroke-width:0.968629;stroke-linejoin:miter;stroke-miterlimit:6.1;stroke-dasharray:none;paint-order:fill markers stroke;stroke-opacity:1"
               d="m 144.43196,79.37035 v 31.0317 h -8.82943 l -21.35477,22.25497 -22.390876,-21.48499 21.484986,-22.390887 0.0589,0.05633 V 79.37035 Z" />
          </g>
        </g>
      </g>
    </g>
    <g
       id="g2534"
       transform="translate(39.296848,-2.1598997)"
       style="fill-opacity:1;fill:#ff0000;stroke:#ffff00;stroke-opacity:1">
      <g
         id="g2502"
         style="fill-opacity:1;fill:#ff0000;stroke:#ffff00;stroke-opacity:1">
        <g
           id="g2486"
           style="fill:#ff0000;fill-opacity:1;stroke:#ffff00;stroke-opacity:1"
           transform="matrix(0.15135378,0,0,0.1683412,7.6614837,1.0995419)">
          <g
             id="g2478"
             transform="matrix(1.0007184,0,0,0.87342141,-0.06908732,9.9205349)"
             inkscape:transform-center-x="0.3767752"
             inkscape:transform-center-y="-0.52091471"
             style="fill:#ff0000;fill-opacity:1;stroke:#ffff00;stroke-opacity:1">
            <path
               id="path2474"
               style="fill:#ff0000;fill-opacity:1;stroke:#ffff00;stroke-width:3.66096;stroke-linejoin:miter;stroke-miterlimit:6.1;stroke-dasharray:none;paint-order:fill markers stroke;stroke-opacity:1"
               d="m 181.08008,297.07227 v 117.28515 h 33.37109 l 80.71094,84.11328 84.62695,-81.20312 -81.20312,-84.62696 -0.22266,0.2129 v -35.78125 z"
               transform="scale(0.26458333)" />
            <path
               id="path2476"
               style="fill:#ff0000;fill-opacity:1;stroke:#ffff00;stroke-width:0.968629;stroke-linejoin:miter;stroke-miterlimit:6.1;stroke-dasharray:none;paint-order:fill markers stroke;stroke-opacity:1"
               d="m 144.43196,79.37035 v 31.0317 h -8.82943 l -21.35477,22.25497 -22.390876,-21.48499 21.484986,-22.390887 0.0589,0.05633 V 79.37035 Z" />
          </g>
          <g
             id="g2484"
             transform="matrix(1.0007184,0,0,-0.87342141,-0.40912735,223.21436)"
             inkscape:transform-center-x="0.3767752"
             inkscape:transform-center-y="0.52091286"
             style="fill:#ff0000;fill-opacity:1;stroke:#ffff00;stroke-opacity:1">
            <path
               id="path2480"
               style="fill:#ff0000;fill-opacity:1;stroke:#ffff00;stroke-width:3.66096;stroke-linejoin:miter;stroke-miterlimit:6.1;stroke-dasharray:none;paint-order:fill markers stroke;stroke-opacity:1"
               d="m 181.08008,297.07227 v 117.28515 h 33.37109 l 80.71094,84.11328 84.62695,-81.20312 -81.20312,-84.62696 -0.22266,0.2129 v -35.78125 z"
               transform="scale(0.26458333)" />
            <path
               id="path2482"
               style="fill:#ff0000;fill-opacity:1;stroke:#ffff00;stroke-width:0.968629;stroke-linejoin:miter;stroke-miterlimit:6.1;stroke-dasharray:none;paint-order:fill markers stroke;stroke-opacity:1"
               d="m 144.43196,79.37035 v 31.0317 h -8.82943 l -21.35477,22.25497 -22.390876,-21.48499 21.484986,-22.390887 0.0589,0.05633 V 79.37035 Z" />
          </g>
        </g>
        <g
           id="g2500"
           style="fill:#ff0000;fill-opacity:1;stroke:#ffff00;stroke-opacity:1"
           transform="matrix(0.15135378,0,0,0.1683412,26.074554,1.1574276)">
          <g
             id="g2492"
             transform="matrix(1.0007184,0,0,0.87342141,-0.06908732,9.9205349)"
             inkscape:transform-center-x="0.3767752"
             inkscape:transform-center-y="-0.52091471"
             style="fill:#ff0000;fill-opacity:1;stroke:#ffff00;stroke-opacity:1">
            <path
               id="path2488"
               style="fill:#ff0000;fill-opacity:1;stroke:#ffff00;stroke-width:3.66096;stroke-linejoin:miter;stroke-miterlimit:6.1;stroke-dasharray:none;paint-order:fill markers stroke;stroke-opacity:1"
               d="m 181.08008,297.07227 v 117.28515 h 33.37109 l 80.71094,84.11328 84.62695,-81.20312 -81.20312,-84.62696 -0.22266,0.2129 v -35.78125 z"
               transform="scale(0.26458333)" />
            <path
               id="path2490"
               style="fill:#ff0000;fill-opacity:1;stroke:#ffff00;stroke-width:0.968629;stroke-linejoin:miter;stroke-miterlimit:6.1;stroke-dasharray:none;paint-order:fill markers stroke;stroke-opacity:1"
               d="m 144.43196,79.37035 v 31.0317 h -8.82943 l -21.35477,22.25497 -22.390876,-21.48499 21.484986,-22.390887 0.0589,0.05633 V 79.37035 Z" />
          </g>
          <g
             id="g2498"
             transform="matrix(1.0007184,0,0,-0.87342141,-0.40912735,223.21436)"
             inkscape:transform-center-x="0.3767752"
             inkscape:transform-center-y="0.52091286"
             style="fill:#ff0000;fill-opacity:1;stroke:#ffff00;stroke-opacity:1">
            <path
               id="path2494"
               style="fill:#ff0000;fill-opacity:1;stroke:#ffff00;stroke-width:3.66096;stroke-linejoin:miter;stroke-miterlimit:6.1;stroke-dasharray:none;paint-order:fill markers stroke;stroke-opacity:1"
               d="m 181.08008,297.07227 v 117.28515 h 33.37109 l 80.71094,84.11328 84.62695,-81.20312 -81.20312,-84.62696 -0.22266,0.2129 v -35.78125 z"
               transform="scale(0.26458333)" />
            <path
               id="path2496"
               style="fill:#ff0000;fill-opacity:1;stroke:#ffff00;stroke-width:0.968629;stroke-linejoin:miter;stroke-miterlimit:6.1;stroke-dasharray:none;paint-order:fill markers stroke;stroke-opacity:1"
               d="m 144.43196,79.37035 v 31.0317 h -8.82943 l -21.35477,22.25497 -22.390876,-21.48499 21.484986,-22.390887 0.0589,0.05633 V 79.37035 Z" />
          </g>
        </g>
      </g>
      <g
         id="g2532"
         transform="translate(0.1770352,15.918544)"
         style="fill:#ff0000;fill-opacity:1;stroke:#ffff00;stroke-opacity:1">
        <g
           id="g2516"
           style="fill:#ff0000;fill-opacity:1;stroke:#ffff00;stroke-opacity:1"
           transform="matrix(0.15135378,0,0,0.1683412,7.6614837,1.0995419)">
          <g
             id="g2508"
             transform="matrix(1.0007184,0,0,0.87342141,-0.06908732,9.9205349)"
             inkscape:transform-center-x="0.3767752"
             inkscape:transform-center-y="-0.52091471"
             style="fill:#ff0000;fill-opacity:1;stroke:#ffff00;stroke-opacity:1">
            <path
               id="path2504"
               style="fill:#ff0000;fill-opacity:1;stroke:#ffff00;stroke-width:3.66096;stroke-linejoin:miter;stroke-miterlimit:6.1;stroke-dasharray:none;paint-order:fill markers stroke;stroke-opacity:1"
               d="m 181.08008,297.07227 v 117.28515 h 33.37109 l 80.71094,84.11328 84.62695,-81.20312 -81.20312,-84.62696 -0.22266,0.2129 v -35.78125 z"
               transform="scale(0.26458333)" />
            <path
               id="path2506"
               style="fill:#ff0000;fill-opacity:1;stroke:#ffff00;stroke-width:0.968629;stroke-linejoin:miter;stroke-miterlimit:6.1;stroke-dasharray:none;paint-order:fill markers stroke;stroke-opacity:1"
               d="m 144.43196,79.37035 v 31.0317 h -8.82943 l -21.35477,22.25497 -22.390876,-21.48499 21.484986,-22.390887 0.0589,0.05633 V 79.37035 Z" />
          </g>
          <g
             id="g2514"
             transform="matrix(1.0007184,0,0,-0.87342141,-0.40912735,223.21436)"
             inkscape:transform-center-x="0.3767752"
             inkscape:transform-center-y="0.52091286"
             style="fill:#ff0000;fill-opacity:1;stroke:#ffff00;stroke-opacity:1">
            <path
               id="path2510"
               style="fill:#ff0000;fill-opacity:1;stroke:#ffff00;stroke-width:3.66096;stroke-linejoin:miter;stroke-miterlimit:6.1;stroke-dasharray:none;paint-order:fill markers stroke;stroke-opacity:1"
               d="m 181.08008,297.07227 v 117.28515 h 33.37109 l 80.71094,84.11328 84.62695,-81.20312 -81.20312,-84.62696 -0.22266,0.2129 v -35.78125 z"
               transform="scale(0.26458333)" />
            <path
               id="path2512"
               style="fill:#ff0000;fill-opacity:1;stroke:#ffff00;stroke-width:0.968629;stroke-linejoin:miter;stroke-miterlimit:6.1;stroke-dasharray:none;paint-order:fill markers stroke;stroke-opacity:1"
               d="m 144.43196,79.37035 v 31.0317 h -8.82943 l -21.35477,22.25497 -22.390876,-21.48499 21.484986,-22.390887 0.0589,0.05633 V 79.37035 Z" />
          </g>
        </g>
        <g
           id="g2530"
           style="fill:#ff0000;fill-opacity:1;stroke:#ffff00;stroke-opacity:1"
           transform="matrix(0.15135378,0,0,0.1683412,26.074554,1.1574276)">
          <g
             id="g2522"
             transform="matrix(1.0007184,0,0,0.87342141,-0.06908732,9.9205349)"
             inkscape:transform-center-x="0.3767752"
             inkscape:transform-center-y="-0.52091471"
             style="fill:#ff0000;fill-opacity:1;stroke:#ffff00;stroke-opacity:1">
            <path
               id="path2518"
               style="fill:#ff0000;fill-opacity:1;stroke:#ffff00;stroke-width:3.66096;stroke-linejoin:miter;stroke-miterlimit:6.1;stroke-dasharray:none;paint-order:fill markers stroke;stroke-opacity:1"
               d="m 181.08008,297.07227 v 117.28515 h 33.37109 l 80.71094,84.11328 84.62695,-81.20312 -81.20312,-84.62696 -0.22266,0.2129 v -35.78125 z"
               transform="scale(0.26458333)" />
            <path
               id="path2520"
               style="fill:#ff0000;fill-opacity:1;stroke:#ffff00;stroke-width:0.968629;stroke-linejoin:miter;stroke-miterlimit:6.1;stroke-dasharray:none;paint-order:fill markers stroke;stroke-opacity:1"
               d="m 144.43196,79.37035 v 31.0317 h -8.82943 l -21.35477,22.25497 -22.390876,-21.48499 21.484986,-22.390887 0.0589,0.05633 V 79.37035 Z" />
          </g>
          <g
             id="g2528"
             transform="matrix(1.0007184,0,0,-0.87342141,-0.40912735,223.21436)"
             inkscape:transform-center-x="0.3767752"
             inkscape:transform-center-y="0.52091286"
             style="fill:#ff0000;fill-opacity:1;stroke:#ffff00;stroke-opacity:1">
            <path
               id="path2524"
               style="fill:#ff0000;fill-opacity:1;stroke:#ffff00;stroke-width:3.66096;stroke-linejoin:miter;stroke-miterlimit:6.1;stroke-dasharray:none;paint-order:fill markers stroke;stroke-opacity:1"
               d="m 181.08008,297.07227 v 117.28515 h 33.37109 l 80.71094,84.11328 84.62695,-81.20312 -81.20312,-84.62696 -0.22266,0.2129 v -35.78125 z"
               transform="scale(0.26458333)" />
            <path
               id="path2526"
               style="fill:#ff0000;fill-opacity:1;stroke:#ffff00;stroke-width:0.968629;stroke-linejoin:miter;stroke-miterlimit:6.1;stroke-dasharray:none;paint-order:fill markers stroke;stroke-opacity:1"
               d="m 144.43196,79.37035 v 31.0317 h -8.82943 l -21.35477,22.25497 -22.390876,-21.48499 21.484986,-22.390887 0.0589,0.05633 V 79.37035 Z" />
          </g>
        </g>
      </g>
    </g>
    <g
       id="g2596"
       transform="translate(39.393769,31.071835)"
       style="fill-opacity:1;fill:#ff0000;stroke:#ffff00;stroke-opacity:1">
      <g
         id="g2564"
         style="fill-opacity:1;fill:#ff0000;stroke:#ffff00;stroke-opacity:1">
        <g
           id="g2548"
           style="fill:#ff0000;fill-opacity:1;stroke:#ffff00;stroke-opacity:1"
           transform="matrix(0.15135378,0,0,0.1683412,7.6614837,1.0995419)">
          <g
             id="g2540"
             transform="matrix(1.0007184,0,0,0.87342141,-0.06908732,9.9205349)"
             inkscape:transform-center-x="0.3767752"
             inkscape:transform-center-y="-0.52091471"
             style="fill:#ff0000;fill-opacity:1;stroke:#ffff00;stroke-opacity:1">
            <path
               id="path2536"
               style="fill:#ff0000;fill-opacity:1;stroke:#ffff00;stroke-width:3.66096;stroke-linejoin:miter;stroke-miterlimit:6.1;stroke-dasharray:none;paint-order:fill markers stroke;stroke-opacity:1"
               d="m 181.08008,297.07227 v 117.28515 h 33.37109 l 80.71094,84.11328 84.62695,-81.20312 -81.20312,-84.62696 -0.22266,0.2129 v -35.78125 z"
               transform="scale(0.26458333)" />
            <path
               id="path2538"
               style="fill:#ff0000;fill-opacity:1;stroke:#ffff00;stroke-width:0.968629;stroke-linejoin:miter;stroke-miterlimit:6.1;stroke-dasharray:none;paint-order:fill markers stroke;stroke-opacity:1"
               d="m 144.43196,79.37035 v 31.0317 h -8.82943 l -21.35477,22.25497 -22.390876,-21.48499 21.484986,-22.390887 0.0589,0.05633 V 79.37035 Z" />
          </g>
          <g
             id="g2546"
             transform="matrix(1.0007184,0,0,-0.87342141,-0.40912735,223.21436)"
             inkscape:transform-center-x="0.3767752"
             inkscape:transform-center-y="0.52091286"
             style="fill:#ff0000;fill-opacity:1;stroke:#ffff00;stroke-opacity:1">
            <path
               id="path2542"
               style="fill:#ff0000;fill-opacity:1;stroke:#ffff00;stroke-width:3.66096;stroke-linejoin:miter;stroke-miterlimit:6.1;stroke-dasharray:none;paint-order:fill markers stroke;stroke-opacity:1"
               d="m 181.08008,297.07227 v 117.28515 h 33.37109 l 80.71094,84.11328 84.62695,-81.20312 -81.20312,-84.62696 -0.22266,0.2129 v -35.78125 z"
               transform="scale(0.26458333)" />
            <path
               id="path2544"
               style="fill:#ff0000;fill-opacity:1;stroke:#ffff00;stroke-width:0.968629;stroke-linejoin:miter;stroke-miterlimit:6.1;stroke-dasharray:none;paint-order:fill markers stroke;stroke-opacity:1"
               d="m 144.43196,79.37035 v 31.0317 h -8.82943 l -21.35477,22.25497 -22.390876,-21.48499 21.484986,-22.390887 0.0589,0.05633 V 79.37035 Z" />
          </g>
        </g>
        <g
           id="g2562"
           style="fill:#ff0000;fill-opacity:1;stroke:#ffff00;stroke-opacity:1"
           transform="matrix(0.15135378,0,0,0.1683412,26.074554,1.1574276)">
          <g
             id="g2554"
             transform="matrix(1.0007184,0,0,0.87342141,-0.06908732,9.9205349)"
             inkscape:transform-center-x="0.3767752"
             inkscape:transform-center-y="-0.52091471"
             style="fill:#ff0000;fill-opacity:1;stroke:#ffff00;stroke-opacity:1">
            <path
               id="path2550"
               style="fill:#ff0000;fill-opacity:1;stroke:#ffff00;stroke-width:3.66096;stroke-linejoin:miter;stroke-miterlimit:6.1;stroke-dasharray:none;paint-order:fill markers stroke;stroke-opacity:1"
               d="m 181.08008,297.07227 v 117.28515 h 33.37109 l 80.71094,84.11328 84.62695,-81.20312 -81.20312,-84.62696 -0.22266,0.2129 v -35.78125 z"
               transform="scale(0.26458333)" />
            <path
               id="path2552"
               style="fill:#ff0000;fill-opacity:1;stroke:#ffff00;stroke-width:0.968629;stroke-linejoin:miter;stroke-miterlimit:6.1;stroke-dasharray:none;paint-order:fill markers stroke;stroke-opacity:1"
               d="m 144.43196,79.37035 v 31.0317 h -8.82943 l -21.35477,22.25497 -22.390876,-21.48499 21.484986,-22.390887 0.0589,0.05633 V 79.37035 Z" />
          </g>
          <g
             id="g2560"
             transform="matrix(1.0007184,0,0,-0.87342141,-0.40912735,223.21436)"
             inkscape:transform-center-x="0.3767752"
             inkscape:transform-center-y="0.52091286"
             style="fill:#ff0000;fill-opacity:1;stroke:#ffff00;stroke-opacity:1">
            <path
               id="path2556"
               style="fill:#ff0000;fill-opacity:1;stroke:#ffff00;stroke-width:3.66096;stroke-linejoin:miter;stroke-miterlimit:6.1;stroke-dasharray:none;paint-order:fill markers stroke;stroke-opacity:1"
               d="m 181.08008,297.07227 v 117.28515 h 33.37109 l 80.71094,84.11328 84.62695,-81.20312 -81.20312,-84.62696 -0.22266,0.2129 v -35.78125 z"
               transform="scale(0.26458333)" />
            <path
               id="path2558"
               style="fill:#ff0000;fill-opacity:1;stroke:#ffff00;stroke-width:0.968629;stroke-linejoin:miter;stroke-miterlimit:6.1;stroke-dasharray:none;paint-order:fill markers stroke;stroke-opacity:1"
               d="m 144.43196,79.37035 v 31.0317 h -8.82943 l -21.35477,22.25497 -22.390876,-21.48499 21.484986,-22.390887 0.0589,0.05633 V 79.37035 Z" />
          </g>
        </g>
      </g>
      <g
         id="g2594"
         transform="translate(0.1770352,15.918544)"
         style="fill:#ff0000;fill-opacity:1;stroke:#ffff00;stroke-opacity:1">
        <g
           id="g2578"
           style="fill:#ff0000;fill-opacity:1;stroke:#ffff00;stroke-opacity:1"
           transform="matrix(0.15135378,0,0,0.1683412,7.6614837,1.0995419)">
          <g
             id="g2570"
             transform="matrix(1.0007184,0,0,0.87342141,-0.06908732,9.9205349)"
             inkscape:transform-center-x="0.3767752"
             inkscape:transform-center-y="-0.52091471"
             style="fill:#ff0000;fill-opacity:1;stroke:#ffff00;stroke-opacity:1">
            <path
               id="path2566"
               style="fill:#ff0000;fill-opacity:1;stroke:#ffff00;stroke-width:3.66096;stroke-linejoin:miter;stroke-miterlimit:6.1;stroke-dasharray:none;paint-order:fill markers stroke;stroke-opacity:1"
               d="m 181.08008,297.07227 v 117.28515 h 33.37109 l 80.71094,84.11328 84.62695,-81.20312 -81.20312,-84.62696 -0.22266,0.2129 v -35.78125 z"
               transform="scale(0.26458333)" />
            <path
               id="path2568"
               style="fill:#ff0000;fill-opacity:1;stroke:#ffff00;stroke-width:0.968629;stroke-linejoin:miter;stroke-miterlimit:6.1;stroke-dasharray:none;paint-order:fill markers stroke;stroke-opacity:1"
               d="m 144.43196,79.37035 v 31.0317 h -8.82943 l -21.35477,22.25497 -22.390876,-21.48499 21.484986,-22.390887 0.0589,0.05633 V 79.37035 Z" />
          </g>
          <g
             id="g2576"
             transform="matrix(1.0007184,0,0,-0.87342141,-0.40912735,223.21436)"
             inkscape:transform-center-x="0.3767752"
             inkscape:transform-center-y="0.52091286"
             style="fill:#ff0000;fill-opacity:1;stroke:#ffff00;stroke-opacity:1">
            <path
               id="path2572"
               style="fill:#ff0000;fill-opacity:1;stroke:#ffff00;stroke-width:3.66096;stroke-linejoin:miter;stroke-miterlimit:6.1;stroke-dasharray:none;paint-order:fill markers stroke;stroke-opacity:1"
               d="m 181.08008,297.07227 v 117.28515 h 33.37109 l 80.71094,84.11328 84.62695,-81.20312 -81.20312,-84.62696 -0.22266,0.2129 v -35.78125 z"
               transform="scale(0.26458333)" />
            <path
               id="path2574"
               style="fill:#ff0000;fill-opacity:1;stroke:#ffff00;stroke-width:0.968629;stroke-linejoin:miter;stroke-miterlimit:6.1;stroke-dasharray:none;paint-order:fill markers stroke;stroke-opacity:1"
               d="m 144.43196,79.37035 v 31.0317 h -8.82943 l -21.35477,22.25497 -22.390876,-21.48499 21.484986,-22.390887 0.0589,0.05633 V 79.37035 Z" />
          </g>
        </g>
        <g
           id="g2592"
           style="fill:#ff0000;fill-opacity:1;stroke:#ffff00;stroke-opacity:1"
           transform="matrix(0.15135378,0,0,0.1683412,26.074554,1.1574276)">
          <g
             id="g2584"
             transform="matrix(1.0007184,0,0,0.87342141,-0.06908732,9.9205349)"
             inkscape:transform-center-x="0.3767752"
             inkscape:transform-center-y="-0.52091471"
             style="fill:#ff0000;fill-opacity:1;stroke:#ffff00;stroke-opacity:1">
            <path
               id="path2580"
               style="fill:#ff0000;fill-opacity:1;stroke:#ffff00;stroke-width:3.66096;stroke-linejoin:miter;stroke-miterlimit:6.1;stroke-dasharray:none;paint-order:fill markers stroke;stroke-opacity:1"
               d="m 181.08008,297.07227 v 117.28515 h 33.37109 l 80.71094,84.11328 84.62695,-81.20312 -81.20312,-84.62696 -0.22266,0.2129 v -35.78125 z"
               transform="scale(0.26458333)" />
            <path
               id="path2582"
               style="fill:#ff0000;fill-opacity:1;stroke:#ffff00;stroke-width:0.968629;stroke-linejoin:miter;stroke-miterlimit:6.1;stroke-dasharray:none;paint-order:fill markers stroke;stroke-opacity:1"
               d="m 144.43196,79.37035 v 31.0317 h -8.82943 l -21.35477,22.25497 -22.390876,-21.48499 21.484986,-22.390887 0.0589,0.05633 V 79.37035 Z" />
          </g>
          <g
             id="g2590"
             transform="matrix(1.0007184,0,0,-0.87342141,-0.40912735,223.21436)"
             inkscape:transform-center-x="0.3767752"
             inkscape:transform-center-y="0.52091286"
             style="fill:#ff0000;fill-opacity:1;stroke:#ffff00;stroke-opacity:1">
            <path
               id="path2586"
               style="fill:#ff0000;fill-opacity:1;stroke:#ffff00;stroke-width:3.66096;stroke-linejoin:miter;stroke-miterlimit:6.1;stroke-dasharray:none;paint-order:fill markers stroke;stroke-opacity:1"
               d="m 181.08008,297.07227 v 117.28515 h 33.37109 l 80.71094,84.11328 84.62695,-81.20312 -81.20312,-84.62696 -0.22266,0.2129 v -35.78125 z"
               transform="scale(0.26458333)" />
            <path
               id="path2588"
               style="fill:#ff0000;fill-opacity:1;stroke:#ffff00;stroke-width:0.968629;stroke-linejoin:miter;stroke-miterlimit:6.1;stroke-dasharray:none;paint-order:fill markers stroke;stroke-opacity:1"
               d="m 144.43196,79.37035 v 31.0317 h -8.82943 l -21.35477,22.25497 -22.390876,-21.48499 21.484986,-22.390887 0.0589,0.05633 V 79.37035 Z" />
          </g>
        </g>
      </g>
    </g>
  </g>
  <g
     inkscape:groupmode="layer"
     id="layer2"
     inkscape:label="Слой 2">
    <circle
       style="opacity:0.84447324;mix-blend-mode:lighten;fill:#ffff00;fill-opacity:1;stroke:#ffff00;stroke-width:1;stroke-linejoin:miter;stroke-miterlimit:6.1;stroke-dasharray:none;paint-order:fill markers stroke;filter:url(#filter3923);stroke-opacity:1"
       id="path2621"
       cx="51.557999"
       cy="42.854187"
       r="30" />
  </g>
</svg>
